<?xml version="1.0" standalone="no"?>
<!DOCTYPE svg PUBLIC "-//W3C//DTD SVG 20010904//EN"
 "http://www.w3.org/TR/2001/REC-SVG-20010904/DTD/svg10.dtd">
<svg version="1.0" xmlns="http://www.w3.org/2000/svg"
 width="800.000000pt" height="669.000000pt" viewBox="0 0 800.000000 669.000000"
 preserveAspectRatio="xMidYMid meet">
<metadata>
Created by potrace 1.16, written by Peter Selinger 2001-2019
</metadata>
<g transform="translate(0.000000,669.000000) scale(0.100000,-0.100000)"
fill="#000000" stroke="none">
<path d="M7690 6671 c-5 -11 -10 -30 -10 -42 0 -12 -8 -28 -17 -35 -13 -9 -15
-16 -8 -23 11 -11 8 -52 -13 -196 -6 -38 -13 -113 -16 -165 -2 -52 -9 -129
-16 -171 -7 -53 -7 -84 0 -103 5 -15 10 -72 10 -127 0 -55 4 -107 9 -117 13
-27 31 -87 31 -106 0 -10 14 -37 31 -62 25 -34 33 -56 35 -98 2 -31 -1 -58 -6
-61 -5 -3 -7 -12 -3 -20 3 -10 -1 -15 -15 -15 -15 0 -21 -9 -26 -33 l-6 -33
-71 -2 c-39 -1 -76 -5 -82 -9 -5 -3 -7 -2 -4 4 4 6 -17 13 -55 17 -87 9 -98 8
-98 -9 0 -8 -7 -15 -16 -15 -11 0 -13 -6 -9 -19 4 -14 -1 -23 -17 -33 -13 -7
-26 -12 -29 -13 -3 0 -17 -13 -30 -29 -13 -15 -32 -37 -41 -47 -18 -18 -16
-19 41 -19 54 0 79 -7 121 -35 8 -6 38 -14 65 -20 28 -5 50 -14 50 -20 0 -5 3
-15 7 -21 36 -55 3 -174 -48 -174 -48 0 -169 34 -203 57 -19 13 -38 23 -42 23
-5 0 -18 23 -30 50 -24 55 -25 56 -44 37 -35 -35 -57 -103 -66 -201 -6 -56
-14 -133 -20 -173 -13 -90 -13 -231 0 -265 6 -17 20 -27 40 -31 17 -4 31 -13
31 -21 0 -17 49 -27 72 -15 31 17 47 9 70 -31 14 -23 28 -38 36 -35 7 3 10 0
7 -5 -3 -6 2 -13 12 -17 10 -4 21 -11 25 -17 3 -5 14 -11 23 -12 9 -1 25 -10
34 -18 10 -9 26 -16 37 -16 22 -1 104 -74 104 -94 0 -8 6 -19 14 -25 8 -7 17
-22 20 -35 3 -13 14 -26 24 -28 14 -4 21 -18 25 -49 13 -85 24 -134 40 -173
10 -21 17 -46 17 -56 0 -12 11 -20 33 -24 17 -4 44 -9 60 -13 15 -3 37 -17 50
-32 12 -14 29 -25 37 -23 12 2 15 -8 14 -45 0 -27 3 -53 8 -59 5 -8 2 -19 -9
-29 -9 -10 -19 -36 -22 -58 -5 -33 -11 -43 -31 -48 l-25 -7 23 -7 c24 -8 30
-30 8 -38 -14 -6 -38 -85 -30 -99 10 -15 51 -8 70 13 10 11 26 18 36 16 9 -3
19 0 21 6 2 8 5 8 10 0 4 -6 0 -18 -8 -26 -8 -9 -15 -22 -15 -31 0 -8 -4 -18
-10 -21 -5 -3 -10 -14 -10 -24 0 -10 -11 -28 -25 -41 -14 -13 -25 -28 -25 -33
0 -5 -15 -32 -34 -60 -19 -29 -44 -73 -55 -98 -13 -27 -33 -52 -49 -59 -38
-19 -128 -31 -262 -36 -63 -2 -125 -7 -137 -9 -24 -6 -32 -38 -12 -50 6 -4 8
-13 5 -21 -3 -7 5 -26 18 -41 26 -31 91 -53 157 -53 22 0 38 -4 34 -9 -3 -5
-1 -12 5 -16 5 -3 10 -1 10 5 0 7 5 8 13 3 6 -4 21 -9 32 -9 11 -1 62 -9 114
-18 70 -12 97 -14 107 -5 8 7 28 9 49 5 31 -6 35 -5 35 14 0 12 5 18 10 15 6
-3 10 -17 10 -31 0 -20 4 -24 24 -21 13 1 31 9 40 16 14 12 19 11 31 -5 13
-17 14 174 11 1486 -2 828 -4 1516 -4 1530 0 14 2 269 4 568 l5 542 -150 0
c-138 0 -151 -2 -161 -19z"/>
<path d="M6308 6500 c-31 -10 -73 -16 -92 -13 -28 3 -36 0 -36 -12 0 -11 -6
-15 -17 -11 -10 3 -61 6 -113 7 -85 2 -100 0 -137 -22 -24 -13 -43 -27 -43
-31 0 -28 -134 -198 -155 -198 -8 0 -20 -6 -27 -13 -7 -8 -38 -23 -68 -35 -80
-30 -138 -60 -142 -73 -2 -6 -15 -13 -28 -14 -51 -6 -108 -26 -144 -50 -20
-14 -43 -25 -50 -25 -8 0 -19 -7 -26 -15 -7 -8 -17 -15 -23 -15 -5 0 -29 -18
-53 -40 -24 -22 -41 -40 -38 -40 3 0 -17 -27 -46 -60 -29 -33 -56 -57 -61 -54
-5 3 -13 -4 -17 -16 -4 -12 -19 -27 -32 -34 -18 -9 -24 -20 -23 -39 2 -26 -10
-36 -21 -18 -8 12 -66 -17 -66 -32 0 -7 5 -19 10 -27 9 -13 13 -11 29 10 l20
25 30 -23 c38 -27 37 -27 45 3 4 14 13 25 21 25 11 0 57 -16 73 -26 2 -1 -11
-15 -28 -32 -38 -38 -38 -51 0 -59 17 -3 35 -14 41 -25 13 -25 34 -18 36 13 0
13 4 34 8 46 5 16 2 23 -14 28 -27 8 -28 35 -1 28 15 -4 22 2 30 21 8 23 13
25 30 16 11 -6 20 -7 20 -3 0 8 25 20 90 43 59 21 130 54 130 62 0 4 32 23 70
42 49 25 94 40 148 47 42 6 82 15 88 20 7 5 16 9 20 8 5 -1 22 3 37 9 16 7 47
13 69 14 30 1 42 6 46 20 2 10 13 18 23 18 11 0 38 14 61 30 23 17 59 33 80
36 21 4 38 10 38 15 0 4 8 10 19 14 10 3 29 14 41 25 13 11 30 20 39 20 10 0
27 8 40 18 44 32 158 148 190 192 29 40 31 49 30 117 -1 64 -4 75 -23 85 -31
18 -66 17 -128 -2z"/>
<path d="M7387 6393 c-4 -3 -7 -16 -7 -28 0 -12 -9 -30 -20 -40 -11 -10 -22
-27 -26 -38 -8 -27 -64 -77 -85 -77 -9 0 -22 -7 -30 -16 -7 -9 -30 -23 -51
-31 -21 -8 -38 -19 -38 -25 0 -5 -4 -7 -8 -4 -10 6 -72 -48 -72 -63 0 -19
-139 -69 -159 -57 -12 8 -79 -9 -131 -32 -19 -9 -41 -17 -47 -18 -7 -1 -28
-18 -46 -38 -24 -25 -37 -32 -44 -25 -8 8 -14 5 -22 -9 -6 -11 -22 -23 -36
-26 -14 -4 -25 -13 -25 -21 0 -8 -5 -15 -10 -15 -14 0 -72 -41 -88 -62 -7 -10
-28 -25 -47 -34 -22 -10 -35 -23 -35 -35 0 -12 -7 -19 -20 -19 -15 0 -20 -7
-20 -25 0 -17 -7 -28 -22 -34 -23 -9 -23 -9 5 -20 16 -6 34 -11 42 -11 8 0 17
-5 21 -11 3 -6 15 -9 25 -6 11 3 17 2 14 -3 -2 -4 23 -10 57 -14 59 -6 63 -5
88 21 84 89 163 139 196 126 8 -3 22 1 31 8 10 9 41 14 84 14 38 0 61 3 51 6
-14 6 -12 9 11 18 16 6 32 9 37 6 4 -3 14 2 21 11 12 14 14 14 21 -5 9 -25 32
-28 26 -3 -4 15 5 17 101 17 58 1 123 5 144 9 33 8 37 6 37 -11 0 -18 48 -63
68 -63 13 0 30 59 37 130 4 36 12 88 19 115 14 57 12 357 -3 390 -5 11 -12 28
-15 38 -6 18 -18 22 -29 10z"/>
<path d="M3140 5551 c-14 -28 -12 -57 5 -71 8 -7 15 -24 15 -38 0 -13 7 -30
16 -37 10 -7 19 -32 21 -62 l5 -51 -46 -3 c-25 -2 -46 -2 -46 0 0 2 9 12 20
21 19 17 19 18 3 38 -10 11 -35 30 -55 41 -48 26 -60 12 -56 -66 3 -53 5 -58
26 -56 33 4 27 -21 -9 -34 -29 -11 -30 -14 -18 -29 13 -16 14 -16 17 -1 4 21
22 22 22 2 0 -20 -47 -75 -104 -122 -22 -18 -32 -21 -48 -12 -24 13 -48 5 -48
-16 0 -8 -7 -15 -15 -15 -18 0 -30 -24 -20 -40 5 -8 12 -6 25 5 16 15 19 15
34 -1 14 -14 21 -14 46 -4 16 7 37 10 45 6 13 -4 10 -14 -15 -54 -31 -51 -39
-75 -18 -54 20 20 27 14 19 -15 -5 -19 -17 -31 -37 -37 -16 -4 -36 -12 -44
-17 -33 -20 -42 -21 -53 -9 -9 10 -9 14 2 17 7 3 23 15 34 26 l20 20 -24 20
c-23 19 -24 19 -28 1 -2 -11 -7 -23 -11 -29 -4 -5 -10 -22 -13 -36 -10 -40
-38 -65 -82 -72 -47 -8 -131 -49 -157 -77 -22 -23 -29 -24 -47 -7 -9 7 -11 7
-8 1 4 -7 -9 -18 -33 -28 -45 -18 -50 -30 -19 -46 16 -9 27 -7 55 9 19 12 41
21 48 21 17 0 43 -39 48 -70 3 -22 8 -24 51 -23 30 1 53 -4 62 -14 21 -20 41
-11 48 24 9 42 33 71 47 56 8 -7 21 -8 39 -3 14 5 54 11 89 14 88 7 142 24
142 42 0 13 8 15 50 9 42 -6 49 -4 44 8 -7 18 75 60 108 55 19 -2 23 -10 25
-43 1 -22 -6 -55 -15 -73 -15 -29 -15 -34 -2 -42 33 -21 55 -11 68 30 15 48
16 87 2 95 -24 15 -9 27 25 21 48 -9 47 14 -2 41 -53 30 -97 78 -89 98 4 10
13 14 24 11 14 -5 21 2 31 29 7 19 9 40 6 46 -11 17 26 49 56 49 18 0 34 9 46
26 17 22 24 25 51 19 32 -7 32 -7 32 -67 0 -39 -5 -64 -15 -74 -18 -18 -18
-24 -5 -44 8 -12 12 -13 19 -2 7 11 17 9 49 -12 27 -17 56 -26 82 -26 38 0 40
2 40 30 0 22 -5 30 -17 30 -10 0 -26 11 -35 24 -14 19 -15 30 -6 64 9 37 12
40 29 29 10 -6 19 -18 19 -25 0 -18 79 -6 100 15 13 13 13 14 -6 9 -11 -3 -28
0 -40 9 -16 13 -17 16 -4 24 10 7 22 6 37 -4 13 -9 23 -11 25 -4 5 16 73 -17
90 -44 15 -21 14 -25 -7 -45 -13 -12 -27 -22 -33 -22 -6 0 -12 -3 -14 -7 -4
-10 -91 -53 -107 -53 -6 0 -11 -5 -11 -11 0 -8 16 -10 50 -5 41 6 50 4 50 -9
0 -8 -9 -15 -20 -15 -19 0 -28 -24 -12 -33 4 -3 34 -1 66 4 54 7 64 5 117 -22
32 -16 68 -29 79 -29 12 0 20 -7 20 -17 0 -13 3 -14 12 -5 10 10 10 17 -1 33
-20 34 0 46 52 32 24 -7 53 -10 65 -6 15 4 28 -3 46 -23 14 -16 26 -35 26 -41
0 -19 71 -45 106 -40 28 5 33 2 47 -32 10 -21 17 -41 17 -46 0 -5 6 -16 14
-24 7 -9 16 -37 18 -63 l6 -48 -42 6 c-22 3 -68 10 -101 15 -33 5 -74 9 -91 9
l-32 0 -4 -65 c-2 -35 -6 -67 -9 -69 -10 -11 -169 29 -169 41 0 18 -17 16 -27
-2 -7 -13 -22 -12 -118 3 l-110 18 3 60 3 61 -43 11 c-89 23 -91 22 -122 -9
-35 -35 -36 -35 -88 -8 -29 15 -43 18 -51 10 -6 -6 -22 -11 -36 -12 -15 0 -20
-3 -13 -6 9 -4 10 -8 2 -18 -12 -14 20 -23 160 -45 36 -5 85 -16 110 -24 40
-13 41 -14 10 -10 -19 3 -57 7 -85 9 -27 3 -88 11 -135 19 -47 7 -96 13 -110
12 -37 -2 -80 -39 -80 -69 0 -22 -5 -25 -51 -30 -32 -4 -72 -1 -107 9 -32 8
-83 17 -114 21 -39 4 -58 10 -58 19 0 8 4 14 8 14 4 0 14 16 21 36 18 50 2 64
-80 71 -35 3 -75 13 -88 22 -22 14 -25 13 -47 -13 -13 -15 -24 -38 -24 -51 0
-35 -18 -77 -31 -70 -5 4 -21 4 -34 1 -19 -5 -24 -14 -27 -43 -4 -45 -18 -51
-134 -52 -106 -1 -142 -9 -155 -33 -14 -26 -6 -33 14 -13 25 25 37 17 37 -24
0 -36 -2 -39 -32 -43 -102 -13 -202 7 -139 27 12 3 21 15 21 26 0 20 4 23 55
34 25 6 27 8 12 16 -11 6 -23 6 -35 0 -10 -5 -41 -11 -68 -14 -28 -2 -56 -7
-62 -11 -19 -12 -14 -44 9 -56 19 -11 19 -12 -16 -40 -21 -17 -43 -26 -52 -23
-9 4 -19 -1 -25 -10 -5 -10 -21 -17 -38 -17 -27 0 -30 3 -30 30 0 17 -4 38 -9
48 -5 9 -12 25 -15 36 -5 14 -9 16 -20 7 -23 -19 -27 -58 -11 -98 15 -35 14
-37 -7 -60 -12 -13 -29 -22 -37 -21 -11 2 -17 -6 -19 -22 -1 -14 -7 -58 -13
-98 -11 -66 -10 -74 6 -93 18 -19 18 -21 2 -49 l-17 -28 42 -20 c47 -21 126
-49 173 -61 38 -10 19 -18 -57 -24 -32 -2 -61 -7 -65 -10 -3 -4 7 -24 24 -45
33 -42 45 -66 49 -101 2 -13 4 -25 6 -27 2 -1 35 -6 72 -10 47 -5 75 -13 88
-26 15 -15 32 -18 81 -17 34 1 75 -2 90 -6 22 -6 33 -3 52 15 16 15 39 23 69
25 41 3 47 1 52 -19 3 -13 4 -40 2 -62 l-3 -39 -78 0 c-71 0 -81 -2 -98 -24
-27 -33 -24 -61 11 -110 24 -33 28 -45 20 -61 -17 -31 -12 -40 22 -40 25 0 29
3 20 12 -25 25 -11 33 61 33 52 0 71 -3 69 -12 -3 -16 33 -17 132 -2 57 9 73
15 69 25 -3 8 0 14 6 14 6 0 11 14 11 30 0 30 -22 42 -36 19 -4 -7 -29 11 -64
46 l-57 57 -7 -54 -8 -53 -15 45 c-8 25 -19 48 -25 51 -5 3 -5 17 2 33 8 22
13 26 24 17 11 -9 11 -1 3 46 l-10 57 40 36 c32 30 49 38 95 43 31 4 68 3 81
-2 15 -6 41 -6 67 0 23 5 45 7 48 5 2 -3 13 -1 22 4 13 7 21 5 30 -5 17 -20
66 -19 74 1 4 12 13 14 32 10 15 -4 35 0 53 10 21 13 38 15 67 9 23 -5 32 -10
22 -12 -29 -7 -21 -23 10 -21 15 1 33 10 39 19 12 15 17 16 59 3 41 -12 51
-12 77 1 17 8 31 15 31 15 1 0 2 -14 3 -31 1 -18 4 -34 7 -36 2 -3 26 -5 53
-6 26 -1 54 -6 61 -11 23 -14 27 3 8 35 -15 26 -16 33 -5 40 17 10 45 3 78
-20 53 -36 53 -36 58 -23 6 16 40 16 45 0 3 -8 22 -12 55 -10 48 2 52 0 71
-30 13 -21 17 -35 11 -39 -6 -3 -1 -9 11 -12 13 -3 19 -10 15 -17 -4 -6 -14
-9 -22 -6 -18 7 -43 -10 -43 -30 0 -9 12 -13 35 -12 19 1 35 5 35 10 0 4 4 8
9 8 5 0 4 -14 -2 -32 -10 -24 -9 -32 1 -35 23 -9 32 -39 21 -73 -8 -21 -16
-29 -26 -25 -10 3 -13 1 -10 -7 5 -15 -17 -40 -27 -31 -3 3 0 13 7 21 10 13 8
14 -13 8 -14 -3 -37 -9 -52 -12 -16 -4 -28 -11 -28 -17 0 -6 -3 -7 -7 -4 -3 4
-12 -1 -19 -11 -12 -16 -13 -16 -20 2 -4 10 -2 27 5 37 6 11 7 19 2 19 -5 0
-11 -7 -15 -15 -3 -8 -17 -15 -31 -15 -32 0 -35 -35 -4 -43 12 -3 18 -10 14
-16 -10 -17 -33 -13 -39 7 -3 9 -26 26 -51 37 -25 11 -45 26 -45 33 0 20 -23
14 -55 -16 -17 -16 -40 -28 -53 -27 -23 2 -30 -9 -12 -20 6 -3 10 -14 10 -23
1 -31 39 -64 83 -73 23 -4 80 -8 126 -9 93 0 102 -7 21 -16 -30 -3 -64 -10
-77 -15 -14 -5 -39 -9 -57 -9 -29 0 -163 -49 -210 -76 -24 -14 -12 -37 15 -29
20 7 89 -29 89 -46 0 -12 -17 -12 -25 1 -3 6 -14 10 -23 10 -10 0 -2 -10 21
-26 33 -22 45 -25 88 -19 31 4 49 3 49 -3 0 -6 3 -17 6 -26 4 -12 0 -16 -15
-16 -12 0 -21 -4 -21 -10 0 -5 5 -10 11 -10 6 0 9 -6 6 -14 -7 -18 66 -86 92
-86 11 0 33 -11 49 -25 41 -34 64 -32 86 9 9 18 33 40 52 50 23 11 34 22 32
34 -2 11 4 18 18 20 19 3 44 38 44 63 0 7 -25 8 -74 4 -78 -8 -156 1 -156 16
0 5 14 9 30 9 26 0 30 4 30 28 0 41 24 70 47 56 10 -6 20 -22 21 -35 2 -13 9
-30 14 -36 10 -13 58 -18 58 -7 0 3 -18 29 -40 57 -45 56 -49 90 -12 95 12 2
22 7 22 12 0 10 64 30 95 30 11 0 25 -8 32 -19 10 -15 8 -22 -8 -39 -10 -12
-16 -28 -13 -36 6 -16 -23 -36 -55 -36 -26 0 -27 -21 -2 -44 15 -13 29 -16 63
-11 23 3 62 7 86 9 24 2 49 9 55 15 6 6 19 11 28 11 24 0 121 102 106 112 -8
5 -7 8 4 8 10 0 41 18 70 40 52 39 77 50 64 30 -9 -14 29 -12 43 2 9 9 12 7
12 -10 0 -23 -26 -42 -59 -42 -12 0 -21 -4 -21 -9 0 -5 -19 -18 -42 -30 -56
-28 -77 -41 -107 -70 -29 -27 -26 -26 84 20 84 35 174 85 214 119 20 17 22 22
10 37 -13 15 -11 16 11 10 20 -5 33 1 62 28 44 42 48 42 48 11 0 -31 18 -43
36 -24 12 12 11 23 -11 78 -14 35 -25 76 -25 91 0 15 -4 31 -10 34 -25 15 -8
27 31 22 50 -7 77 -30 85 -73 5 -27 11 -34 30 -34 27 0 41 -17 25 -33 -8 -8
-14 -8 -23 1 -19 19 -25 14 -32 -27 -3 -22 -12 -41 -18 -44 -10 -3 -8 -9 5
-24 9 -11 17 -25 17 -31 0 -15 17 -16 25 -2 10 16 21 12 22 -10 2 -17 -3 -19
-45 -14 -26 3 -63 7 -82 9 -19 2 -55 8 -79 14 -58 16 -63 7 -10 -17 68 -30
126 -43 156 -36 25 7 27 6 14 -9 -7 -10 -21 -17 -31 -17 -30 0 -37 -22 -36
-113 1 -75 4 -91 20 -103 23 -16 66 -19 66 -4 0 6 8 19 18 29 16 18 97 71 106
71 3 0 6 -14 8 -31 l3 -31 42 42 c69 67 115 128 103 135 -5 3 -10 20 -10 36 0
25 6 33 29 42 l30 11 -42 25 c-23 13 -64 36 -91 52 -40 22 -49 32 -51 58 -2
17 0 31 3 31 6 0 75 -57 129 -107 64 -59 154 -99 176 -77 3 3 32 7 64 9 56 2
135 11 181 21 37 7 25 30 -35 62 -45 24 -52 32 -34 32 13 0 44 -11 68 -25 68
-40 54 -83 -29 -90 -24 -2 -44 -4 -46 -4 -2 -1 6 -14 18 -30 21 -31 11 -53
-14 -32 -11 9 -18 8 -29 -4 -15 -14 -17 -14 -27 5 -8 16 -15 18 -29 10 -10 -5
-21 -7 -23 -4 -3 2 -18 0 -34 -6 -27 -11 -28 -12 -11 -25 21 -15 15 -55 -11
-78 -37 -31 -130 -48 -161 -28 -17 11 -7 17 44 25 96 17 128 44 90 76 -25 21
-70 1 -129 -56 -53 -52 -116 -156 -116 -192 0 -23 -47 -80 -90 -108 -21 -14
-41 -37 -44 -50 -4 -14 -18 -30 -31 -36 -25 -11 -25 -11 -5 -30 25 -23 26 -48
3 -48 -23 1 -41 16 -76 63 -32 43 -52 49 -43 12 7 -28 -8 -34 -22 -9 -8 14
-14 15 -45 3 -31 -11 -39 -11 -54 3 -20 17 -70 29 -90 21 -19 -7 3 -33 28 -33
27 0 23 -17 -5 -24 -15 -4 -32 -21 -43 -43 -11 -24 -27 -40 -42 -43 -51 -12
-26 -39 35 -40 23 0 51 -26 41 -37 -10 -10 -155 -5 -174 6 -17 9 -17 10 0 16
28 11 20 33 -15 41 -45 9 -74 30 -99 70 -19 31 -19 35 -5 50 15 14 14 18 -13
44 -33 34 -88 53 -78 27 7 -20 -31 -30 -81 -21 -27 5 -34 3 -26 -5 14 -15 114
-40 133 -34 13 5 14 3 4 -8 -22 -23 -14 -47 34 -101 47 -53 47 -53 21 -56 -15
-2 -50 1 -80 7 -59 10 -70 7 -44 -12 16 -12 15 -16 -21 -55 -41 -45 -57 -50
-88 -29 -11 7 -35 12 -52 10 -18 -2 -44 -4 -58 -5 -14 -2 -25 -7 -25 -11 0 -4
-12 -6 -27 -3 -16 2 -31 5 -35 5 -4 1 -5 8 -2 16 4 8 1 15 -5 15 -7 0 -19 16
-27 35 -8 20 -19 33 -25 30 -7 -5 -6 -12 2 -21 9 -11 9 -17 -1 -29 -16 -20
-40 -19 -40 1 0 12 -7 15 -26 11 -14 -2 -31 1 -37 7 -7 6 -21 11 -32 10 -11
-1 -32 -2 -46 -3 -14 0 -34 -7 -45 -15 -16 -13 -17 -18 -6 -36 17 -28 10 -35
-44 -49 -25 -7 -56 -18 -68 -26 -33 -22 -80 -9 -118 32 -54 57 -145 123 -177
129 -17 4 -45 22 -63 40 -18 19 -41 34 -50 34 -22 0 -38 -30 -38 -68 0 -16 -7
-35 -15 -42 -13 -10 -15 -9 -15 9 0 11 -4 21 -10 21 -5 0 -10 -7 -10 -15 0 -8
-9 -19 -20 -25 -11 -6 -20 -16 -20 -23 0 -20 50 -67 71 -67 12 0 23 -8 26 -20
3 -11 12 -20 19 -20 17 0 18 12 2 28 -9 9 -8 12 4 12 9 0 18 -7 22 -15 3 -8
10 -15 15 -15 6 0 8 7 5 15 -7 18 26 21 44 3 9 -9 12 -9 12 1 0 20 29 43 47
37 9 -4 20 -2 23 4 4 7 8 -1 8 -17 0 -15 4 -44 7 -63 5 -27 2 -41 -12 -59 -17
-21 -22 -22 -42 -11 -19 10 -22 10 -15 -2 4 -7 15 -18 25 -25 9 -7 22 -26 29
-43 11 -26 10 -33 -5 -50 -10 -11 -14 -26 -11 -38 5 -14 -2 -27 -24 -46 -18
-14 -38 -26 -46 -26 -8 0 -14 -4 -14 -10 0 -5 10 -10 22 -10 20 0 21 -1 3 -20
-10 -11 -22 -20 -27 -20 -14 0 -61 50 -54 57 3 4 -1 14 -9 24 -26 27 -24 71 4
97 13 12 27 22 30 22 4 0 8 16 9 36 2 28 -1 35 -11 31 -8 -3 -19 -1 -25 5 -12
12 -52 1 -52 -14 0 -15 31 -37 53 -38 10 0 16 -4 13 -9 -7 -11 -56 -1 -56 11
0 7 -18 8 -49 4 -31 -4 -52 -3 -56 4 -5 8 -11 8 -20 0 -18 -15 -58 -3 -51 15
7 19 -16 35 -42 28 -25 -6 -25 -7 -13 -31 5 -9 12 -25 15 -35 6 -18 15 -18 62
0 6 2 14 -2 17 -10 4 -10 -1 -13 -19 -9 -34 6 -30 -15 6 -36 17 -10 32 -28 36
-45 5 -24 15 -32 37 -28 4 1 11 -9 16 -22 5 -12 16 -29 25 -36 17 -14 23 -36
7 -27 -15 9 -61 -12 -61 -27 0 -9 16 -17 41 -21 l42 -7 -22 -22 c-31 -33 -28
-61 5 -54 23 4 24 3 10 -11 -14 -14 -17 -14 -34 1 -23 21 -43 22 -36 2 5 -11
-1 -15 -21 -15 -23 0 -25 3 -20 23 4 12 13 34 20 49 8 16 10 28 5 28 -5 0 -12
9 -15 21 -4 12 -31 45 -60 74 -29 29 -49 57 -44 62 12 12 0 51 -18 57 -12 5
-14 1 -11 -19 4 -16 1 -22 -6 -18 -6 4 -22 7 -36 8 -18 0 -25 5 -25 20 0 11
-3 22 -7 25 -7 6 -11 27 -9 52 0 9 21 31 46 49 25 18 45 37 45 43 0 6 -7 3
-16 -6 -13 -12 -23 -14 -48 -7 -23 7 -34 6 -41 -5 -10 -13 -53 -14 -74 -1 -6
3 -11 15 -11 26 0 16 5 18 26 13 22 -6 25 -4 22 12 -2 10 -15 25 -30 32 -28
13 -29 42 -2 42 8 0 14 5 14 10 0 9 -36 15 -67 11 -7 -1 -13 3 -13 10 0 7 -9
9 -25 5 -29 -7 -33 7 -7 26 11 7 21 20 25 28 4 12 6 11 6 -2 1 -10 6 -18 12
-18 13 0 1 42 -15 52 -16 11 -3 18 22 11 12 -3 22 -12 22 -19 0 -8 7 -14 15
-14 13 0 41 -37 38 -50 -1 -3 16 -4 38 -3 28 1 39 -2 39 -12 0 -10 -9 -13 -29
-10 -29 3 -29 2 -24 -33 4 -20 10 -39 15 -40 4 -2 6 -8 2 -13 -3 -5 3 -10 13
-10 10 -1 33 -3 51 -5 30 -4 33 -2 27 19 -9 29 -33 47 -63 47 -13 0 -21 4 -17
10 3 5 12 7 19 4 9 -4 16 5 21 25 4 17 13 31 21 31 8 0 14 7 14 15 0 20 19 19
27 -1 4 -10 0 -20 -10 -26 -21 -11 -22 -51 -2 -68 8 -7 15 -19 15 -26 0 -16
16 -19 25 -4 10 16 28 12 21 -5 -4 -11 1 -15 18 -15 23 0 24 2 20 62 -5 72 -9
89 -31 138 -22 49 -93 110 -135 114 -18 2 -50 11 -70 20 -44 19 -48 39 -18 88
11 18 20 36 20 40 0 4 -17 12 -37 17 -34 10 -41 7 -96 -29 -35 -24 -71 -40
-88 -40 -27 0 -28 -2 -17 -21 11 -18 10 -23 -15 -45 -33 -29 -53 -30 -81 -6
-17 14 -35 17 -98 14 -61 -3 -76 -6 -71 -18 3 -8 0 -14 -5 -14 -6 0 -12 -10
-14 -22 -2 -12 -19 -32 -38 -44 -19 -12 -46 -34 -60 -48 -15 -15 -37 -26 -52
-26 -18 0 -29 -7 -33 -21 -11 -34 -57 -69 -82 -62 -17 4 -23 1 -23 -12 0 -9 9
-19 19 -22 11 -3 22 -12 25 -20 5 -11 2 -13 -10 -9 -11 4 -14 1 -12 -12 4 -22
48 -30 48 -8 0 9 8 16 20 16 21 0 27 -15 10 -25 -5 -3 -10 -10 -10 -15 0 -14
32 -21 46 -9 18 15 18 2 1 -16 -16 -16 -72 -14 -89 3 -6 6 -24 12 -39 12 -18
0 -28 6 -32 20 -3 14 -14 20 -31 20 -19 0 -29 7 -36 25 -8 21 -14 24 -40 19
-30 -6 -42 7 -19 22 7 4 8 20 3 43 -4 20 -6 46 -6 57 2 26 -23 51 -33 34 -4
-6 -1 -17 5 -25 11 -13 7 -15 -21 -15 -19 0 -54 -7 -78 -16 -24 -8 -78 -18
-120 -23 -165 -18 -479 -116 -577 -180 -68 -44 -160 -135 -197 -194 -18 -27
-17 -29 7 -80 13 -29 37 -66 53 -81 33 -34 107 -86 122 -86 5 0 16 -6 24 -14
25 -25 230 -117 327 -148 52 -16 117 -36 143 -45 80 -26 92 21 17 68 -21 13
-42 30 -45 38 -7 18 15 43 32 36 9 -3 13 0 11 7 -3 7 -9 13 -14 13 -6 0 -22
13 -36 28 -32 34 -28 54 19 102 19 20 39 52 45 71 7 26 22 43 61 68 89 58 109
79 109 119 0 19 -7 50 -16 69 -51 107 -2 186 75 120 10 -9 19 -21 19 -27 0 -7
15 -12 33 -13 101 -4 112 -7 112 -27 0 -11 7 -20 15 -20 16 0 28 -19 29 -48 1
-15 -5 -16 -38 -11 -23 4 -41 2 -45 -4 -8 -13 24 -32 55 -32 20 0 21 -3 14
-38 -12 -61 -8 -85 17 -104 12 -10 32 -27 43 -38 12 -11 29 -20 39 -20 15 0
16 5 11 32 -6 25 -4 30 8 25 8 -3 27 -3 42 1 l26 7 -23 26 c-19 20 -31 25 -54
22 -35 -5 -51 10 -60 55 -7 36 14 47 23 12 5 -20 15 -25 26 -14 3 4 -5 21 -18
39 -14 17 -25 37 -25 43 0 16 58 26 74 13 14 -12 15 -53 1 -84 -9 -22 10 -46
25 -31 9 9 19 50 23 97 1 14 8 18 29 15 15 -3 28 -1 28 4 0 5 10 6 22 3 17 -6
20 -4 15 9 -8 19 -5 19 26 5 24 -11 24 -12 7 -29 -12 -12 -27 -16 -40 -13 -17
5 -21 2 -19 -12 5 -22 57 -39 75 -24 7 6 13 6 16 0 1 -5 19 -11 38 -13 32 -3
35 0 40 27 5 27 9 30 50 33 24 2 50 8 56 13 7 6 15 0 23 -17 10 -23 10 -25 -9
-19 -16 5 -20 2 -20 -14 0 -12 5 -21 11 -21 14 0 38 -30 39 -47 0 -7 -9 -13
-20 -13 -11 0 -20 -5 -20 -12 0 -6 -6 -19 -14 -27 -8 -9 -18 -40 -22 -69 -6
-48 -5 -52 12 -46 34 13 44 26 38 50 -8 33 11 31 33 -3 9 -16 24 -34 32 -41
14 -11 13 -13 -6 -18 -12 -3 -24 -13 -28 -22 -16 -42 -31 -62 -44 -57 -7 3
-20 0 -27 -6 -18 -15 -45 6 -37 27 7 18 -33 58 -48 48 -6 -3 -9 -19 -5 -34 7
-39 -15 -57 -39 -30 -10 11 -26 20 -35 20 -18 0 -60 40 -60 56 0 12 -68 74
-81 74 -5 0 -9 -9 -9 -20 0 -11 6 -20 13 -20 6 0 23 -16 36 -35 13 -19 28 -35
33 -35 5 0 4 -9 -2 -19 -9 -19 -13 -19 -45 -5 -19 7 -44 14 -56 14 -28 0 -19
-24 12 -30 29 -6 69 -37 85 -65 6 -11 29 -27 50 -35 21 -8 46 -22 56 -32 10
-10 23 -18 30 -18 6 0 25 -11 42 -23 17 -13 49 -27 71 -30 77 -12 177 -45 199
-66 12 -12 27 -21 33 -21 6 0 23 -10 39 -22 21 -17 42 -23 90 -24 34 -1 66 -4
72 -8 6 -3 52 -13 104 -20 51 -8 125 -20 163 -26 166 -25 291 -37 302 -28 7 5
14 5 18 -1 3 -6 21 -8 40 -5 19 3 41 2 47 -3 7 -4 33 -8 58 -9 25 -1 90 -5
145 -8 55 -4 143 -9 195 -11 84 -4 118 -11 232 -45 17 -5 28 -4 31 3 4 13 77
0 77 -14 0 -6 7 -3 16 6 15 14 18 14 33 1 9 -8 52 -19 96 -25 44 -5 89 -13 99
-17 14 -5 17 -4 12 4 -5 8 0 12 13 12 12 0 21 -4 21 -9 0 -5 15 -10 33 -10 96
-3 113 -5 122 -17 6 -8 46 -15 109 -18 54 -3 104 -10 111 -16 7 -6 21 -9 31
-9 67 6 154 -2 168 -17 10 -10 16 -11 16 -3 0 9 3 9 14 0 8 -7 25 -14 37 -17
50 -11 193 -25 211 -20 11 2 21 -1 24 -9 6 -14 58 -25 144 -31 42 -3 58 -8 72
-26 20 -25 23 -23 54 28 10 17 14 17 90 1 44 -9 83 -17 87 -17 16 0 6 19 -13
25 -11 3 -20 11 -20 16 0 13 28 11 32 -3 3 -8 9 -8 22 -1 13 7 15 13 7 17 -6
4 -11 11 -11 17 0 13 36 11 52 -4 16 -16 108 -13 118 4 6 8 11 6 17 -6 13 -22
53 -12 53 13 0 15 -2 15 -10 2 -9 -13 -11 -13 -20 0 -20 30 -12 38 28 28 53
-13 132 -18 132 -8 0 5 -21 12 -47 15 -27 3 -68 10 -93 15 -25 6 -76 12 -114
16 -39 3 -77 9 -85 14 -9 4 -33 8 -53 8 -52 0 -117 12 -124 23 -3 5 -22 9 -42
9 -25 0 -33 3 -26 10 8 8 31 8 75 1 35 -6 91 -13 124 -16 33 -4 67 -8 75 -10
46 -13 277 -42 383 -48 9 -1 17 -4 17 -8 0 -4 10 -7 23 -7 26 0 150 -10 157
-13 3 -1 23 -1 44 0 22 0 46 -5 53 -11 10 -8 13 -7 13 2 0 8 8 10 23 6 27 -8
49 -12 110 -21 38 -5 48 -3 53 9 7 17 54 22 54 6 0 -5 -5 -10 -11 -10 -17 0
-1 -17 21 -23 11 -3 27 2 36 10 11 12 28 14 67 9 85 -9 121 -18 136 -34 10
-10 16 -11 19 -3 5 14 42 15 42 0 0 -6 9 -8 20 -4 24 8 104 -4 95 -13 -9 -9
-39 -9 -46 1 -7 9 -69 -3 -69 -13 0 -8 45 -16 118 -23 19 -2 39 2 46 9 7 7 28
13 47 14 51 3 61 1 53 -11 -3 -6 -17 -8 -30 -5 -13 4 -24 3 -24 -2 0 -19 27
-32 67 -32 24 0 43 -4 43 -10 0 -5 20 -10 45 -10 32 0 45 4 45 14 0 15 38 29
54 19 6 -4 -2 -12 -16 -18 -16 -6 -24 -15 -20 -22 8 -13 36 -17 104 -15 36 2
46 5 42 16 -11 29 99 28 206 -2 19 -5 41 -11 49 -13 7 -2 15 1 18 7 2 7 -10
14 -29 17 -18 3 -51 10 -73 17 -43 12 -125 28 -190 35 -123 15 -291 41 -350
54 -22 6 -66 12 -98 16 -32 3 -77 10 -100 15 -97 21 -282 52 -364 60 -48 4
-128 18 -176 29 -48 12 -92 19 -97 16 -4 -3 -21 0 -37 6 -15 6 -41 12 -58 14
-47 6 -84 13 -165 30 -41 9 -88 18 -105 21 -16 2 -59 8 -94 13 -73 11 -113 35
-43 28 24 -3 42 -1 42 5 0 5 19 8 43 7 24 -2 47 0 52 3 15 9 509 -57 835 -112
30 -5 129 -21 220 -35 91 -14 173 -28 182 -31 9 -3 39 -9 66 -13 44 -7 49 -6
45 10 -3 12 -14 18 -32 18 -14 -1 -57 6 -96 15 -90 22 -347 66 -379 66 -14 0
-28 5 -32 11 -8 14 98 5 215 -17 42 -8 112 -19 156 -24 72 -8 361 -57 393 -66
10 -3 10 -7 0 -24 -16 -26 1 -40 52 -40 24 0 31 3 21 9 -7 5 -11 13 -7 19 3 6
-2 15 -11 21 -17 10 -17 10 0 11 23 0 13 19 -11 19 -45 0 -126 17 -122 26 3 5
16 8 30 6 42 -4 176 -39 160 -41 -8 -2 -18 -2 -22 -1 -5 0 -8 -4 -8 -9 0 -6 6
-10 13 -11 41 -3 135 -22 187 -38 19 -6 56 -11 82 -11 44 0 48 2 48 23 0 29
-31 40 -182 62 -59 8 -119 19 -133 25 -14 5 -40 10 -56 10 -16 0 -29 5 -29 11
0 7 -10 9 -25 7 -13 -3 -22 -2 -20 2 2 4 -8 8 -23 8 -50 3 -127 11 -177 19
-39 7 -49 12 -47 26 3 19 -24 24 -30 5 -3 -8 -22 -7 -74 3 -39 7 -59 15 -46
17 12 2 38 -2 57 -8 34 -11 60 -6 50 10 -2 4 -26 11 -52 14 -92 13 -113 18
-113 28 0 7 20 7 58 2 31 -4 68 -8 82 -9 14 0 35 -6 48 -13 23 -13 47 -8 37 9
-4 5 1 9 10 9 8 0 18 -7 21 -15 4 -8 10 -15 16 -15 5 0 6 5 3 10 -3 6 5 10 19
10 14 0 28 -5 31 -10 4 -6 13 -7 23 -1 10 5 61 3 126 -5 60 -7 113 -11 118 -8
4 3 11 -1 14 -9 5 -15 71 -26 182 -32 41 -2 52 0 52 12 0 11 8 14 30 11 19 -3
29 -1 27 6 -2 6 -21 12 -43 14 -21 2 -43 8 -48 13 -6 5 -26 9 -45 10 -20 1
-47 5 -61 10 -23 8 23 6 158 -5 l42 -4 0 374 c0 372 0 374 -21 374 -11 0 -27
6 -34 14 -9 8 -42 14 -92 16 -130 4 -155 7 -162 19 -4 6 -23 14 -42 16 -78 11
-647 24 -720 17 l-48 -4 27 -22 c15 -11 44 -30 65 -40 20 -11 37 -24 37 -30 0
-6 5 -3 11 7 17 28 30 20 24 -16 -6 -31 -6 -32 31 -33 21 0 40 -6 42 -12 2 -7
17 -12 32 -12 16 0 31 -4 35 -10 3 -6 15 -6 30 0 17 6 27 5 35 -6 7 -7 20 -14
29 -14 10 0 30 -13 46 -30 15 -16 31 -29 34 -28 20 2 31 -3 26 -12 -9 -14
-128 -12 -290 5 -77 8 -203 18 -280 21 -187 7 -185 7 -185 49 0 19 7 52 16 74
13 32 14 50 5 88 -9 45 -8 50 15 71 29 27 31 53 5 76 -14 13 -20 38 -25 113
-8 99 -21 136 -68 196 l-23 28 24 18 c31 24 24 52 -17 65 -19 7 -41 21 -50 33
-31 38 -112 74 -176 79 -34 2 -85 7 -113 12 -46 8 -53 7 -53 -7 0 -9 4 -22 9
-30 5 -8 7 -20 4 -28 -7 -19 -32 -16 -40 5 -4 9 -15 28 -24 41 -10 12 -21 38
-25 56 -6 36 -47 85 -70 85 -34 0 -54 -20 -54 -55 0 -27 4 -34 18 -32 9 1 18
-2 20 -8 1 -5 -11 -10 -28 -11 -47 -2 -62 -21 -57 -72 2 -24 10 -48 18 -53 10
-6 11 -11 2 -20 -18 -18 -31 -2 -38 51 -7 53 -11 58 -29 36 -20 -26 -60 -29
-87 -7 -20 17 -21 20 -6 21 9 0 17 4 17 10 0 5 -13 7 -30 3 -19 -3 -30 -1 -30
6 0 12 10 14 52 11 39 -2 108 19 108 33 0 7 -5 18 -11 24 -18 18 16 62 64 83
58 25 97 34 97 22 0 -16 31 -23 46 -11 12 10 12 14 -3 24 -15 11 -14 14 10 30
l26 17 71 -64 c38 -34 70 -70 70 -79 0 -9 9 -24 20 -34 11 -10 20 -24 20 -32
0 -16 66 -18 75 -3 4 6 -11 18 -34 28 -45 19 -53 32 -18 32 26 0 70 -26 115
-67 17 -17 32 -29 32 -26 0 2 13 -4 30 -14 23 -13 32 -15 42 -5 20 20 -3 63
-45 85 -31 16 -38 24 -34 43 4 22 1 22 -99 29 -57 4 -111 13 -120 19 -14 11
-14 15 1 46 24 50 54 69 127 79 35 5 79 19 98 31 19 12 73 43 120 69 79 44 86
51 98 92 7 24 21 60 32 79 36 66 48 95 70 163 28 90 32 114 19 123 -7 4 2 20
24 43 19 20 38 51 42 69 7 36 19 41 34 15 9 -17 11 -17 25 2 9 11 14 30 11 43
-3 12 -8 42 -12 67 -5 43 -15 56 -27 36 -3 -5 -18 -11 -32 -14 -32 -6 -78 15
-63 30 14 14 -10 63 -31 63 -20 0 -35 64 -25 103 5 18 1 26 -19 35 -19 8 -26
19 -26 40 0 38 -25 71 -49 65 -12 -3 -26 5 -40 23 -24 31 -22 40 7 25 54 -29
55 -5 2 50 -22 23 -40 52 -40 63 0 12 -8 35 -19 51 -17 28 -34 46 -90 99 -12
11 -21 27 -21 36 0 10 -11 28 -23 41 -13 13 -41 54 -61 92 -36 64 -59 82 -69
55 -3 -10 -9 -10 -26 0 -11 6 -30 12 -42 12 -29 0 -59 18 -59 36 0 13 7 15 36
10 33 -7 35 -5 32 15 -3 24 -58 68 -115 93 -17 8 -39 29 -48 46 -9 18 -31 38
-51 46 -19 8 -37 21 -41 29 -3 8 -11 15 -19 15 -16 0 -19 -26 -4 -35 6 -3 10
-15 10 -26 0 -15 19 -29 72 -54 74 -36 98 -59 80 -77 -7 -7 -14 -3 -21 11 -12
21 -41 29 -41 11 0 -6 5 -19 12 -30 20 -32 1 -34 -39 -4 -26 20 -50 29 -75 30
-42 0 -45 -3 -24 -31 8 -12 20 -16 35 -12 22 5 38 -6 65 -45 12 -17 18 -19 29
-10 19 16 27 5 26 -32 0 -29 -1 -29 -9 -8 -5 12 -17 22 -26 22 -10 0 -36 11
-60 25 l-43 25 -3 -32 c-2 -27 -8 -34 -30 -36 -17 -2 -34 4 -48 18 -17 17 -19
24 -9 42 10 18 8 24 -10 40 -30 23 -24 52 12 56 30 4 34 14 12 32 -19 16 -19
30 2 45 13 10 14 17 5 45 -15 40 -9 50 29 50 16 0 29 4 29 8 0 14 -23 32 -42
32 -9 0 -28 9 -40 20 -87 77 -117 100 -130 100 -8 0 -23 9 -33 20 -10 11 -24
20 -32 20 -14 0 -13 -12 4 -57 8 -20 -12 -15 -32 7 -10 11 -28 20 -39 20 -26
0 -122 34 -141 50 -8 6 -15 26 -17 43 -2 25 -11 36 -40 52 -31 16 -40 17 -62
7 -14 -7 -38 -17 -52 -24 -19 -9 -24 -17 -20 -34 6 -21 4 -21 -32 -13 -40 9
-58 0 -49 -25 4 -10 20 -16 44 -17 21 -1 30 -3 21 -6 -9 -2 -20 -13 -23 -23
-3 -10 -15 -20 -27 -24 l-22 -5 23 -25 c14 -14 32 -28 41 -31 25 -8 32 -56 12
-78 -14 -16 -14 -19 -2 -27 17 -11 29 -13 50 -10 23 3 23 5 1 48 -11 21 -18
48 -15 58 3 14 -4 24 -28 37 -36 21 -28 33 27 39 l30 3 0 -55 c0 -96 42 -121
102 -61 26 26 31 36 22 47 -14 17 -41 18 -58 2 -12 -11 -13 -10 -7 6 4 12 0
26 -10 37 -16 17 -15 18 14 9 61 -17 91 -41 90 -73 -1 -20 -8 -32 -24 -39 -19
-9 -21 -14 -13 -25 14 -16 36 -17 42 0 6 18 61 -4 65 -27 4 -19 -6 -19 -50 -1
-13 5 -17 -2 -23 -34 -7 -40 -18 -51 -30 -31 -11 18 -35 11 -35 -10 0 -11 -7
-23 -15 -26 -8 -4 -15 -11 -15 -18 0 -6 -9 -17 -20 -24 -17 -10 -21 -10 -26 3
-4 8 -2 21 4 28 7 9 2 21 -19 45 -16 17 -31 32 -35 32 -14 0 -50 36 -47 46 2
6 -8 19 -23 29 -25 16 -27 16 -43 0 -15 -15 -14 -18 8 -36 45 -37 68 -109 36
-109 -8 0 -23 9 -32 20 -26 30 -35 24 -30 -17 3 -30 7 -37 22 -35 31 6 85 -8
85 -22 0 -7 -16 -24 -35 -37 -42 -29 -43 -37 -10 -45 19 -5 24 -11 20 -25 -4
-13 0 -21 12 -26 17 -6 33 -22 33 -33 0 -12 -66 -44 -85 -42 -11 1 -27 -2 -35
-8 -13 -9 -13 -12 3 -24 10 -8 26 -12 37 -9 10 3 32 -5 48 -17 17 -13 45 -23
63 -24 20 -1 42 -10 56 -23 27 -28 40 -29 48 -3 9 27 0 38 -46 57 -31 12 -37
18 -29 29 12 13 -2 54 -19 54 -4 0 -12 10 -18 23 -9 20 -8 23 10 24 12 1 26
-2 32 -7 5 -4 21 -10 35 -12 14 -1 25 -8 25 -15 0 -22 12 -23 51 -4 35 18 64
20 37 3 -8 -5 -7 -13 3 -27 13 -17 16 -18 24 -5 5 8 12 11 17 7 4 -4 2 -17 -5
-27 -18 -29 -15 -37 17 -56 19 -11 27 -23 23 -32 -4 -12 0 -14 21 -8 16 4 27
2 27 -4 0 -5 7 -10 16 -10 8 0 12 -4 9 -10 -3 -5 -17 -10 -30 -10 -13 0 -27 5
-30 10 -3 6 -19 10 -35 10 -16 0 -36 7 -45 16 -19 19 -50 11 -41 -12 3 -9 6
-19 6 -24 0 -5 13 -11 30 -15 16 -4 46 -18 67 -32 21 -14 60 -32 87 -39 27 -7
54 -18 59 -23 6 -6 21 -11 34 -11 16 0 23 -6 23 -20 0 -11 7 -20 15 -20 26 0
150 -43 165 -57 13 -12 11 -13 -15 -7 -44 10 -165 49 -205 67 -19 8 -80 25
-135 36 -158 34 -276 62 -330 76 -94 26 -123 27 -143 7 -10 -10 -22 -38 -25
-61 -6 -49 -11 -56 -30 -48 -13 5 -13 14 -1 63 7 31 19 61 26 65 9 6 4 9 -14
9 -15 0 -30 5 -33 10 -8 13 -65 -43 -65 -64 0 -20 -19 -31 -32 -18 -6 6 -7 16
-1 27 8 13 4 24 -13 42 -51 55 -168 32 -176 -34 -2 -22 -9 -29 -29 -31 -30 -4
-101 -72 -81 -79 6 -3 12 -9 12 -14 0 -6 -4 -7 -10 -4 -5 3 -10 -1 -10 -10 0
-12 -5 -15 -16 -11 -9 3 -23 6 -32 7 -11 0 -12 2 -4 6 6 2 12 11 12 18 0 7 3
15 8 18 4 2 2 3 -4 1 -10 -2 -44 30 -44 42 0 3 -9 25 -20 49 -11 24 -17 51
-14 59 7 18 30 21 39 6 11 -18 31 -11 43 15 14 29 79 73 113 74 13 1 44 3 69
6 25 3 101 7 170 9 127 3 170 10 170 27 0 8 -39 12 -137 12 -38 0 -43 3 -43
23 0 24 -26 44 -55 44 -14 0 -16 -6 -11 -35 7 -33 -5 -48 -19 -25 -3 6 -17 10
-31 10 -14 0 -35 5 -47 12 -34 18 -100 18 -113 0 -8 -11 -31 -16 -81 -17 -39
-1 -75 -5 -81 -9 -6 -4 -70 0 -143 9 -72 8 -147 15 -167 15 -37 0 -122 35
-122 51 0 10 24 12 33 2 11 -11 61 -11 75 0 7 5 10 18 7 28 -5 16 19 79 30 79
2 0 16 -12 30 -27 29 -33 33 -78 8 -106 -18 -20 -17 -20 12 -13 43 11 48 19
41 69 -5 33 -12 46 -26 50 -27 7 -25 27 1 27 12 0 23 8 26 19 3 11 13 21 24
24 10 3 19 12 19 21 0 19 24 21 37 4 6 -9 6 -21 -2 -35 -9 -18 -14 -20 -25
-10 -10 10 -10 8 -1 -10 6 -13 19 -23 29 -23 13 0 14 -2 3 -9 -9 -6 -10 -10
-2 -16 7 -4 19 -1 27 6 10 8 18 9 22 2 4 -5 14 -13 22 -16 12 -4 11 -6 -2 -6
-10 -1 -18 -7 -18 -14 0 -8 12 -12 34 -12 30 1 35 -2 40 -26 6 -30 61 -66 72
-47 4 6 3 13 -2 17 -5 3 -17 22 -28 41 -10 19 -26 41 -34 48 -12 9 -13 15 -4
24 7 7 12 19 12 28 0 8 9 21 20 28 17 11 20 10 20 -7 0 -10 7 -24 15 -31 17
-14 18 -10 6 23 -8 20 -6 29 9 42 10 9 21 27 24 41 8 29 22 31 31 3 4 -13 1
-27 -9 -38 -17 -18 -21 -42 -8 -40 30 3 47 19 48 47 3 60 9 64 68 59 41 -5 56
-2 60 8 3 8 12 12 20 9 17 -6 57 30 54 49 -2 6 6 12 17 12 11 0 21 -8 23 -17
2 -13 -3 -18 -18 -18 -15 0 -20 -5 -18 -17 4 -24 78 -31 78 -7 0 8 6 22 14 29
12 12 16 11 31 -5 17 -19 17 -21 2 -38 -20 -21 -22 -42 -6 -42 7 0 17 -7 23
-15 6 -8 25 -18 43 -21 25 -5 33 -2 42 14 8 15 6 24 -9 42 -15 18 -17 26 -9
37 16 18 3 29 -16 13 -9 -8 -15 -8 -15 -2 0 6 5 14 12 18 15 10 -19 34 -48 34
-16 0 -26 10 -38 39 -17 43 -48 60 -72 40 -11 -9 -18 -9 -26 -1 -8 8 -8 12 3
16 48 15 49 15 45 46 -1 18 -10 39 -18 49 -8 9 -13 22 -10 29 2 7 -1 12 -7 12
-17 0 -75 43 -108 80 -27 30 -37 34 -74 34 -24 -1 -57 -5 -72 -9 -20 -5 -33
-3 -46 9 -19 18 -33 12 -24 -10 3 -8 0 -21 -7 -29 -17 -20 -66 -19 -74 2 -5
12 -9 14 -18 5 -18 -18 -44 -16 -29 2 8 10 8 16 -1 24 -23 19 -42 18 -44 -3
-1 -11 -3 -24 -4 -30 -6 -27 1 -35 25 -29 21 5 25 3 25 -15 0 -12 -6 -21 -12
-21 -7 0 2 -13 20 -29 21 -19 39 -27 52 -24 24 6 24 7 4 27 -8 9 -12 21 -8 27
5 9 10 8 18 -3 6 -8 34 -18 62 -22 50 -6 52 -5 63 23 12 27 16 28 64 27 43 -1
52 -4 56 -21 2 -11 11 -31 21 -45 12 -18 15 -32 9 -47 -10 -26 -17 -27 -70
-11 -33 9 -42 9 -57 -6 -14 -12 -28 -14 -52 -10 -22 5 -31 4 -27 -3 4 -6 0
-16 -7 -23 -16 -12 -44 -3 -78 27 -15 13 -18 12 -28 -6 -23 -44 -69 -13 -70
47 0 18 -4 40 -9 50 -5 9 -14 29 -20 45 -13 33 -37 35 -47 5 -4 -13 -13 -28
-21 -33 -11 -9 -4 -21 38 -63 43 -43 49 -55 39 -67 -16 -19 -28 -19 -64 0 -26
14 -30 14 -42 -2 -11 -17 -13 -16 -23 10 -6 16 -11 35 -11 43 0 32 -40 6 -44
-29 -4 -34 -32 -77 -51 -77 -8 0 -19 9 -25 20 -6 11 -21 20 -35 20 -13 0 -35
4 -49 9 -17 7 -27 6 -35 -3 -6 -7 -8 -16 -4 -19 9 -10 -18 -38 -30 -30 -6 3
-7 1 -3 -6 4 -6 0 -14 -8 -17 -22 -9 -8 -26 15 -19 20 7 28 -18 9 -30 -5 -3
-10 -15 -10 -26 0 -10 -6 -19 -14 -19 -16 0 -27 22 -33 65 -3 17 -11 34 -19
38 -8 4 -14 18 -15 30 0 12 -3 17 -5 11 -3 -6 -15 -9 -28 -7 -29 6 -42 -12
-25 -33 7 -8 8 -14 3 -13 -25 4 -34 -4 -34 -31 0 -39 19 -39 45 0 34 51 65 36
65 -31 0 -65 -42 -88 -95 -53 -15 10 -32 13 -42 9 -10 -5 -22 -7 -26 -6 -5 1
-11 -7 -14 -18 -5 -19 -7 -19 -29 -4 -29 18 -54 11 -54 -16 0 -11 -4 -23 -10
-26 -16 -10 -12 52 4 67 9 10 11 20 5 30 -7 13 -4 18 13 24 35 10 78 44 78 60
0 9 -11 14 -30 14 -37 0 -48 21 -29 56 20 39 2 58 -59 62 -40 2 -52 7 -57 23
-5 16 -14 19 -48 17 -38 -3 -42 -1 -40 19 3 22 -27 40 -46 29 -5 -3 -14 1 -21
9 -7 8 -23 15 -35 15 -12 0 -28 7 -35 15 -8 10 -30 15 -61 15 -40 0 -49 3 -49
18 0 10 -7 28 -16 40 -21 30 -98 32 -114 3z m2523 -1230 c23 -10 60 -21 82
-24 90 -13 216 -54 229 -76 3 -4 26 -14 51 -21 45 -13 73 -34 57 -44 -9 -5
-25 0 -187 59 -55 20 -109 39 -120 42 -11 3 -24 9 -30 13 -5 4 -26 11 -45 15
-19 4 -46 15 -60 25 -14 9 -32 20 -40 23 -12 4 -11 6 3 6 10 1 37 -8 60 -18z
m-3398 -507 c33 -9 83 -22 110 -30 52 -15 136 -26 193 -25 22 1 32 -4 32 -14
0 -8 -6 -15 -12 -16 -7 0 -24 -3 -38 -5 -39 -7 -51 -7 -120 1 -75 9 -108 8
-161 -4 -29 -7 -43 -5 -60 7 -13 9 -39 18 -58 22 -28 4 -37 11 -39 28 -7 50
50 64 153 36z m1951 -295 c9 -10 21 -16 26 -13 4 3 7 0 6 -8 -4 -20 53 -16 79
5 24 21 73 16 94 -9 6 -8 17 -14 25 -14 19 0 32 -29 32 -71 0 -50 27 -98 54
-99 11 0 3 41 -9 48 -9 6 -3 72 13 130 6 22 73 14 97 -11 12 -13 30 -26 40
-30 9 -3 17 -11 17 -18 0 -6 -7 -8 -16 -5 -22 8 -84 -39 -84 -65 0 -10 3 -19
8 -19 13 1 38 24 45 43 3 9 11 17 17 17 13 0 13 -6 -2 -29 -9 -15 -9 -25 0
-46 7 -15 9 -31 5 -38 -4 -7 -9 -4 -14 9 -4 12 -7 -1 -7 -34 -1 -51 -21 -102
-41 -102 -5 0 -14 14 -20 30 -10 30 -35 40 -44 18 -4 -10 -8 -10 -15 1 -8 10
-28 4 -105 -33 -75 -36 -104 -56 -134 -93 -77 -94 -137 -147 -132 -115 4 21
-3 22 -19 2 -15 -18 -22 -21 -36 -13 -17 9 -17 11 5 27 13 9 28 16 34 16 6 0
19 16 28 35 18 38 22 59 9 51 -4 -2 -14 0 -22 5 -11 8 -8 9 13 6 24 -4 34 3
74 52 25 31 57 64 72 73 15 11 20 18 11 18 -8 -1 -24 -7 -34 -15 -11 -8 -24
-11 -30 -6 -6 4 -30 15 -52 24 -41 16 -41 16 -55 -9 -12 -23 -14 -24 -20 -7
-3 10 -2 27 3 37 8 14 6 21 -6 28 -9 5 -16 15 -16 23 0 8 -9 19 -19 25 -27 14
-31 13 -31 -8 0 -10 -4 -22 -9 -27 -5 -6 -16 -30 -25 -54 -14 -42 -14 -44 9
-65 36 -31 37 -60 3 -64 -25 -3 -28 0 -28 27 0 17 -2 31 -5 31 -16 0 -85 -42
-106 -64 -30 -32 -42 -33 -28 -3 6 12 30 36 54 52 43 30 85 96 85 134 0 10 7
24 16 32 14 12 14 14 -3 26 -14 11 -15 16 -5 22 10 6 8 15 -11 37 -27 32 -23
66 8 78 10 4 15 12 11 22 -4 12 -1 14 14 9 11 -4 20 -2 20 3 0 6 31 10 70 9
54 0 74 -4 86 -18z m862 -164 c22 -28 42 -33 42 -10 0 17 9 19 30 5 12 -7 12
-13 4 -27 -6 -10 -16 -18 -22 -18 -28 0 -21 -18 22 -56 45 -40 75 -79 59 -79
-4 0 -26 16 -47 34 -47 41 -164 102 -225 117 -39 9 -41 11 -25 24 20 14 64 10
99 -9 11 -5 23 -10 27 -11 3 0 10 -3 14 -7 4 -5 12 -8 18 -8 6 0 -1 11 -16 25
-15 14 -32 25 -38 25 -6 0 -8 5 -5 10 11 18 43 10 63 -15z m442 -519 c30 -1
66 -7 78 -14 13 -8 57 -14 97 -15 79 -2 95 -8 76 -31 -26 -31 -84 -29 -196 4
-16 5 -65 11 -108 12 -60 2 -80 0 -87 -12 -5 -8 -8 -20 -6 -26 2 -6 0 -17 -5
-25 -6 -10 -9 -6 -9 14 0 27 0 27 -25 11 -25 -16 -25 -17 -7 -38 36 -42 62
-120 62 -188 0 -44 -2 -49 -19 -43 -11 3 -23 0 -28 -7 -8 -13 -12 8 -29 125
-7 52 -17 60 -78 71 -31 6 -42 4 -57 -13 -11 -11 -19 -29 -19 -39 0 -18 -49
-62 -69 -62 -5 0 -11 -5 -13 -11 -2 -6 -29 -11 -65 -11 -93 -1 -107 16 -45 52
20 12 41 28 45 36 4 8 22 21 40 30 17 9 39 26 48 38 12 15 38 26 83 35 43 9
66 18 66 27 0 17 -41 19 -58 2 -14 -14 -29 -2 -34 27 -3 18 3 20 52 21 30 1
75 7 100 13 86 24 115 28 135 23 11 -3 45 -6 75 -6z m-349 -301 c8 -22 26 -43
47 -55 18 -11 30 -25 27 -31 -9 -14 -163 -1 -190 16 -11 7 -37 16 -57 19 -29
5 -38 12 -38 26 0 25 25 26 46 2 14 -16 22 -18 66 -9 43 9 53 15 62 39 14 37
22 35 37 -7z m-2929 -55 c-2 -31 -1 -32 29 -28 26 4 30 2 25 -15 -3 -13 1 -21
15 -24 10 -3 19 -10 19 -16 0 -22 42 -97 55 -97 7 0 15 -17 19 -40 3 -22 11
-40 16 -40 6 0 10 -6 10 -14 0 -8 16 -28 36 -44 28 -23 32 -31 20 -35 -9 -4
-16 -12 -16 -19 0 -7 -14 -26 -30 -42 -17 -16 -30 -36 -30 -45 0 -13 -2 -13
-9 -3 -7 11 -9 11 -14 -2 -4 -9 -14 -16 -23 -16 -9 0 -22 -8 -29 -17 -11 -15
-15 -15 -29 -4 -19 16 -9 33 39 63 21 14 23 18 9 13 -29 -8 -38 18 -14 40 11
10 17 22 14 27 -4 5 3 16 15 24 30 21 27 29 -21 53 -29 14 -46 17 -54 10 -15
-12 -84 26 -84 48 0 8 4 12 9 9 5 -3 14 1 21 9 16 20 -6 51 -25 35 -6 -5 -15
-7 -18 -4 -11 11 3 24 24 24 17 0 19 4 13 23 -5 12 -7 37 -6 55 2 34 -18 65
-40 61 -21 -3 -48 12 -48 27 0 17 17 18 23 2 3 -10 11 -9 33 4 38 23 50 18 46
-22z m-235 -135 c28 -20 99 -30 107 -16 11 18 26 13 26 -8 0 -11 5 -23 10 -26
6 -3 10 -17 10 -31 0 -14 6 -24 14 -24 14 0 26 -21 26 -46 0 -8 -6 -14 -14
-14 -9 0 -12 7 -10 18 3 10 -4 22 -17 30 -18 12 -24 11 -36 -1 -19 -19 -7 -40
18 -32 11 4 19 2 19 -4 0 -6 -4 -11 -9 -11 -5 0 -15 -2 -23 -5 -7 -3 -26 6
-42 20 -16 14 -33 25 -38 25 -4 0 -8 7 -8 15 0 7 -8 18 -17 23 -17 10 -39 2
-73 -25 -12 -9 -20 -8 -40 7 l-25 19 28 10 c22 9 27 16 22 30 -4 13 1 27 14
40 25 25 30 25 58 6z m600 -335 c16 -29 37 -53 49 -56 15 -4 20 -11 17 -24 -3
-12 3 -19 20 -24 30 -7 87 -70 87 -94 0 -10 5 -23 12 -30 9 -9 9 -12 0 -12 -7
0 -12 5 -12 10 0 6 -16 20 -35 31 -20 12 -32 26 -29 32 5 9 4 9 -6 0 -9 -8
-23 -7 -56 5 -33 12 -47 13 -55 5 -17 -17 -3 -43 23 -43 22 0 22 0 -4 -27 -23
-22 -29 -24 -42 -13 -16 13 -20 5 -19 -37 1 -9 -7 -9 -31 1 -25 10 -32 19 -34
48 -2 28 1 38 16 42 16 5 18 14 15 52 l-4 46 30 -7 c35 -7 43 12 15 36 -13 11
-17 10 -25 -4 -12 -20 -18 -21 -43 -2 -18 14 -18 15 8 50 15 19 34 35 42 35 7
0 14 7 14 15 0 29 19 15 47 -35z m568 -150 c40 -12 41 -13 43 -62 1 -36 -3
-57 -18 -78 -11 -15 -20 -33 -20 -39 0 -19 -28 0 -33 22 -3 12 -10 36 -15 54
-8 23 -7 38 4 58 8 15 14 29 14 31 0 10 -19 2 -40 -16 -22 -19 -24 -19 -36 -3
-14 20 -10 33 12 33 8 0 14 5 14 11 0 6 8 8 18 5 9 -2 35 -10 57 -16z"/>
<path d="M2743 5484 c-35 -38 -45 -41 -66 -19 -13 12 -17 12 -32 -5 -13 -14
-14 -23 -6 -39 22 -40 14 -62 -29 -78 -22 -9 -40 -22 -40 -30 0 -7 -8 -13 -18
-13 -19 0 -42 -18 -42 -32 0 -4 6 -8 14 -8 8 0 17 -6 19 -12 4 -9 14 -3 31 17
55 65 86 94 104 99 11 4 25 20 32 37 7 16 21 41 32 54 20 26 54 33 60 14 2 -6
15 -1 31 11 33 26 30 35 -7 20 -21 -8 -28 -7 -32 5 -8 20 -14 18 -51 -21z"/>
<path d="M2717 5327 c-41 -36 -48 -71 -23 -119 8 -16 11 -28 5 -28 -5 0 -9
-11 -9 -25 0 -24 2 -26 38 -19 80 14 95 30 93 104 -1 14 -1 39 -1 57 0 38 -15
52 -23 22 -7 -28 -31 -19 -37 13 l-5 26 -38 -31z"/>
<path d="M2566 5164 c-11 -8 -28 -14 -38 -14 -26 0 -60 -59 -52 -92 4 -21 2
-28 -9 -28 -8 0 -22 -12 -32 -26 -15 -23 -15 -28 -3 -41 18 -18 69 -22 75 -5
3 6 -6 16 -18 21 l-23 8 23 12 c19 10 22 20 20 54 -3 60 -1 67 16 67 11 0 14
-7 9 -25 -5 -21 -3 -25 17 -25 18 0 20 -3 11 -12 -14 -14 -16 -28 -3 -28 26 0
37 30 34 86 -2 32 -4 59 -6 60 -1 1 -11 -4 -21 -12z"/>
<path d="M4932 5028 c2 -17 11 -24 32 -26 64 -8 90 -74 31 -80 -52 -6 -76 -44
-36 -57 13 -4 18 -12 14 -22 -5 -12 -1 -14 16 -8 19 6 22 4 17 -12 -4 -14 0
-18 20 -19 18 -2 24 3 22 15 -2 15 41 71 56 71 3 0 6 -13 6 -30 0 -22 -5 -30
-17 -30 -12 0 -9 -5 11 -15 35 -19 36 -19 36 2 0 14 2 15 18 1 20 -18 38 -14
52 13 12 22 -14 59 -42 59 -9 0 -20 5 -23 10 -3 6 -14 10 -24 10 -22 0 -32 30
-19 55 12 20 -1 34 -44 53 -19 8 -29 8 -34 1 -4 -6 -12 -2 -21 10 -9 13 -25
21 -44 21 -26 0 -30 -3 -27 -22z"/>
<path d="M2403 4895 c-7 -8 -13 -21 -13 -29 0 -8 -4 -17 -10 -21 -10 -6 -48
12 -65 31 -5 7 -20 15 -31 18 -32 10 -50 -39 -29 -80 19 -37 19 -88 0 -104
-13 -11 -18 -10 -30 6 -19 25 -20 2 -1 -39 8 -18 16 -40 20 -50 6 -19 33 -33
44 -23 3 4 1 16 -6 27 -15 24 -7 59 14 59 9 0 14 -11 14 -35 0 -19 4 -35 9
-35 16 0 23 40 11 55 -6 8 -9 19 -5 25 4 6 1 17 -5 25 -7 8 -9 26 -5 44 5 24
2 32 -14 41 -29 15 -27 40 4 40 14 0 25 -4 25 -10 0 -5 7 -10 15 -10 7 0 18
-7 23 -16 7 -13 15 -15 37 -7 31 10 46 33 21 33 -23 0 -28 17 -10 35 12 11 20
13 27 6 16 -16 37 -13 37 4 0 8 -6 15 -12 15 -7 0 -22 2 -33 5 -11 3 -26 -2
-32 -10z"/>
<path d="M2510 4525 c-14 -8 -60 -17 -102 -20 -75 -6 -79 -8 -107 -44 -16 -20
-33 -50 -37 -67 -4 -16 -11 -35 -17 -42 -15 -18 -6 -22 54 -24 69 -2 94 14
125 80 23 48 33 57 59 52 31 -6 72 13 92 44 l21 33 -31 1 c-18 1 -43 -5 -57
-13z"/>
<path d="M3049 4491 c8 -5 11 -16 7 -26 -5 -14 -2 -16 14 -12 23 6 27 -12 8
-32 -11 -10 -7 -10 16 -1 24 9 31 8 38 -5 11 -19 32 -20 24 0 -6 17 2 19 23 6
17 -11 49 3 68 28 11 14 13 13 19 -7 6 -22 7 -22 26 -5 11 10 26 18 34 18 27
0 9 20 -21 22 -16 1 -50 7 -75 12 -57 13 -200 14 -181 2z"/>
<path d="M1721 3427 c-7 -13 -30 -31 -51 -41 -49 -21 -60 -46 -22 -46 23 0 28
-5 30 -27 1 -14 9 -34 18 -44 10 -11 12 -19 5 -24 -18 -11 -12 -25 10 -25 14
0 25 -12 37 -40 l17 -40 56 1 c31 1 62 -1 68 -5 6 -4 67 -8 136 -10 114 -3
128 -2 151 17 20 16 28 17 34 7 5 -7 6 -20 2 -28 -4 -12 0 -14 19 -8 13 4 37
11 54 15 17 4 31 14 33 25 3 15 -1 17 -25 12 -15 -3 -55 -2 -88 3 -36 5 -67 5
-78 -1 -13 -7 -25 -3 -48 16 -36 30 -83 41 -145 31 -26 -3 -50 -2 -57 3 -7 6
-28 14 -47 19 l-35 9 -1 75 c0 41 -6 86 -12 102 -14 33 -44 35 -61 4z"/>
<path d="M2913 3246 c-13 -6 -23 -16 -23 -23 0 -7 -7 -13 -15 -13 -8 0 -15 -9
-15 -19 0 -20 11 -24 105 -37 28 -4 61 -13 75 -21 14 -8 17 -12 8 -9 -10 3
-18 2 -18 -3 0 -5 -19 -12 -42 -16 l-43 -8 45 -14 c25 -8 52 -15 60 -15 8 -1
20 -5 27 -10 18 -14 32 -2 50 43 12 31 22 41 44 46 33 6 36 15 13 37 -8 9 -11
16 -5 16 5 0 13 -4 16 -10 8 -12 52 -13 59 -1 3 5 -19 12 -49 16 -43 5 -58 3
-71 -9 -8 -9 -17 -16 -19 -16 -13 0 -75 35 -75 42 0 4 -11 8 -24 8 -13 0 -29
7 -36 15 -11 13 -15 13 -21 3 -7 -10 -9 -10 -9 0 0 14 -6 14 -37 -2z"/>
<path d="M2811 3145 c-19 -11 -50 -36 -70 -55 -20 -19 -42 -34 -48 -35 -7 0
-23 -12 -36 -27 -22 -25 -26 -26 -67 -17 -52 12 -70 25 -70 51 0 11 -4 16 -11
12 -34 -21 40 -118 98 -129 27 -5 33 -9 24 -18 -14 -14 -14 -47 0 -47 35 0
156 34 166 47 10 13 15 13 27 4 9 -8 32 -10 68 -5 59 7 123 34 98 41 -43 12
-43 13 -25 33 17 19 17 19 -16 10 -19 -6 -46 -10 -61 -10 -36 0 -36 20 -3 64
l25 33 -32 34 -33 35 -34 -21z"/>
<path d="M1315 3132 c-6 -4 -16 -19 -24 -35 -13 -25 -13 -30 7 -55 13 -15 29
-42 37 -59 18 -38 22 -39 55 -12 17 14 21 22 13 26 -16 6 -17 56 -2 51 11 -4
34 -41 43 -70 10 -33 67 -23 107 18 l34 35 -27 -6 c-25 -6 -28 -5 -28 19 0 16
-7 29 -17 33 -10 4 -38 19 -62 35 -44 27 -112 38 -136 20z"/>
<path d="M4485 2940 c-81 -37 -167 -70 -184 -70 -11 0 -30 -19 -47 -45 -15
-25 -32 -45 -36 -45 -4 0 -8 -5 -8 -11 0 -6 7 -9 14 -6 11 4 13 1 9 -10 -10
-25 -121 -10 -151 21 -21 20 -23 27 -14 60 6 20 7 36 2 36 -23 0 -61 -22 -57
-33 2 -6 -2 -29 -9 -51 -8 -21 -14 -42 -14 -47 0 -14 34 -10 58 7 22 15 24 15
37 -2 18 -24 18 -29 0 -44 -8 -7 -15 -18 -15 -24 0 -6 6 -4 13 5 13 17 65 11
92 -11 8 -6 19 -9 24 -6 5 4 13 1 18 -6 4 -7 18 -19 30 -25 18 -10 24 -10 30
2 13 22 53 8 50 -19 -2 -16 4 -22 27 -24 21 -3 27 0 23 10 -4 11 11 15 72 16
103 2 184 11 202 24 11 7 11 11 1 15 -6 2 -9 9 -6 14 3 6 3 20 0 33 -7 29
-109 64 -132 45 -11 -9 -14 -8 -14 5 0 9 18 33 40 53 22 21 40 45 40 53 -1 13
-2 13 -13 0 -25 -32 -79 -63 -86 -51 -13 21 -58 -12 -66 -49 -1 -3 -5 -22 -10
-43 -9 -47 -27 -30 -18 18 7 38 36 77 112 150 34 32 61 62 61 67 0 13 -32 8
-75 -12z"/>
<path d="M1621 2814 c-13 -7 -26 -16 -30 -21 -3 -5 -22 -16 -41 -26 -37 -17
-90 -68 -90 -86 0 -13 10 -14 66 -12 31 2 43 -2 48 -15 6 -15 9 -15 31 6 13
12 21 28 19 35 -3 7 0 16 5 20 6 3 9 11 6 16 -4 5 5 14 20 21 19 9 24 16 19
32 -11 36 -26 45 -53 30z"/>
<path d="M3854 2649 c-22 -25 -10 -52 27 -57 31 -5 51 -22 45 -38 -5 -13 38
-37 87 -48 17 -4 27 -2 27 5 0 7 8 18 18 25 16 12 15 15 -13 44 -27 29 -34 31
-77 27 -47 -4 -48 -3 -60 29 -14 39 -27 42 -54 13z"/>
<path d="M3078 1154 c-13 -13 -9 -22 12 -29 20 -6 28 -35 10 -35 -5 0 -10 -7
-10 -15 0 -13 -15 -14 -90 -10 -74 4 -92 2 -97 -10 -3 -9 0 -22 6 -29 10 -11
8 -16 -8 -21 -12 -3 -21 -11 -21 -16 0 -5 -18 -9 -40 -9 -22 0 -40 5 -40 11 0
6 8 8 18 5 27 -9 41 6 39 43 -2 29 -7 36 -30 42 -50 13 -74 -3 -82 -56 -3 -26
-4 -49 -1 -53 3 -3 6 4 6 16 0 12 6 22 14 22 8 0 14 -10 14 -22 1 -73 5 -98
18 -109 8 -6 12 -15 9 -19 -3 -4 2 -10 10 -14 9 -3 15 -19 15 -41 0 -37 22
-50 34 -19 9 23 39 13 46 -16 5 -20 12 -25 41 -26 52 -1 55 -3 34 -17 -20 -13
-106 -15 -137 -3 -39 14 -48 15 -48 6 0 -5 -13 -7 -30 -4 -17 4 -30 2 -30 -3
0 -5 -12 -15 -26 -22 -22 -10 -28 -8 -44 11 -17 22 -17 24 -2 42 16 18 16 19
-1 13 -10 -4 -22 -7 -27 -7 -5 0 -11 -8 -13 -17 -4 -14 -5 -12 -6 5 -1 27 -21
30 -21 2 0 -11 -4 -20 -10 -20 -5 0 -10 4 -10 10 0 5 -19 19 -42 30 -49 24
-49 24 -46 8 2 -7 -8 -14 -22 -16 -14 -2 -33 -12 -43 -23 -10 -10 -22 -19 -27
-19 -6 0 -10 -9 -10 -20 0 -11 4 -20 9 -20 5 0 16 -6 24 -14 13 -13 17 -12 34
4 15 14 23 16 32 7 8 -8 11 -8 11 2 0 8 7 11 19 8 14 -3 18 -1 14 9 -3 8 0 14
6 14 6 0 11 7 11 15 0 8 4 15 9 15 5 0 7 -8 4 -19 -8 -31 67 -88 100 -75 7 2
22 -4 32 -14 11 -10 34 -26 52 -37 17 -10 34 -27 36 -37 5 -19 42 -25 52 -8 9
15 34 12 51 -5 14 -13 12 -15 -13 -16 -15 -1 -34 -1 -40 0 -7 1 -13 -7 -13
-19 0 -24 15 -26 37 -4 12 12 18 13 23 3 5 -6 15 -9 25 -6 9 4 14 11 11 16 -3
5 8 11 25 13 25 4 32 1 40 -19 13 -34 11 -43 -6 -43 -16 0 -16 0 -19 -47 -1
-18 -5 -35 -8 -39 -8 -8 -158 13 -203 28 -33 11 -179 34 -296 47 -41 5 -100
14 -130 20 -29 6 -97 18 -149 26 -52 9 -115 20 -140 25 -84 17 -160 22 -160
11 0 -6 9 -11 19 -11 11 0 22 -4 26 -9 3 -5 31 -15 63 -20 31 -6 71 -15 87
-21 17 -5 76 -14 132 -20 57 -6 130 -20 163 -31 33 -11 66 -17 71 -13 10 6 59
-5 113 -25 11 -4 41 -4 68 1 41 8 50 6 68 -12 11 -11 33 -20 50 -20 17 0 41
-6 53 -14 23 -14 125 -28 242 -32 39 -1 124 -14 190 -29 66 -15 147 -31 180
-36 116 -18 209 -28 216 -23 5 2 59 -1 121 -7 109 -11 170 -28 184 -50 3 -6
40 -10 88 -9 44 1 114 -5 154 -13 49 -10 85 -12 111 -6 22 5 74 4 127 -2 49
-6 121 -10 159 -10 74 2 155 -15 155 -32 0 -6 17 -7 48 -1 76 13 280 8 362 -9
80 -17 368 -26 430 -13 24 5 51 2 85 -10 41 -14 94 -18 300 -20 143 -1 280 2
321 9 60 9 79 8 115 -6 24 -8 73 -18 108 -21 36 -3 69 -10 75 -16 17 -17 132
-11 197 10 48 16 77 19 148 16 49 -3 91 -3 94 0 9 10 161 10 212 1 65 -11 144
-10 159 3 8 6 25 6 51 -1 47 -13 99 -8 190 21 56 17 83 20 135 14 36 -3 83 -8
105 -10 22 -1 62 -8 88 -14 27 -5 53 -8 58 -5 5 4 9 191 9 466 l0 459 -23 0
c-13 0 -38 7 -56 16 -44 22 -50 12 -9 -15 l33 -21 -155 -2 c-85 -1 -173 -1
-195 1 -22 1 -73 3 -112 4 -40 0 -73 5 -73 10 0 5 -6 7 -14 4 -8 -3 -16 -3
-19 -1 -11 11 -357 23 -350 12 2 -5 -1 -8 -7 -8 -7 0 -14 9 -17 20 -6 24 -11
25 -34 4 -17 -15 -22 -15 -66 0 -46 16 -48 16 -63 -4 -14 -19 -19 -20 -125 -9
-119 13 -121 13 -210 4 -33 -4 -102 -7 -152 -7 -73 0 -93 -3 -93 -14 0 -18
-62 -19 -127 -3 -36 10 -47 9 -53 -1 -11 -18 -96 -7 -147 18 -41 20 -112 22
-170 4 -21 -7 -45 -7 -70 0 -21 5 -45 9 -53 8 -83 -7 -360 -8 -380 0 -31 12
-185 21 -195 12 -15 -15 -172 -29 -240 -21 -38 5 -149 13 -245 19 -96 5 -206
15 -245 22 -38 6 -144 12 -235 13 -91 0 -172 4 -180 8 -9 4 -60 12 -115 17
-125 11 -286 40 -280 50 3 5 -28 11 -68 15 -39 4 -77 11 -83 16 -6 5 -49 8
-95 7 -46 0 -109 2 -139 6 -30 5 -58 5 -62 0z"/>
</g>
</svg>
