<?xml version="1.0" standalone="no"?>
<!DOCTYPE svg PUBLIC "-//W3C//DTD SVG 20010904//EN"
 "http://www.w3.org/TR/2001/REC-SVG-20010904/DTD/svg10.dtd">
<svg version="1.0" xmlns="http://www.w3.org/2000/svg"
 width="564.000000pt" height="376.000000pt" viewBox="0 0 564.000000 376.000000"
 preserveAspectRatio="xMidYMid meet">
<metadata>
Created by potrace 1.16, written by Peter Selinger 2001-2019
</metadata>
<g transform="translate(0.000000,376.000000) scale(0.100000,-0.100000)"
fill="#000000" stroke="none">
<path d="M220 3734 c-8 -14 -43 -52 -77 -84 -38 -35 -77 -83 -94 -117 -17 -32
-35 -62 -40 -67 -8 -9 -13 -526 -5 -526 15 0 79 34 116 62 55 40 112 72 163
88 59 19 197 106 197 125 0 19 44 65 62 65 11 0 42 13 69 30 27 16 51 25 54
20 3 -6 2 -10 -3 -10 -5 0 -7 -11 -4 -25 7 -41 38 -28 34 14 -3 24 2 39 18 53
13 13 19 26 15 39 -4 13 -2 19 9 19 8 0 21 6 28 13 7 7 28 23 46 36 36 25 41
55 12 73 -29 18 -27 85 3 118 36 40 67 82 67 91 0 5 -148 9 -328 9 l-329 0
-13 -26z"/>
<path d="M2680 3741 c0 -14 10 -21 37 -26 41 -7 89 -30 111 -51 39 -40 78 -39
88 3 5 17 0 31 -15 47 -11 12 -21 28 -21 34 0 8 -30 12 -100 12 -91 0 -100 -2
-100 -19z"/>
<path d="M2916 3746 c3 -8 16 -22 29 -30 13 -9 30 -28 37 -43 9 -18 21 -27 33
-26 100 9 138 31 147 86 l5 27 -128 0 c-108 0 -127 -2 -123 -14z"/>
<path d="M3274 3703 c-21 -32 -50 -62 -64 -69 -86 -39 -85 -38 -86 -79 -1 -46
2 -46 -104 -15 -41 12 -91 34 -110 49 -26 20 -40 26 -55 20 -34 -13 -125 -10
-155 6 -16 9 -33 27 -36 40 -5 22 -12 25 -49 25 -47 0 -103 -24 -112 -48 -4
-8 -1 -55 6 -104 19 -143 -6 -161 -103 -73 l-59 53 12 61 c10 53 10 64 -5 86
-9 14 -24 25 -33 23 -13 -3 -16 -19 -16 -94 0 -105 -10 -128 -53 -114 -15 5
-44 11 -64 15 -46 7 -89 58 -119 141 -28 73 -38 85 -68 77 -22 -5 -23 -9 -17
-55 6 -43 4 -51 -18 -73 -14 -14 -30 -25 -36 -25 -5 0 -10 -17 -10 -39 0 -40
-30 -91 -54 -91 -21 0 -46 35 -53 73 -3 24 -13 38 -29 46 -28 12 -32 47 -9 77
8 10 15 24 15 31 0 23 -43 53 -76 53 -20 0 -44 10 -62 25 -17 14 -37 25 -46
25 -23 0 -76 -28 -76 -40 0 -5 -12 -17 -26 -27 -24 -16 -27 -16 -36 0 -10 18
-63 24 -73 8 -3 -6 10 -22 29 -38 31 -24 34 -29 21 -43 -8 -9 -14 -29 -14 -46
0 -130 -4 -144 -51 -144 -15 0 -35 9 -45 20 -23 26 -39 25 -64 -1 l-20 -22 40
-38 c23 -22 49 -39 58 -39 10 0 25 -8 33 -17 33 -40 -13 -93 -92 -108 -30 -5
-40 -2 -64 20 -25 23 -28 31 -22 66 3 22 3 51 0 64 -5 21 -12 25 -45 25 -28 0
-39 -4 -39 -15 0 -8 4 -15 10 -15 11 0 40 -93 40 -130 0 -14 6 -35 14 -45 13
-18 17 -18 57 -5 34 12 43 12 47 2 2 -8 15 -17 28 -22 16 -7 24 -17 24 -34 0
-29 -17 -44 -58 -52 -18 -4 -32 -10 -32 -14 0 -4 25 -15 55 -25 53 -16 56 -16
87 3 45 28 117 52 156 52 18 0 49 7 69 15 20 9 66 15 109 15 58 0 85 6 131 26
61 28 204 46 288 36 55 -6 148 14 176 39 14 12 29 17 38 13 36 -16 74 -15 123
1 28 9 62 14 75 10 28 -7 77 17 98 48 14 22 11 67 -6 67 -5 0 -18 9 -29 20
-16 16 -18 24 -9 47 13 35 25 43 71 43 64 0 65 -1 63 -101 -3 -115 9 -134 83
-131 27 1 66 9 87 18 29 12 55 14 110 9 71 -7 72 -7 161 40 87 46 143 67 215
79 20 4 54 20 74 36 23 18 50 30 67 30 17 0 53 12 82 27 44 23 62 27 131 26
70 -2 86 2 145 30 36 18 67 37 69 42 5 13 75 79 132 126 24 20 62 40 84 45 27
6 -95 10 -365 12 -266 1 -406 -1 -408 -8 -5 -13 -32 -13 -32 0 0 6 -15 10 -33
10 -29 0 -38 -7 -73 -57z"/>
<path d="M4752 3719 c-10 -38 -9 -41 14 -49 24 -9 24 -11 9 -39 -8 -16 -25
-32 -37 -36 -74 -19 -101 -31 -124 -51 -24 -23 -54 -23 -54 -1 0 6 -8 4 -17
-6 -14 -14 -15 -19 -4 -29 11 -10 14 -10 18 0 11 30 20 8 11 -25 -14 -53 -23
-60 -79 -68 -42 -6 -49 -10 -49 -29 0 -12 -10 -32 -22 -43 -33 -30 -166 -99
-218 -114 -25 -7 -49 -16 -54 -21 -6 -4 -22 -8 -38 -8 -23 0 -82 -39 -108 -71
-10 -13 -86 -47 -120 -54 -19 -4 -52 -18 -72 -31 -21 -13 -42 -24 -48 -24 -5
0 -10 -4 -10 -10 0 -5 7 -10 16 -10 35 0 2 -16 -38 -19 -23 -1 -50 -9 -58 -16
-9 -8 -34 -21 -56 -29 -37 -13 -39 -15 -36 -51 l3 -38 -58 7 c-32 4 -62 11
-67 16 -15 15 -112 12 -124 -3 -6 -6 -13 -24 -17 -40 -4 -15 -26 -42 -49 -59
-22 -18 -47 -38 -54 -45 -7 -7 -25 -16 -40 -20 -15 -3 -32 -13 -37 -20 -6 -8
-31 -17 -55 -20 -25 -3 -49 -9 -55 -13 -5 -4 -35 -13 -65 -20 -30 -7 -63 -17
-73 -22 -9 -5 -46 -10 -82 -12 -56 -3 -67 -1 -75 15 -8 13 -5 26 10 51 11 18
20 39 20 46 0 19 -45 14 -65 -8 -25 -28 -64 -25 -97 7 -24 23 -30 25 -38 13
-6 -8 -7 -34 -4 -58 6 -41 5 -42 -30 -57 -19 -8 -49 -15 -65 -15 -16 0 -42 -5
-58 -11 -28 -10 -101 -19 -198 -22 -61 -2 -105 -32 -105 -70 0 -41 -25 -58
-73 -51 -47 7 -77 29 -77 54 0 11 -10 19 -28 22 -15 3 -34 8 -43 12 -9 4 -25
-2 -39 -14 -13 -11 -26 -20 -30 -20 -15 0 -30 26 -30 52 0 34 -18 36 -51 7
-13 -11 -29 -24 -35 -27 -20 -12 -74 -121 -74 -150 0 -16 7 -37 15 -48 8 -10
15 -29 15 -41 0 -18 -6 -23 -25 -23 -14 0 -25 -5 -25 -10 0 -6 -8 -5 -20 2
-11 7 -20 21 -20 32 0 15 -5 17 -27 11 -16 -4 -45 -7 -66 -7 -21 0 -36 -2 -34
-5 13 -12 -30 -43 -58 -42 -29 0 -29 1 -10 14 56 39 58 42 60 86 2 24 8 60 14
79 6 19 11 36 11 36 0 1 -16 5 -36 8 -49 10 -78 -12 -98 -72 -10 -30 -25 -53
-39 -60 -40 -20 -141 -50 -194 -57 l-53 -7 0 32 c0 52 -16 70 -60 70 -42 0
-54 17 -37 57 6 14 6 32 -1 53 -6 17 -9 37 -6 44 8 20 -12 28 -26 11 -18 -21
-47 -19 -60 6 -7 13 -19 19 -33 17 -18 -2 -23 -11 -25 -41 -2 -21 1 -44 7 -50
6 -8 5 -18 -5 -31 -25 -35 -17 -64 36 -116 28 -28 56 -50 64 -50 7 0 21 -9 31
-21 19 -19 19 -21 0 -55 -23 -43 -62 -72 -107 -81 -18 -3 -53 -15 -78 -26 -52
-23 -183 -35 -305 -28 -27 2 -95 0 -150 -4 l-100 -8 -88 45 -87 45 0 -846 c1
-688 3 -849 14 -863 7 -10 16 -18 19 -18 12 0 65 -47 92 -82 23 -28 25 -38 14
-57 -25 -39 36 -92 69 -59 13 13 42 -5 42 -27 0 -7 7 -15 15 -19 9 -3 12 -12
8 -22 -5 -14 -1 -16 26 -12 26 4 36 -1 55 -23 17 -20 29 -26 48 -22 21 4 27 0
32 -22 4 -17 17 -30 36 -37 17 -5 30 -14 30 -19 0 -6 444 -9 1110 -9 1093 1
1110 1 1120 20 13 23 45 26 54 5 4 -11 11 -13 30 -5 17 6 36 6 56 -2 25 -8 34
-7 48 5 19 18 49 7 37 -13 -5 -9 52 -11 246 -8 207 2 260 6 284 19 17 8 73 21
125 28 52 7 102 17 110 23 11 7 8 8 -12 5 -17 -3 -29 1 -32 10 -3 8 -2 11 3 8
6 -3 14 2 19 12 9 14 13 15 26 4 17 -14 18 -14 151 21 22 5 47 13 55 18 9 4
36 11 60 15 25 4 51 12 57 17 7 6 19 8 27 5 7 -3 22 0 32 7 11 7 41 16 67 18
26 3 56 13 66 22 10 9 24 16 33 16 18 0 75 28 83 41 4 5 31 9 61 9 30 0 71 7
92 16 49 20 119 36 159 35 18 -1 55 8 83 19 42 17 50 17 50 5 0 -17 12 -19 26
-5 9 9 57 22 139 37 17 3 38 12 47 20 9 8 21 12 27 9 6 -4 18 -2 28 3 56 30
105 51 119 51 8 0 40 9 71 20 31 11 78 23 105 26 26 4 48 11 48 16 0 6 7 7 16
4 9 -4 13 -2 8 5 -4 8 3 9 25 4 26 -5 36 -3 50 14 10 12 30 21 44 21 13 0 27
6 30 14 3 9 15 12 31 9 l26 -5 0 480 c0 448 -1 482 -17 491 -17 10 -17 10 0
11 22 0 23 42 2 60 -8 7 -15 16 -15 21 0 5 7 9 15 9 27 0 18 63 -16 109 -28
39 -34 81 -9 66 6 -3 17 0 25 9 12 11 15 44 15 155 0 123 -2 141 -16 141 -15
0 -15 2 0 25 14 21 16 72 16 410 0 378 0 385 -20 385 -11 0 -20 4 -20 9 0 6
-10 9 -22 9 -57 -3 -78 2 -78 20 0 37 37 62 90 62 l50 0 0 335 0 336 -439 -2
-439 -1 -10 -39z m715 -611 c6 -7 11 -28 11 -46 1 -31 -2 -33 -22 -28 -33 8
-49 -14 -40 -58 5 -29 3 -36 -10 -36 -9 0 -16 -7 -16 -15 0 -8 8 -15 19 -15
10 0 24 -7 32 -16 10 -13 10 -17 -2 -25 -20 -12 -23 -12 -66 13 -62 36 -103
69 -103 84 0 8 -9 14 -20 14 -23 0 -24 -4 -10 -30 7 -13 7 -21 0 -25 -6 -4 -8
-11 -5 -16 3 -5 -3 -19 -14 -31 -12 -12 -21 -27 -21 -33 0 -6 -23 -17 -50 -24
-33 -9 -56 -21 -67 -37 -14 -23 -14 -26 2 -44 10 -11 28 -20 41 -20 13 0 26
-5 29 -10 4 -6 21 -8 39 -5 28 6 35 3 50 -19 14 -22 24 -26 64 -26 50 0 72 12
72 41 0 27 40 49 87 49 24 0 43 3 43 6 0 15 -22 44 -31 39 -5 -4 -9 -1 -9 4 0
17 40 13 46 -4 4 -8 13 -15 21 -15 13 0 13 -3 3 -15 -9 -10 -9 -19 -2 -27 6
-7 8 -24 5 -38 -4 -19 -21 -33 -72 -58 -37 -18 -85 -35 -105 -39 -57 -9 -65
-36 -27 -90 30 -42 43 -91 20 -77 -8 5 -8 1 0 -14 9 -17 5 -22 -37 -39 -31
-12 -64 -18 -97 -16 -27 2 -66 5 -85 6 -27 1 -35 6 -34 20 2 16 -44 49 -63 46
-22 -4 -32 4 -47 36 -9 19 -22 35 -29 35 -44 -1 -103 -113 -73 -136 21 -15 46
-92 46 -141 0 -24 4 -43 9 -43 19 0 0 -84 -30 -136 -33 -58 -51 -66 -99 -41
-18 10 -35 11 -60 4 -22 -6 -35 -6 -38 1 -4 14 -40 3 -87 -26 -28 -18 -55 -26
-90 -26 -49 -1 -110 -29 -100 -46 3 -4 -2 -13 -10 -20 -8 -7 -15 -19 -15 -26
0 -18 -42 -84 -66 -105 -36 -31 -62 -29 -117 7 -56 37 -67 40 -67 22 0 -6 -10
-2 -21 11 -14 15 -29 21 -41 17 -12 -2 -27 2 -35 10 -15 15 -43 18 -81 8 -18
-5 -21 -11 -16 -28 4 -11 3 -18 -1 -14 -13 13 -38 -31 -26 -45 5 -7 8 -28 5
-47 -5 -28 -3 -33 7 -22 31 30 39 3 10 -34 -17 -22 -20 -22 -26 -6 -5 11 -9
13 -12 5 -6 -17 -76 -17 -70 0 2 6 9 12 16 12 13 0 31 23 31 41 0 19 -67 33
-108 22 -27 -8 -50 -7 -84 2 -42 10 -50 10 -65 -5 -16 -16 -17 -16 -24 1 -4
14 1 24 20 36 14 10 32 18 39 18 6 0 21 9 32 20 16 16 18 24 9 47 -13 35 -55
80 -92 100 -16 8 -26 20 -24 27 8 20 -82 63 -137 65 -26 1 -58 8 -70 16 -25
16 -146 48 -154 41 -2 -3 1 -7 9 -10 42 -13 49 -16 49 -25 0 -15 -73 -56 -95
-52 -16 2 -17 1 -6 -13 7 -9 12 -16 10 -17 -2 0 -23 -2 -47 -4 -64 -5 -64 -15
-1 -16 39 0 49 -3 34 -9 -11 -5 -14 -9 -7 -9 6 -1 12 -8 12 -16 0 -8 5 -15 11
-15 6 0 9 7 5 15 -4 10 1 15 16 15 17 0 18 -2 8 -15 -11 -13 -10 -14 3 -10 22
9 28 -7 11 -30 -8 -10 -14 -14 -14 -8 0 6 -8 9 -19 6 -13 -3 -17 -11 -14 -24
4 -15 0 -19 -21 -19 -14 0 -26 -4 -26 -8 0 -18 13 -20 35 -6 33 21 49 -1 37
-53 -5 -22 -5 -49 0 -63 6 -16 5 -26 -4 -32 -11 -8 -11 -11 0 -15 10 -4 10 -8
0 -20 -10 -13 -8 -19 11 -35 14 -10 31 -16 40 -13 13 5 14 4 4 -6 -7 -7 -13
-21 -13 -31 0 -19 -35 -42 -53 -34 -7 2 -4 5 6 5 18 1 24 35 7 46 -6 4 -8 11
-5 16 9 13 -9 11 -23 -3 -9 -9 -12 -8 -12 5 0 10 -5 14 -15 11 -8 -4 -15 -4
-15 -2 0 15 25 74 34 80 10 7 18 86 9 101 -2 4 -11 0 -19 -8 -19 -19 -44 -20
-44 -2 0 19 -60 20 -61 1 -3 -27 -4 -32 -11 -39 -10 -10 -21 40 -16 74 5 32
-29 87 -39 64 -6 -15 -39 -17 -48 -3 -3 6 -3 20 0 31 6 16 13 20 36 17 27 -4
29 -2 29 26 l-1 31 -14 -25 c-13 -22 -20 -20 -16 4 1 5 -4 13 -11 18 -10 6 -7
10 10 14 15 4 21 12 18 21 -3 8 -6 19 -6 24 0 5 -12 7 -27 3 -18 -4 -24 -2
-15 3 7 6 10 17 6 26 -4 11 4 31 22 55 45 60 61 72 98 72 43 0 56 -17 21 -26
-20 -5 -23 -9 -14 -20 9 -11 8 -15 -5 -20 -19 -7 -21 -30 -3 -36 6 -2 28 -2
47 2 29 4 35 9 34 28 -1 13 3 21 10 19 6 -2 30 9 54 25 47 32 59 72 21 75 -20
2 -29 -3 -64 -35 -11 -10 -15 -9 -19 6 -3 10 -20 23 -38 30 -38 14 -49 9 -18
-8 17 -9 19 -14 10 -20 -13 -8 -42 15 -53 43 -3 9 -11 17 -17 17 -21 0 -9 18
16 24 14 4 38 18 52 31 33 31 83 41 130 27 59 -18 61 -5 8 48 -11 11 -28 20
-38 20 -10 0 -18 5 -18 10 0 7 -26 8 -72 4 -70 -7 -75 -9 -115 -50 -22 -24
-48 -44 -55 -44 -8 0 -29 -7 -45 -15 -27 -14 -34 -13 -68 0 -20 9 -42 14 -48
12 -7 -2 -24 6 -39 19 -15 12 -33 24 -39 26 -22 7 1 27 39 33 20 3 51 12 67
19 36 16 106 37 195 61 36 9 81 21 101 27 20 6 46 7 57 3 13 -4 30 0 44 9 12
9 31 16 43 16 11 0 42 9 70 19 69 26 137 41 188 41 23 0 69 11 102 25 33 13
74 25 90 25 17 0 50 9 74 20 24 11 59 20 78 20 19 0 46 6 61 14 15 7 57 19 94
25 36 6 84 17 105 25 40 14 140 74 165 100 19 18 113 66 132 66 7 0 27 7 42
15 39 20 66 19 114 -6 34 -18 50 -20 97 -14 31 4 62 9 70 12 17 7 18 -28 1
-45 -9 -9 -6 -12 15 -12 15 0 27 5 27 11 0 6 14 9 33 7 24 -2 31 -7 29 -20 -2
-12 4 -18 16 -18 11 0 25 -7 32 -15 25 -30 115 -12 151 31 11 13 11 18 2 21
-7 3 -13 11 -13 19 0 8 6 11 15 8 10 -4 15 0 15 15 0 16 9 25 30 33 20 6 30
16 29 27 -2 9 10 37 27 64 29 47 59 61 70 33 7 -18 135 -9 147 10 10 17 61 18
74 2z m-2522 -832 c22 -13 39 -28 38 -34 -2 -6 4 -9 12 -6 8 4 15 1 15 -5 0
-6 -7 -11 -15 -11 -8 0 -16 -3 -16 -7 -4 -25 -9 -71 -9 -90 0 -14 -6 -23 -15
-23 -8 0 -18 -12 -21 -27 -7 -28 -20 -42 -62 -64 -18 -10 -24 -10 -35 2 -20
24 -81 41 -108 30 -19 -8 -20 -10 -5 -10 12 -1 16 -6 12 -16 -3 -9 0 -15 9
-15 8 0 15 -7 15 -15 0 -8 -9 -15 -20 -15 -14 0 -18 -5 -13 -17 5 -12 3 -14
-8 -8 -8 4 -4 -2 9 -14 22 -22 28 -42 15 -54 -3 -4 -12 2 -20 13 -8 11 -25 19
-41 19 -62 1 -71 3 -76 17 -9 24 4 42 44 58 33 13 41 22 51 58 7 24 12 52 13
63 1 28 45 79 84 99 18 9 32 20 32 25 0 5 7 25 15 45 18 42 27 42 100 2z
m-515 -65 c0 -11 8 -21 18 -23 15 -3 14 -6 -5 -16 -21 -11 -23 -10 -23 8 0 12
-4 18 -10 15 -16 -10 -12 -85 4 -85 8 0 16 -4 18 -9 2 -5 14 -11 28 -13 14 -1
28 -7 32 -12 4 -6 13 -5 22 3 8 7 20 10 27 6 6 -4 15 -1 20 6 4 7 11 10 15 6
8 -7 -33 -47 -48 -47 -5 0 -6 -4 -3 -10 8 -12 -12 -50 -26 -50 -6 0 -18 -9
-28 -21 -15 -18 -18 -19 -29 -6 -15 18 0 64 24 74 12 4 13 8 3 14 -7 4 -19 4
-25 -2 -7 -6 -21 -6 -38 1 -16 6 -35 6 -50 0 -13 -5 -27 -6 -31 -2 -4 4 -6 0
-3 -8 5 -15 -26 -49 -46 -51 -6 -1 -22 -4 -36 -7 -14 -3 -77 -6 -140 -7 -116
-1 -141 -6 -172 -33 -13 -11 -15 -19 -7 -33 6 -13 6 -25 -3 -38 -7 -11 -9 -24
-5 -28 5 -4 12 -1 17 7 7 10 10 11 10 2 0 -6 5 -11 12 -10 18 4 37 22 31 31
-2 4 0 7 5 7 5 0 12 14 16 30 9 46 24 35 20 -15 -1 -25 1 -43 6 -40 4 2 10 -7
13 -20 2 -14 0 -28 -4 -31 -5 -3 -9 4 -9 15 0 12 -4 21 -10 21 -5 0 -10 -7
-10 -15 0 -8 -7 -15 -15 -15 -8 0 -15 5 -15 11 0 6 -6 9 -14 6 -7 -3 -19 0
-26 6 -10 10 -12 7 -7 -11 3 -13 3 -21 0 -18 -3 3 -12 -1 -20 -9 -9 -9 -24
-13 -39 -9 -15 4 -24 2 -24 -6 0 -18 -39 -48 -105 -80 -68 -32 -107 -67 -139
-125 -28 -51 -70 -69 -95 -40 -9 12 -26 21 -38 22 -27 2 -38 -27 -31 -83 4
-30 1 -35 -14 -31 -16 5 -70 -10 -94 -26 -20 -12 -137 -46 -145 -41 -4 2 -14
-2 -21 -10 -8 -8 -23 -16 -34 -18 -11 -3 -1 -8 26 -12 30 -5 61 -2 94 8 32 10
56 12 72 6 30 -12 170 -17 180 -8 4 4 2 14 -4 21 -7 8 -8 17 -4 21 4 5 -2 6
-14 4 -11 -1 -20 2 -20 7 1 6 7 9 14 9 10 -2 9 2 -2 15 -14 16 -12 17 24 16
l39 0 -4 -42 c-4 -50 -2 -51 117 -60 157 -11 261 -9 266 5 2 6 14 12 27 12 37
0 48 23 24 51 -13 15 -19 34 -17 50 3 22 1 25 -15 21 -17 -4 -19 -1 -15 26 2
17 1 29 -4 26 -4 -3 -8 17 -8 45 0 49 12 72 25 50 4 -6 2 -16 -4 -22 -6 -6
-11 -15 -11 -20 0 -10 21 12 36 38 6 11 15 20 20 20 5 1 25 11 44 23 19 12 43
22 53 22 9 0 25 9 34 20 10 11 23 20 30 20 7 0 13 4 13 9 0 4 -12 7 -27 5
l-28 -4 30 15 c17 8 45 17 63 21 26 5 30 9 21 20 -8 10 -5 15 15 20 16 4 26
13 26 24 0 10 5 20 11 22 8 3 7 13 -4 35 -15 29 -15 32 2 52 23 26 31 27 31 2
0 -11 5 -23 12 -27 8 -5 9 0 6 14 -4 12 -2 24 2 27 16 10 21 -16 10 -50 -10
-29 -9 -38 4 -51 18 -17 21 -28 6 -19 -5 3 -10 2 -10 -4 0 -5 3 -11 8 -13 4
-2 20 -18 37 -36 25 -28 27 -34 15 -42 -13 -9 -13 -11 -1 -19 12 -8 8 -11 -15
-16 -55 -12 -56 -13 -44 -34 23 -44 4 -65 -49 -55 -27 6 -29 8 -20 32 6 15 16
30 22 34 8 5 4 8 -10 8 -31 0 -37 17 -14 36 16 14 17 20 8 35 -13 21 -27 25
-27 9 0 -6 -9 -20 -20 -32 -19 -20 -20 -21 -20 -3 0 15 -2 17 -12 6 -11 -10
-9 -15 5 -25 11 -9 22 -41 31 -92 8 -44 17 -88 21 -99 5 -15 4 -16 -3 -6 -11
16 -32 7 -32 -15 0 -8 2 -14 4 -14 2 0 12 -3 22 -7 13 -5 15 -3 9 7 -5 9 -4
11 3 6 16 -10 15 -26 -1 -26 -8 0 -28 -7 -45 -16 -18 -8 -41 -13 -52 -9 -14 4
-20 2 -20 -8 0 -9 -6 -17 -12 -20 -10 -3 -10 -9 1 -30 7 -14 11 -33 8 -41 -5
-12 0 -16 16 -17 57 -2 127 -24 127 -41 0 -6 -7 -4 -17 3 -11 10 -17 10 -20 3
-2 -7 -24 -10 -56 -7 l-52 3 45 -15 c25 -8 72 -17 105 -20 33 -3 83 -13 110
-22 51 -17 106 -18 116 -2 6 10 87 35 134 42 17 2 1 4 -35 5 -36 0 -93 -6
-128 -14 -57 -13 -65 -13 -103 4 l-41 19 43 6 c24 3 51 1 61 -4 11 -6 18 -6
18 -1 0 9 37 25 53 23 17 -3 46 20 41 33 -4 9 2 13 20 11 20 -3 26 1 26 15 0
27 17 34 25 10 7 -22 13 -24 33 -12 9 6 6 14 -13 30 -24 21 -36 50 -16 37 5
-3 12 -1 16 4 3 6 12 8 20 4 10 -3 13 -1 10 9 -7 17 41 43 50 28 4 -6 19 -10
36 -10 16 0 29 -4 29 -9 0 -8 -32 -24 -52 -26 -3 0 -10 -4 -15 -9 -5 -5 -3 -6
5 -2 17 10 15 -12 -3 -30 -16 -16 -20 -35 -7 -33 19 3 33 -2 27 -11 -3 -5 3
-10 14 -10 11 0 22 -4 25 -9 3 -5 36 -12 73 -16 65 -7 67 -8 39 -20 l-29 -12
29 -6 c32 -6 94 2 109 14 6 4 20 8 30 8 47 1 83 10 123 31 23 12 42 24 42 27
0 2 -4 1 -10 -2 -5 -3 -10 -1 -10 5 0 6 8 13 18 17 9 3 33 13 52 21 19 8 38
14 43 14 4 -1 7 7 7 17 0 11 5 23 10 26 6 4 10 -7 10 -24 0 -17 -3 -30 -7 -30
-29 5 -35 -2 -15 -17 18 -12 37 -14 85 -9 34 3 64 10 65 15 2 6 8 10 13 10 6
0 7 -5 4 -10 -7 -12 62 -4 110 12 31 10 63 15 127 21 35 3 67 17 40 17 -7 0
-12 6 -12 14 0 8 -11 13 -30 12 -31 -1 -40 -11 -17 -19 6 -2 -5 -5 -26 -5 -20
0 -40 4 -43 10 -12 19 16 31 74 34 36 1 86 13 132 32 41 16 107 40 147 53 39
13 70 26 68 29 -2 3 46 6 106 7 60 2 117 7 127 12 43 23 232 48 232 30 0 -4
-6 -10 -12 -13 -7 -3 -1 -4 15 -1 59 11 83 18 97 30 8 6 53 26 100 44 153 59
159 62 165 92 4 18 0 37 -10 53 -12 18 -15 35 -10 53 8 36 43 73 61 66 22 -8
16 -33 -8 -34 l-23 -2 23 -4 c23 -5 32 -38 11 -45 -6 -2 14 -3 44 -2 67 2 77
7 71 40 -4 20 -1 25 13 23 23 -3 83 32 83 49 0 6 -4 12 -10 12 -5 0 -14 9 -21
21 -10 19 -9 20 13 14 12 -4 20 -4 16 0 -11 12 11 47 25 38 8 -4 7 -1 -1 10
-8 9 -11 20 -8 26 3 5 1 11 -6 13 -7 3 -9 12 -5 22 4 9 11 14 17 11 5 -3 10 3
10 15 0 29 24 20 28 -10 3 -17 6 -20 12 -10 6 10 13 3 23 -23 11 -24 24 -38
42 -43 16 -4 24 -12 21 -20 -6 -15 33 -25 84 -20 32 3 35 6 45 53 6 27 9 55 7
61 -6 19 36 14 46 -5 10 -22 1 -88 -13 -88 -13 -1 -53 -24 -41 -25 5 0 3 -7
-4 -15 -7 -9 -10 -18 -6 -22 3 -3 -10 -17 -29 -30 -19 -13 -35 -31 -35 -41 0
-9 -11 -41 -25 -69 -19 -43 -29 -53 -48 -53 -14 0 -30 7 -37 15 -16 20 -49 19
-57 -1 -5 -13 -8 -13 -15 -2 -7 9 -8 8 -4 -5 19 -59 18 -67 -5 -76 l-24 -10
26 0 c29 -1 47 -37 29 -55 -6 -6 -10 -23 -10 -38 0 -29 6 -32 61 -28 24 1 27
-3 32 -42 3 -23 3 -45 -1 -48 -4 -3 -8 -16 -10 -30 -2 -19 -1 -22 7 -10 12 17
16 14 25 -23 l7 -28 -43 6 c-35 5 -47 3 -65 -14 -26 -25 -43 -27 -43 -6 0 8 7
15 15 15 8 0 15 4 15 9 0 17 -19 22 -41 11 -16 -9 -24 -9 -33 0 -8 9 -8 14 1
17 8 3 10 18 7 46 -7 60 -13 72 -25 60 -7 -7 -7 -24 2 -54 10 -33 11 -43 1
-47 -7 -2 -19 -11 -27 -19 -9 -8 -22 -12 -30 -9 -10 4 -15 -1 -15 -14 0 -11 5
-20 10 -20 18 0 10 -35 -11 -49 -17 -10 -19 -15 -8 -21 7 -5 11 -12 7 -15 -11
-11 -48 5 -48 20 0 24 -21 28 -27 6 -5 -22 -23 -29 -23 -10 0 5 -5 7 -11 3 -6
-3 -9 -17 -6 -30 2 -14 1 -27 -3 -29 -4 -2 -5 -16 -3 -30 4 -16 0 -27 -10 -31
-9 -3 -25 -21 -36 -40 -11 -19 -27 -34 -36 -34 -22 0 -19 18 5 25 11 3 20 10
20 15 0 6 -11 5 -26 0 -30 -12 -54 -13 -53 -2 4 22 -3 31 -18 25 -10 -4 -14
-2 -10 4 4 6 3 22 -2 35 -7 15 -10 17 -10 7 -1 -13 -24 -31 -38 -30 -1 0 -16
-12 -32 -27 -19 -16 -27 -29 -20 -33 18 -11 1 -29 -27 -29 -13 0 -32 -4 -42
-9 -82 -44 -113 -47 -132 -10 -14 25 -27 24 -35 -2 -6 -17 -13 -20 -36 -15
-29 5 -29 5 -28 -38 3 -54 -5 -66 -40 -66 -37 0 -53 -17 -40 -42 6 -11 9 -20
7 -21 -2 -1 -13 -8 -26 -15 -13 -7 -27 -10 -32 -7 -6 3 -21 -6 -35 -21 -16
-18 -31 -25 -45 -21 -11 3 -23 1 -26 -4 -3 -5 -21 -7 -39 -3 -29 5 -38 2 -58
-22 -23 -26 -26 -27 -68 -16 -24 6 -45 7 -47 3 -2 -5 -12 -7 -23 -4 -14 4 -18
11 -14 24 5 15 2 18 -12 13 -11 -4 -14 -2 -7 3 6 4 13 16 17 25 5 14 14 16 46
12 28 -4 47 -1 65 11 22 15 26 15 26 2 0 -24 26 -40 47 -28 10 6 14 11 8 11
-5 0 11 10 35 23 24 12 46 29 48 37 3 13 2 13 -7 0 -9 -13 -12 -12 -24 4 -14
19 -16 19 -41 3 -22 -15 -26 -15 -26 -2 0 8 7 15 15 15 8 0 15 6 15 14 0 17
-32 15 -38 -2 -2 -7 -9 -9 -15 -5 -26 16 -37 11 -31 -13 5 -19 2 -24 -13 -24
-11 0 -28 7 -39 15 -20 15 -54 20 -54 8 0 -5 -12 -9 -27 -10 -32 -1 -60 -32
-40 -45 8 -5 7 -8 -5 -8 -10 0 -18 5 -18 10 0 18 -30 11 -30 -7 -1 -24 -34
-63 -54 -63 -20 0 -50 -64 -43 -92 6 -21 2 -23 -38 -26 -39 -2 -45 0 -45 17 0
23 -21 20 -52 -7 -22 -19 -23 -32 -3 -32 26 0 16 -19 -19 -35 -32 -15 -62 -13
-52 3 2 4 -9 8 -26 9 -25 2 -29 -1 -25 -17 3 -13 -3 -24 -19 -35 -21 -14 -28
-13 -26 5 0 3 -9 7 -20 7 -20 2 -22 -16 -4 -57 10 -24 -25 -39 -79 -33 -48 6
-48 6 -25 23 13 10 32 15 44 12 16 -3 18 -2 10 7 -8 9 -23 9 -57 1 -26 -5 -52
-9 -59 -8 -7 2 -13 -7 -14 -19 -1 -15 3 -20 14 -15 12 4 11 0 -4 -21 -10 -14
-21 -27 -24 -27 -3 0 -10 17 -17 37 -8 28 -9 41 0 51 8 10 7 16 -4 23 -18 11
-32 12 -25 0 3 -5 0 -14 -8 -20 -8 -7 -12 -20 -9 -29 5 -22 -66 -77 -80 -63
-18 18 -16 65 4 92 10 15 19 34 19 43 0 11 9 16 26 16 21 0 25 -4 21 -19 -4
-17 -2 -18 19 -9 35 16 24 32 -24 39 -23 3 -50 14 -62 24 -11 10 -20 13 -20 7
0 -7 -5 -12 -11 -12 -6 0 -24 -10 -41 -21 -25 -18 -32 -19 -39 -8 -6 10 -9 11
-9 1 0 -8 -10 -11 -29 -7 -18 3 -33 0 -41 -10 -9 -10 -9 -15 -1 -15 16 0 14
-25 -3 -39 -22 -18 -56 3 -56 34 0 18 -5 25 -20 25 -11 0 -20 5 -20 10 0 6 9
10 20 10 11 0 20 5 20 10 0 6 -11 10 -25 10 -14 0 -25 5 -25 10 0 6 -6 10 -14
10 -15 0 -28 24 -19 34 4 3 20 6 37 6 21 0 27 3 19 11 -6 6 -18 11 -27 13 -9
1 -22 10 -29 20 -14 19 -49 13 -41 -7 9 -26 -14 -38 -76 -40 -34 -1 -62 1 -61
6 0 4 1 13 1 20 0 8 11 20 25 27 14 7 25 18 25 24 0 6 -5 5 -12 -2 -7 -7 -21
-12 -31 -12 -10 0 -33 -10 -50 -22 -16 -12 -41 -23 -54 -24 -19 -2 -25 3 -30
26 -3 17 -10 27 -15 24 -5 -3 -15 2 -22 11 -12 16 -13 16 -19 1 -4 -9 -13 -16
-21 -16 -7 0 -16 -7 -20 -15 -3 -8 -1 -15 4 -15 6 0 10 -9 10 -21 0 -11 -5
-17 -10 -14 -6 4 -7 11 -4 17 5 7 -2 9 -22 4 -27 -7 -28 -7 -12 11 29 32 7 52
-57 50 -50 -1 -55 -3 -55 -24 0 -13 9 -32 20 -43 11 -11 20 -22 20 -24 0 -2
-9 -2 -20 1 -11 3 -20 12 -20 19 0 8 -9 14 -20 14 -12 0 -17 -5 -14 -14 3 -8
1 -17 -5 -21 -6 -3 -11 2 -12 12 0 10 -3 13 -6 6 -2 -7 -11 -13 -19 -13 -8 0
-14 -4 -14 -8 0 -5 -16 -9 -35 -9 -26 0 -34 4 -33 16 2 8 -5 17 -16 19 -10 2
-16 0 -12 -6 3 -5 -1 -15 -9 -22 -20 -16 -13 -72 9 -80 26 -9 15 -24 -19 -26
-40 -2 -39 -2 -25 -19 10 -13 9 -15 -9 -15 -14 0 -21 6 -21 20 0 24 -8 25 -32
3 -17 -15 -18 -15 -19 0 -1 10 -2 23 -3 30 -1 6 11 17 26 24 42 18 56 57 34
94 -9 16 -12 29 -7 29 6 0 11 5 11 11 0 5 -4 7 -10 4 -5 -3 -10 -2 -10 2 0 19
-40 7 -51 -14 -7 -13 -18 -23 -26 -23 -11 0 -10 6 3 25 9 14 14 28 10 32 -3 3
-6 1 -6 -5 0 -7 -9 -12 -19 -12 -11 0 -21 -6 -24 -12 -2 -7 -8 -10 -12 -6 -4
4 -2 15 5 23 12 14 8 14 -23 -1 -20 -10 -37 -24 -37 -31 0 -23 -47 -86 -55
-73 -4 6 -2 17 5 25 10 12 8 12 -13 2 -14 -6 -23 -15 -21 -18 2 -4 -5 -9 -16
-12 -25 -6 -36 9 -20 28 16 20 5 45 -20 45 -25 0 -25 5 1 31 13 13 19 29 16
40 -3 12 -1 19 6 16 17 -5 44 26 39 45 -7 27 -31 21 -50 -12 -9 -16 -24 -30
-32 -30 -12 -1 -11 -3 3 -11 21 -12 22 -27 1 -25 -16 1 -60 -67 -61 -94 0 -8
-4 -28 -8 -43 -4 -15 -3 -27 1 -26 5 1 15 1 22 0 21 -2 -6 -41 -28 -41 -11 0
-20 -5 -20 -11 0 -6 7 -8 16 -5 22 8 72 17 57 10 -7 -3 -13 -17 -13 -31 0 -21
-3 -23 -22 -17 -13 4 -25 10 -28 14 -3 4 -15 6 -28 5 -14 -1 -29 7 -38 19 -8
11 -14 17 -14 13 0 -5 -7 -1 -16 7 -8 9 -24 16 -35 16 -11 0 -22 7 -25 15 -4
8 -18 15 -33 16 -32 1 -62 12 -64 24 -1 5 -9 8 -19 7 -9 -2 -19 1 -22 7 -3 5
-15 7 -26 4 -11 -3 -27 0 -35 7 -9 7 -26 9 -45 5 -24 -5 -34 -2 -49 16 -14 18
-28 22 -65 21 -26 0 -50 -3 -53 -6 -7 -7 59 -71 70 -68 4 1 10 -5 13 -13 4 -8
12 -15 20 -15 18 0 41 -43 25 -48 -16 -5 -14 -22 3 -22 17 0 25 -11 31 -40 2
-11 -1 -20 -8 -20 -6 0 -4 -7 6 -17 13 -13 19 -14 29 -5 7 7 8 12 2 12 -6 0
-11 6 -11 13 0 14 30 14 94 1 29 -5 34 -3 43 20 11 31 21 33 38 6 15 -25 28
-25 35 -1 4 18 9 19 41 10 20 -6 40 -8 45 -5 5 3 35 -2 67 -13 33 -10 93 -26
134 -36 41 -9 86 -24 100 -33 14 -9 36 -15 50 -14 14 1 54 -4 90 -12 146 -32
167 -36 213 -41 37 -5 47 -10 47 -24 0 -10 9 -21 20 -24 11 -3 20 -12 20 -21
0 -21 63 -22 80 -1 15 18 34 9 26 -11 -5 -12 2 -14 37 -9 23 4 48 11 55 17 18
16 16 -32 -4 -60 -14 -20 -24 -23 -71 -21 -34 2 -57 -2 -62 -10 -11 -18 -35
14 -27 36 5 12 -1 9 -18 -8 -19 -20 -31 -25 -56 -21 -17 2 -36 13 -43 23 -9
14 -15 15 -31 7 -12 -6 -26 -19 -33 -28 -18 -25 -60 -30 -102 -12 -56 24 -64
24 -58 -4 3 -16 0 -24 -9 -24 -8 0 -14 3 -14 8 0 4 -26 7 -58 7 -45 0 -64 5
-89 24 -29 22 -35 23 -77 12 -40 -10 -58 -8 -158 18 -62 16 -120 32 -128 35
-8 2 -33 7 -55 10 -21 2 -45 12 -52 22 -10 13 -13 14 -13 3 0 -8 -3 -10 -8 -4
-4 6 -32 19 -62 29 -87 29 -217 95 -251 127 -17 16 -34 29 -38 29 -17 0 -174
150 -200 191 -16 26 -43 55 -60 65 -17 10 -31 24 -31 31 0 7 -4 13 -8 13 -14
0 -32 48 -32 85 0 19 -9 59 -21 90 -13 34 -18 63 -13 77 4 13 7 35 6 50 0 15
3 30 8 33 4 3 6 14 3 24 -6 23 13 61 30 61 7 0 19 16 26 35 6 19 23 43 36 54
23 18 27 18 60 2 30 -14 34 -20 29 -43 -3 -14 -1 -29 4 -32 6 -3 8 -16 5 -29
l-6 -22 20 20 c11 11 19 23 16 28 -6 10 59 9 75 -2 12 -7 12 -12 0 -30 -11
-18 -11 -23 2 -31 24 -15 33 -12 27 10 -3 11 0 20 5 20 6 0 4 7 -3 17 -12 14
-12 16 1 11 8 -3 28 1 44 9 16 9 48 17 70 19 23 2 62 9 89 16 35 9 56 9 80 1
19 -7 51 -8 82 -3 28 4 43 8 35 9 -13 1 -13 2 0 11 19 12 16 12 -100 11 -52
-1 -128 -8 -168 -16 -40 -9 -79 -12 -85 -8 -7 4 -16 8 -22 9 -5 1 -18 5 -27 9
-13 5 -18 2 -18 -9 0 -12 -9 -16 -37 -15 -21 0 -32 3 -25 6 18 7 5 23 -19 23
-26 0 -53 26 -45 45 6 16 77 55 101 55 9 0 28 8 42 18 15 9 49 24 76 32 39 12
51 20 54 38 2 19 0 22 -17 17 -28 -9 -62 12 -55 34 3 12 0 21 -10 25 -23 9
-16 106 8 106 6 0 21 9 33 21 32 30 145 54 197 41 65 -16 181 -1 210 26 13 12
28 22 33 22 6 0 19 8 30 18 56 52 156 54 217 4 15 -13 17 -13 17 1 0 10 6 14
14 11 7 -3 16 2 19 10 4 9 13 13 22 10 8 -3 15 -2 15 4 0 5 10 7 23 5 15 -3
38 5 62 21 21 14 43 26 50 26 11 0 113 51 140 69 6 4 40 20 77 35 37 15 72 34
78 41 6 7 29 16 50 20 22 4 66 20 97 36 72 37 200 89 219 89 8 0 13 -9 11 -22
-1 -15 3 -22 12 -20 9 2 12 -4 8 -19 -7 -25 2 -51 14 -43 5 3 7 9 4 14 -3 5
-1 19 5 30 6 12 7 20 1 20 -16 0 -23 39 -10 53 11 11 16 10 31 -5 10 -10 18
-27 18 -37z m2861 -445 c5 -6 18 1 33 17 30 32 36 33 36 7 0 -12 -7 -20 -16
-20 -13 0 -14 -3 -4 -15 9 -11 17 -12 30 -5 28 15 33 12 26 -14 -3 -12 -3 -26
0 -29 4 -4 8 -23 9 -43 2 -29 -2 -38 -21 -46 -13 -6 -26 -20 -30 -30 -4 -15
-9 -17 -20 -7 -18 15 -29 -10 -20 -51 3 -17 1 -30 -4 -30 -6 0 -10 7 -10 16 0
9 -12 27 -26 39 -17 14 -25 29 -21 39 3 8 2 18 -3 21 -7 4 -6 13 0 25 6 11 9
23 8 27 -2 4 5 19 14 31 15 22 17 22 26 7 7 -14 9 -11 8 14 0 17 -4 31 -8 31
-5 0 -8 -4 -8 -10 0 -5 -4 -10 -10 -10 -5 0 -9 19 -9 43 1 23 3 33 6 22 3 -11
9 -24 14 -29z m-2573 0 c-3 -14 -1 -31 3 -38 6 -9 9 -8 9 7 1 18 1 19 11 3 7
-12 6 -24 -1 -38 -10 -19 -12 -19 -34 -4 -22 14 -25 14 -39 -6 -15 -21 -12
-54 6 -77 6 -9 6 -13 -1 -13 -6 0 -14 -9 -17 -20 -3 -11 -13 -20 -21 -20 -8 0
-14 -2 -14 -4 0 -2 -3 -13 -7 -23 -7 -17 -6 -17 12 1 23 22 32 7 15 -25 -10
-17 -14 -19 -21 -8 -6 10 -9 7 -10 -11 -1 -17 -3 -20 -6 -7 -2 9 -8 15 -13 12
-4 -3 -7 3 -6 13 0 9 -5 16 -11 15 -7 -2 -13 3 -13 10 -1 16 -30 -23 -30 -40
0 -7 7 -13 15 -13 8 0 15 -5 15 -11 0 -5 -4 -7 -10 -4 -5 3 -10 -1 -10 -9 0
-22 -16 -20 -33 4 -16 22 -29 17 -20 -8 5 -14 2 -13 -16 3 -31 27 -22 82 19
123 28 29 48 27 37 -3 -7 -16 8 -23 42 -20 18 1 28 12 42 51 23 60 24 74 3 74
-8 0 -12 5 -9 10 4 6 11 8 16 4 13 -8 60 24 58 39 -4 30 2 46 19 50 9 3 19 5
21 6 2 0 1 -10 -1 -23z m-228 -1357 c0 -6 -7 -8 -16 -5 -8 3 -13 2 -10 -3 3
-5 -1 -12 -10 -15 -9 -4 -14 -9 -11 -13 4 -3 14 0 23 8 15 12 19 11 30 -6 42
-63 41 -63 69 -30 15 18 24 39 21 53 -2 17 2 22 18 22 44 0 64 -11 59 -31 -7
-26 14 -24 22 2 9 28 29 19 33 -16 3 -25 1 -27 -22 -21 -21 5 -32 -1 -64 -35
-32 -33 -41 -37 -46 -24 -5 15 -10 13 -37 -9 -32 -27 -77 -34 -96 -15 -8 8
-17 8 -33 -1 -12 -6 -24 -10 -26 -7 -9 8 9 69 22 74 8 3 14 12 14 20 0 10 -6
13 -16 9 -9 -3 -26 -6 -40 -6 -24 0 -28 -19 -10 -48 13 -21 1 -25 -49 -17 -46
6 -54 20 -12 20 11 0 22 6 24 13 3 7 -4 12 -16 12 -41 0 -29 35 21 61 34 18
158 24 158 8z"/>
<path d="M5525 470 c-3 -5 -23 -10 -43 -10 -20 0 -50 -7 -66 -15 -15 -8 -37
-15 -47 -15 -11 0 -28 -6 -39 -12 -17 -11 -22 -10 -29 1 -8 12 -23 12 -108 -3
-54 -10 -107 -21 -118 -26 -11 -5 -49 -14 -85 -20 -66 -12 -145 -34 -255 -71
-55 -19 -125 -38 -197 -53 -19 -4 -26 -11 -22 -21 4 -8 1 -15 -5 -15 -6 0 -11
5 -11 11 0 7 -13 9 -37 5 -42 -8 -182 -51 -228 -72 -16 -7 -48 -16 -70 -20
-51 -8 -244 -65 -355 -103 l-85 -30 118 1 c113 1 118 2 115 22 -2 15 3 22 20
24 20 3 22 0 16 -22 -6 -24 -4 -26 29 -26 20 0 38 4 41 9 3 4 23 11 44 14 22
2 51 15 66 28 l28 24 -29 6 c-24 6 -22 7 15 8 23 0 42 6 42 12 0 5 4 8 9 4 6
-3 19 5 31 17 17 19 22 20 30 8 6 -10 1 -19 -18 -33 l-27 -18 50 6 c28 4 63 8
79 10 16 1 33 9 38 18 7 13 3 18 -17 23 -37 9 -25 15 39 19 45 3 56 0 56 -12
0 -10 6 -13 16 -9 9 3 29 6 45 6 22 0 32 6 38 24 11 27 32 38 52 25 8 -5 10
-9 4 -9 -5 0 -4 -5 3 -12 9 -9 15 -9 24 0 7 7 25 12 42 12 16 0 38 7 48 17 15
13 23 14 44 5 43 -20 57 -16 52 17 -4 28 -4 29 19 14 15 -10 27 -12 36 -6 6 5
32 16 57 23 25 7 50 17 55 21 6 4 21 9 35 11 18 2 25 9 26 27 1 24 22 44 36
35 5 -3 6 -10 2 -15 -3 -5 -10 -7 -15 -4 -5 3 -6 -1 -2 -10 4 -13 14 -15 42
-10 20 4 46 13 57 20 12 8 40 16 63 18 23 2 47 9 54 16 6 6 20 11 30 11 11 0
35 9 53 21 l34 21 20 -24 c11 -12 19 -18 20 -12 0 5 -5 15 -12 22 -9 9 -7 12
10 12 11 0 25 8 31 17 5 10 13 15 17 11 4 -4 1 -15 -7 -24 -12 -15 -10 -16 21
-10 20 4 30 4 23 -1 -15 -11 0 -38 15 -29 6 4 14 23 18 44 4 20 11 43 17 50 7
9 -2 12 -41 12 -28 0 -54 -4 -57 -10z"/>
<path d="M5594 215 c-14 -19 -21 -22 -32 -13 -10 9 -16 8 -22 -2 -7 -11 -11
-11 -24 -1 -11 10 -23 10 -44 3 -17 -6 -35 -6 -45 -1 -10 6 -18 5 -22 -1 -3
-5 -14 -10 -23 -10 -17 -1 -62 -33 -62 -44 0 -3 8 -5 18 -4 9 1 39 -2 66 -6
40 -7 60 -5 112 14 35 12 68 19 73 15 6 -3 11 -2 11 4 0 5 9 13 20 16 13 4 20
15 20 31 0 31 -22 31 -46 -1z"/>
<path d="M5098 133 c-25 -3 -38 -9 -38 -19 0 -16 -27 -19 -32 -3 -6 19 -58 -1
-58 -23 0 -10 4 -17 9 -13 5 3 12 1 16 -5 3 -5 -2 -10 -11 -10 -17 0 -16 -1 1
-13 10 -8 15 -19 11 -25 -4 -7 -3 -12 3 -12 5 0 12 6 15 13 5 9 7 9 12 0 6
-13 18 -10 80 18 41 18 67 59 38 59 -8 0 -14 5 -14 10 0 6 5 10 10 10 6 0 10
5 10 10 0 6 -3 9 -7 8 -5 -1 -25 -3 -45 -5z"/>
</g>
</svg>
