<?xml version="1.0" standalone="no"?>
<!DOCTYPE svg PUBLIC "-//W3C//DTD SVG 20010904//EN"
 "http://www.w3.org/TR/2001/REC-SVG-20010904/DTD/svg10.dtd">
<svg version="1.0" xmlns="http://www.w3.org/2000/svg"
 width="760.000000pt" height="570.000000pt" viewBox="0 0 760.000000 570.000000"
 preserveAspectRatio="xMidYMid meet">
<metadata>
Created by potrace 1.16, written by Peter Selinger 2001-2019
</metadata>
<g transform="translate(0.000000,570.000000) scale(0.100000,-0.100000)"
fill="#000000" stroke="none">
<path d="M0 4695 c0 -1069 -1 -1035 44 -990 8 9 29 21 45 26 17 6 33 18 36 28
8 27 60 42 90 27 28 -15 133 -12 149 4 5 5 19 10 31 10 11 0 33 9 49 19 17 11
33 18 38 15 5 -3 23 4 41 15 22 14 59 23 108 27 89 7 126 20 134 45 4 10 11
19 17 19 6 0 34 11 62 25 28 14 73 29 99 34 26 5 55 15 65 23 43 37 131 60
242 64 74 3 110 1 110 -7 0 -12 43 -1 48 12 6 15 32 10 32 -6 0 -8 2 -15 4
-15 12 0 72 25 77 32 17 26 219 27 238 1 3 -4 18 -16 33 -26 24 -15 26 -20 16
-37 -7 -11 -21 -20 -30 -20 -11 0 -18 -8 -18 -18 0 -12 -14 -25 -40 -37 -31
-14 -40 -24 -40 -42 l0 -24 -33 25 -34 26 -58 -20 c-45 -16 -73 -19 -119 -14
-56 6 -63 4 -84 -19 -13 -13 -29 -45 -37 -71 -13 -43 -13 -46 4 -46 10 0 24 6
30 14 6 8 33 17 58 21 41 6 50 4 65 -15 26 -32 22 -53 -17 -89 -41 -37 -43
-53 -11 -91 19 -23 22 -35 17 -62 -4 -18 -9 -31 -12 -28 -3 3 -14 -1 -23 -9
-15 -12 -20 -11 -44 12 -34 33 -45 34 -65 4 -11 -14 -19 -18 -24 -11 -4 6 -36
20 -70 31 -33 12 -71 31 -83 43 l-21 21 25 24 c19 18 26 34 26 63 0 73 -62
100 -155 68 -40 -14 -40 -14 -57 -95 -16 -75 -22 -85 -68 -131 l-50 -50 -58 6
c-31 4 -84 17 -116 30 -77 31 -190 54 -266 54 -52 0 -65 -4 -86 -25 -14 -14
-22 -30 -19 -35 8 -13 56 -13 92 1 19 7 29 7 31 0 2 -6 9 -11 17 -11 12 0 25
-42 25 -85 0 -13 14 -37 30 -53 17 -17 30 -34 30 -39 0 -4 11 -20 24 -35 l24
-27 120 9 c179 12 223 36 198 102 -8 22 -7 35 4 56 19 34 56 39 115 17 42 -17
45 -17 70 3 24 19 35 20 113 15 89 -6 116 -19 110 -50 -2 -9 -18 -26 -37 -37
-31 -18 -40 -18 -105 -8 -130 22 -123 23 -158 -13 -18 -19 -35 -32 -38 -30 -3
2 -11 -8 -17 -21 -11 -23 -9 -27 20 -44 26 -16 34 -17 47 -6 19 17 80 9 80
-10 0 -8 -9 -15 -20 -15 -25 -2 -29 -3 -65 -19 -16 -8 -34 -15 -40 -15 -5 -1
-17 -5 -25 -8 -8 -3 -51 -15 -94 -27 -182 -48 -266 -143 -266 -301 0 -81 23
-140 75 -191 l30 -29 25 31 c27 32 57 38 105 20 24 -9 32 -6 67 26 24 21 46
33 55 30 8 -3 30 -6 48 -6 38 0 51 -16 57 -70 3 -26 11 -38 31 -48 16 -8 27
-21 27 -34 0 -24 27 -50 72 -69 27 -11 32 -10 44 6 8 10 13 39 13 65 -2 60 7
87 31 95 10 3 32 28 49 54 24 40 36 50 68 55 48 9 151 58 180 85 12 12 26 21
32 21 5 0 29 16 53 37 23 20 66 46 93 58 28 13 57 30 63 38 16 19 6 83 -14 91
-17 7 -19 46 -1 47 6 1 18 2 24 3 18 2 14 16 -19 64 l-30 44 -62 -4 c-33 -3
-106 -19 -161 -37 -118 -39 -212 -51 -226 -30 -16 25 -10 40 32 81 23 23 49
59 59 80 23 52 46 67 104 68 39 0 55 6 83 30 47 42 99 41 148 -1 19 -17 35
-36 35 -43 0 -6 -5 -4 -11 4 -9 13 -10 13 -6 0 6 -25 44 -23 92 5 40 24 58 27
163 31 213 8 197 5 199 41 0 18 9 43 20 57 15 22 23 25 55 20 21 -3 55 1 82
10 26 9 62 16 80 16 26 0 35 6 45 28 25 53 28 57 42 60 8 1 23 -4 33 -11 19
-14 18 -15 -2 -35 -12 -12 -22 -28 -22 -35 0 -7 -9 -20 -20 -30 -11 -9 -20
-21 -20 -27 0 -17 28 -11 34 8 8 24 59 82 72 82 6 0 23 9 37 20 14 11 39 23
57 26 28 6 29 8 15 24 -8 9 -15 21 -15 27 0 19 29 36 47 28 10 -5 24 -7 31 -6
18 3 15 -26 -5 -39 -17 -11 -17 -11 0 -6 10 3 21 6 23 6 2 0 4 6 4 14 0 11 10
13 39 9 30 -4 47 0 82 23 24 16 51 37 61 47 10 9 24 17 31 17 6 0 23 9 37 20
l25 19 -22 16 c-13 9 -23 25 -23 36 0 26 52 79 78 79 10 0 28 10 40 23 27 29
129 130 167 166 17 15 52 41 78 57 26 16 74 46 106 67 32 20 71 37 87 37 36 1
100 23 122 43 19 18 87 42 147 52 51 9 104 36 135 70 30 32 124 89 163 99 15
3 46 23 69 44 40 36 43 37 119 37 42 0 80 -3 83 -6 9 -9 -4 -40 -14 -34 -11 7
-33 -22 -25 -35 13 -21 59 15 85 65 17 33 50 42 93 26 33 -13 44 -37 29 -62
-16 -25 -15 -39 3 -39 9 0 21 -11 27 -25 11 -25 41 -34 53 -15 3 5 16 10 28
10 48 -1 94 14 137 43 25 17 72 40 105 51 l60 22 -2 39 c-2 22 -8 42 -13 43
-17 6 -41 34 -35 40 3 3 12 -3 20 -14 14 -19 14 -19 15 2 0 12 6 26 13 32 17
14 57 4 57 -14 0 -8 3 -14 8 -15 4 0 17 -2 30 -5 15 -3 22 1 22 11 0 19 16 19
24 0 7 -19 101 -21 113 -2 4 7 21 20 36 30 15 10 26 21 23 25 -2 4 11 8 29 9
29 1 35 -3 50 -38 22 -49 18 -54 -87 -115 -103 -59 -135 -68 -165 -49 -27 18
-29 42 -9 90 13 31 13 35 0 35 -7 0 -14 -4 -14 -10 0 -5 -7 -7 -15 -4 -25 10
-45 -14 -38 -47 3 -17 1 -29 -5 -29 -16 0 -24 -31 -11 -46 6 -8 21 -11 39 -8
35 8 46 -10 26 -41 -9 -13 -16 -31 -16 -39 0 -26 -84 -65 -206 -96 -65 -17
-133 -37 -151 -45 -18 -8 -35 -10 -38 -6 -3 5 1 12 7 15 7 4 2 4 -12 0 -62
-14 -122 -16 -145 -4 -19 10 -39 10 -102 0 -152 -25 -142 -25 -174 6 -29 28
-33 29 -121 26 -90 -2 -119 -11 -149 -41 -39 -41 -7 -67 92 -78 32 -3 59 -9
59 -13 0 -17 -70 -39 -145 -45 -116 -9 -218 -23 -248 -34 -76 -29 -17 -58 133
-65 63 -3 144 -10 180 -16 36 -5 84 -10 108 -10 40 0 42 1 27 16 -9 9 -14 21
-12 28 6 18 46 19 53 2 8 -20 44 -21 44 -1 0 8 -9 15 -19 15 -16 0 -31 18 -31
36 0 2 18 4 39 4 22 0 43 5 46 10 4 7 13 7 26 0 11 -6 23 -9 28 -6 5 3 11 -3
14 -14 8 -30 33 -35 80 -15 42 18 127 99 127 121 0 21 29 37 50 28 19 -8 17
-12 -25 -56 -25 -26 -45 -54 -45 -63 0 -8 -4 -15 -9 -15 -4 0 -30 -37 -56 -82
-27 -46 -59 -97 -72 -114 -13 -17 -23 -38 -23 -47 0 -9 -10 -23 -22 -31 l-21
-15 24 -21 24 -20 -22 -19 c-15 -12 -20 -25 -16 -40 7 -26 34 -27 73 -4 26 15
33 15 76 1 55 -17 73 -9 66 30 -4 19 -7 21 -13 10 -4 -8 -24 -15 -43 -16 -28
-1 -36 3 -42 20 -6 21 -7 21 -20 3 -8 -10 -16 -16 -19 -13 -3 3 1 13 10 22 15
14 44 21 70 16 5 -1 22 -2 37 -2 15 -1 28 -6 28 -11 0 -6 3 -7 6 -4 9 9 44
-11 44 -24 0 -6 -7 -9 -15 -5 -8 3 -15 1 -15 -4 0 -6 5 -10 10 -10 6 0 8 -11
6 -24 -4 -20 0 -25 24 -28 22 -3 27 -1 23 11 -4 10 0 8 10 -4 13 -17 27 -20
104 -20 136 1 223 7 229 16 3 5 16 9 30 9 14 0 44 13 67 28 23 16 50 31 60 35
9 4 17 11 17 17 0 5 14 10 30 10 17 0 49 9 72 21 22 11 49 18 59 16 14 -4 19
0 19 14 0 22 -10 24 -29 7 -11 -11 -12 -10 -6 2 5 8 9 28 10 45 0 17 9 57 20
88 20 59 16 79 -10 57 -13 -11 -14 -10 -9 4 3 9 10 16 15 16 5 0 9 11 9 24 0
19 7 26 33 31 17 4 44 14 60 21 20 11 36 12 60 5 17 -5 24 -10 13 -10 -16 -1
-16 -3 5 -20 23 -19 23 -20 4 -27 -11 -4 -25 -14 -31 -22 -6 -9 -25 -15 -42
-14 -18 0 -33 -5 -36 -14 -3 -9 -1 -12 4 -9 6 3 10 2 10 -4 0 -5 -8 -12 -19
-16 -11 -3 -18 -14 -16 -28 1 -25 -12 -58 -29 -69 -8 -5 -7 -11 2 -20 11 -11
16 -10 27 5 8 12 15 14 20 8 3 -6 2 -11 -4 -11 -6 0 -8 -12 -4 -31 6 -29 4
-31 -18 -24 -20 7 -21 6 -8 -6 15 -14 55 -39 63 -39 2 0 6 10 10 23 3 13 20
31 38 40 18 9 41 23 51 29 13 10 21 10 35 2 13 -9 24 -8 46 3 26 14 28 13 23
-1 -9 -23 7 -20 42 10 19 16 29 20 25 10 -3 -8 -26 -25 -51 -37 -30 -15 -48
-31 -55 -50 -10 -30 -26 -37 -44 -19 -6 6 -15 6 -24 0 -12 -8 -11 -10 5 -10
18 -1 19 -1 3 -11 -27 -15 -22 -37 10 -41 25 -4 25 -5 7 -14 -11 -5 -20 -15
-20 -21 0 -7 -4 -14 -10 -15 -5 -1 -18 -9 -28 -18 -15 -12 -17 -24 -11 -67 4
-36 3 -53 -5 -54 -6 -1 -16 -2 -21 -3 -6 0 -15 -8 -20 -16 -8 -13 -13 -13 -31
-2 -11 8 -18 9 -14 3 3 -6 0 -11 -8 -11 -37 0 -69 158 -39 193 11 12 13 21 6
25 -6 4 -13 15 -17 24 -9 26 -19 22 -47 -20 -14 -20 -29 -40 -35 -44 -16 -12
-55 -9 -55 4 0 6 -3 8 -7 5 -3 -4 -12 -2 -20 4 -9 9 -13 8 -13 0 0 -6 -7 -11
-15 -11 -11 0 -12 -5 -6 -23 8 -19 6 -23 -12 -25 -16 -1 -18 1 -8 7 9 6 10 11
2 15 -6 4 -11 3 -11 -3 0 -6 -8 -8 -17 -5 -15 5 -15 3 1 -10 11 -9 30 -16 43
-16 13 0 23 -4 23 -10 0 -5 -7 -10 -15 -10 -9 0 -12 -6 -8 -17 5 -14 10 -12
30 11 13 15 23 23 23 18 0 -5 -7 -15 -15 -22 -19 -16 -19 -25 2 -46 17 -17 16
-17 -12 -11 -17 3 -24 4 -17 1 16 -7 15 -29 -2 -43 -11 -9 -15 -7 -19 9 -3 11
-10 20 -15 20 -14 0 -2 -41 14 -47 8 -3 14 -12 14 -21 0 -8 -3 -13 -6 -9 -5 5
-54 -39 -54 -49 0 -1 12 4 27 11 20 10 29 11 32 4 5 -17 39 -49 51 -49 12 0
12 -8 0 -35 -8 -19 -9 -19 -9 3 -1 13 -5 20 -11 17 -6 -3 -10 1 -10 11 0 13
-6 15 -32 10 -18 -3 -40 -15 -48 -26 -12 -15 -18 -18 -27 -9 -11 11 -25 -14
-28 -55 -1 -11 -7 -22 -13 -24 -9 -3 -10 3 -3 22 9 21 7 26 -11 32 -13 4 -24
1 -29 -7 -6 -10 -9 -8 -9 9 0 12 -5 22 -11 22 -6 0 -8 -9 -4 -20 5 -14 2 -20
-9 -20 -9 0 -16 -4 -16 -10 0 -5 -4 -10 -10 -10 -15 0 -12 16 6 34 8 9 12 20
9 26 -3 5 0 10 7 10 8 0 14 9 14 20 0 13 -5 19 -14 15 -9 -3 -12 0 -9 9 7 19
-3 28 -18 16 -9 -7 -16 -6 -24 4 -9 11 -8 15 3 19 11 4 13 1 9 -10 -5 -13 -2
-13 20 2 15 9 27 18 27 19 0 1 -20 1 -44 1 -24 0 -42 -3 -39 -7 2 -5 -3 -8
-11 -8 -9 0 -16 5 -16 11 0 6 -7 9 -15 5 -8 -3 -19 3 -25 12 -9 16 -11 16 -23
0 -8 -10 -17 -15 -20 -11 -7 6 -11 -19 -8 -44 1 -8 -5 -10 -14 -7 -8 3 -12 10
-9 15 8 14 -20 11 -35 -3 -11 -10 -13 -10 -7 0 4 6 3 12 -2 12 -5 0 -15 -13
-22 -30 -7 -16 -18 -30 -24 -30 -6 0 0 -9 14 -19 13 -11 28 -17 32 -15 4 3 8
0 8 -5 0 -6 -4 -11 -10 -11 -5 0 -14 -10 -21 -21 -9 -17 -8 -23 2 -30 11 -6
10 -9 -3 -14 -10 -4 -21 -4 -27 -1 -5 4 -12 2 -16 -4 -6 -10 12 -14 46 -11 9
1 19 -5 23 -14 5 -13 0 -16 -22 -14 -15 1 -37 1 -49 1 -25 -2 -90 -58 -80 -69
4 -3 13 0 20 8 11 14 67 43 67 35 0 -9 -83 -57 -93 -53 -7 2 -17 -9 -24 -24
-8 -19 -23 -31 -45 -37 -24 -6 -33 -14 -31 -28 1 -17 0 -17 -17 3 -14 18 -19
20 -24 8 -3 -8 -13 -15 -21 -15 -9 0 -13 5 -10 10 9 15 -32 12 -47 -3 -11 -12
-16 -12 -26 0 -15 16 -52 18 -52 2 0 -6 -6 -9 -12 -6 -7 2 -21 -2 -30 -11 -12
-10 -18 -11 -18 -4 0 7 -7 12 -15 12 -15 0 -15 13 2 74 3 11 1 16 -5 12 -6 -4
-15 2 -21 11 -8 14 -12 16 -22 6 -21 -21 -34 -15 -15 6 17 19 17 20 -3 30 -27
15 -41 14 -41 -3 0 -7 -6 -19 -14 -26 -9 -7 -13 -23 -11 -41 3 -27 -7 -55 -52
-142 -8 -15 -11 -32 -7 -39 4 -6 3 -8 -3 -5 -13 8 -12 -96 1 -105 8 -5 8 -8 0
-8 -6 0 -21 -9 -34 -20 -17 -15 -27 -17 -41 -9 -13 6 -19 6 -19 -1 0 -16 -153
-13 -176 5 -22 17 -44 19 -44 5 0 -5 9 -10 21 -10 26 0 20 -24 -7 -28 -44 -7
-64 -13 -64 -20 0 -4 16 -6 35 -4 40 5 42 1 19 -33 -17 -27 -50 -32 -84 -15
-11 6 -29 15 -40 20 -14 7 -27 7 -40 0 -15 -8 -22 -6 -34 12 l-16 22 -25 -24
c-14 -13 -25 -20 -25 -16 0 4 -9 2 -19 -4 -23 -12 -51 -3 -51 16 0 8 -5 14
-11 14 -7 0 -9 -10 -5 -26 6 -24 5 -25 -24 -19 -26 6 -30 4 -30 -13 0 -18 -9
-21 -93 -27 -90 -7 -96 -6 -135 19 l-42 26 -6 -27 c-13 -61 -15 -63 -45 -63
-16 0 -45 -6 -64 -14 -18 -8 -36 -12 -38 -9 -3 2 -11 -6 -18 -19 -16 -29 -59
-72 -81 -81 -10 -3 -18 -14 -18 -22 0 -11 -8 -16 -22 -14 -27 2 -88 -19 -88
-31 0 -5 -12 -15 -27 -22 -14 -7 -35 -29 -46 -48 -10 -19 -28 -45 -38 -59 -10
-13 -19 -32 -19 -42 0 -9 -11 -31 -25 -47 -14 -17 -25 -35 -25 -40 0 -20 -125
-150 -155 -162 -11 -4 -35 -5 -53 -3 -29 5 -33 10 -38 44 -4 22 -11 42 -15 45
-5 3 -9 20 -8 37 1 30 1 31 9 7 7 -23 7 -23 11 10 2 19 10 36 17 36 24 3 24 4
11 20 -11 14 -11 18 4 29 10 7 20 22 22 34 2 12 7 26 10 32 4 6 -2 13 -14 16
-12 3 -21 9 -21 12 0 4 -14 5 -31 3 -28 -4 -30 -8 -27 -33 6 -39 -11 -37 -55
6 -30 29 -43 35 -80 35 -31 0 -49 -6 -62 -20 -10 -11 -28 -20 -41 -20 -13 0
-27 -6 -31 -14 -17 -30 -193 -25 -193 4 0 4 -9 10 -20 13 -11 3 -24 17 -30 31
-12 33 -43 34 -58 1 -7 -14 -18 -28 -27 -31 -22 -9 -72 32 -86 71 -7 19 -16
35 -20 35 -7 0 -19 -61 -19 -102 0 -20 -6 -27 -22 -30 -17 -2 -23 -10 -23 -30
-1 -14 -6 -32 -11 -40 -6 -7 -15 -30 -21 -50 -9 -32 -8 -39 8 -53 15 -14 16
-21 6 -36 -10 -16 -9 -21 3 -29 8 -5 20 -10 25 -10 6 0 3 4 -5 10 -8 5 -12 11
-9 14 2 3 11 1 19 -4 11 -7 12 -14 3 -34 -11 -22 -9 -25 18 -35 29 -10 30 -13
24 -51 -6 -36 -5 -40 14 -40 30 0 26 -11 -19 -55 -21 -21 -37 -42 -34 -47 9
-14 72 -9 81 7 11 18 57 24 59 8 1 -7 2 -17 3 -23 0 -5 10 -10 20 -10 11 0 23
-5 26 -10 3 -5 17 -10 31 -10 13 0 24 -4 24 -8 0 -11 -46 -32 -70 -32 -11 0
-20 -3 -20 -7 0 -16 43 -78 71 -103 26 -23 55 -78 45 -87 -7 -7 -56 9 -56 19
0 5 -20 8 -45 7 -36 -2 -48 1 -60 18 -8 11 -11 23 -8 27 4 3 -3 20 -15 36 -12
16 -22 37 -22 46 0 34 -41 82 -97 113 -67 36 -93 55 -93 67 0 5 -20 48 -44 96
-24 48 -46 105 -50 127 -5 31 -12 43 -37 55 -28 14 -33 14 -57 -2 -70 -44
-107 -83 -161 -171 -81 -133 -89 -151 -112 -243 -11 -45 -35 -109 -53 -142
-18 -34 -43 -88 -55 -122 -20 -57 -20 -64 -6 -97 8 -20 15 -47 15 -60 0 -29
35 -50 77 -46 17 2 42 -3 56 -10 32 -17 54 -9 59 21 2 12 13 27 24 33 12 6 29
16 37 23 12 10 25 11 56 2 47 -12 51 -27 16 -60 -14 -13 -25 -29 -25 -37 0 -7
-11 -15 -25 -19 -16 -4 -25 -13 -25 -25 0 -10 -6 -19 -13 -19 -34 0 -58 -57
-38 -88 5 -9 16 -2 36 28 15 22 32 40 36 40 5 0 38 29 73 65 l65 64 -6 53 c-3
38 -1 58 11 73 13 18 16 19 31 4 13 -12 14 -21 5 -43 -16 -43 -12 -47 23 -27
33 19 55 23 182 40 39 5 86 14 105 20 47 15 77 14 138 -4 32 -10 53 -22 57
-34 8 -27 70 -37 176 -28 68 6 93 28 47 41 -28 8 -82 72 -73 86 9 15 61 12 74
-3 6 -8 8 -16 5 -19 -3 -3 9 -16 26 -28 17 -12 42 -39 55 -60 13 -21 40 -47
59 -60 42 -25 47 -50 11 -50 -25 0 -45 16 -78 64 -10 14 -25 26 -33 26 -17 0
-44 -23 -44 -38 0 -15 -21 -20 -56 -15 -23 4 -33 1 -38 -12 -7 -20 10 -45 30
-45 7 0 24 -12 38 -26 15 -17 30 -25 40 -21 15 6 83 -2 201 -24 88 -17 127
-19 146 -8 10 5 40 10 68 11 52 2 65 18 21 25 -13 2 -28 7 -34 12 -6 5 -26 12
-44 16 -17 3 -49 23 -70 44 -42 42 -143 177 -214 284 -26 40 -55 83 -66 97
-31 41 -48 96 -33 113 19 23 68 26 101 5 28 -16 34 -17 65 -4 31 13 37 13 50
0 8 -9 15 -22 15 -29 0 -8 5 -17 10 -20 16 -10 40 14 33 33 -3 10 2 7 12 -6
13 -18 20 -21 31 -11 23 19 83 2 94 -27 5 -13 14 -24 20 -24 5 0 10 -8 10 -19
0 -22 55 -67 94 -77 14 -3 29 -10 32 -15 10 -17 34 -9 34 11 0 41 26 18 53
-48 20 -46 43 -80 75 -110 57 -51 118 -92 138 -92 33 0 113 33 134 55 21 22
24 23 45 9 28 -19 39 -5 25 31 -6 15 -7 32 -3 38 3 6 12 -11 20 -36 8 -29 23
-53 39 -63 32 -22 36 -16 19 31 -18 55 -7 66 16 15 21 -46 42 -49 47 -5 3 24
-52 155 -65 155 -3 0 -11 -7 -19 -15 -11 -11 -12 -19 -4 -34 15 -30 13 -32
-21 -13 -28 16 -30 20 -25 59 10 75 -19 156 -104 292 -38 60 -52 99 -30 86 6
-3 10 1 10 10 0 10 -5 13 -12 9 -7 -5 -8 -3 -4 5 5 7 11 10 14 7 3 -3 10 -2
16 3 70 57 185 83 210 48 7 -9 25 -17 39 -17 25 0 26 2 24 56 -2 47 -1 53 10
38 7 -10 16 -15 19 -11 3 3 18 -8 31 -24 24 -28 26 -29 44 -13 15 14 21 14 34
4 8 -7 15 -18 15 -24 1 -17 58 -76 74 -76 13 0 31 -27 28 -42 -1 -5 3 -8 8 -8
6 0 10 11 10 25 0 26 15 34 23 13 4 -9 6 -8 7 2 2 21 29 -99 29 -133 1 -16 12
-53 26 -83 14 -30 25 -62 25 -72 0 -22 44 -117 58 -126 6 -4 23 -30 37 -59 15
-28 33 -64 41 -79 8 -15 17 -58 21 -95 5 -61 9 -71 39 -99 22 -21 34 -41 34
-58 0 -15 6 -37 14 -49 8 -12 24 -51 36 -87 12 -36 27 -74 34 -85 18 -28 28
-75 17 -75 -5 0 -17 -3 -27 -7 -12 -4 -15 -3 -10 6 11 17 -71 91 -101 91 -12
0 -23 -4 -23 -10 0 -5 -7 -10 -15 -10 -9 0 -15 -10 -16 -22 0 -13 -3 -18 -5
-11 -3 7 -11 10 -18 7 -7 -3 -23 0 -37 5 -24 10 -24 10 -1 10 44 2 21 20 -25
20 -27 0 -57 0 -68 1 -11 1 -32 -2 -47 -5 -21 -6 -29 -3 -34 10 -8 20 11 35
36 28 10 -3 21 1 25 7 6 10 -1 11 -26 5 -73 -16 -265 1 -296 26 -17 15 -158
38 -246 40 -45 1 -80 8 -104 21 -20 11 -53 21 -75 23 -26 3 -47 14 -69 36 -30
31 -75 45 -200 62 -46 7 -70 -6 -41 -22 11 -6 26 -27 32 -46 6 -19 18 -35 26
-35 8 0 15 -6 16 -12 0 -7 2 -18 2 -23 1 -6 11 -22 24 -35 26 -28 28 -46 7
-54 -11 -4 -15 2 -15 23 0 20 -8 34 -27 46 -23 15 -25 15 -20 2 3 -9 2 -19 -3
-22 -6 -4 -10 -1 -10 5 0 14 -64 7 -84 -9 -8 -7 -20 -10 -26 -6 -5 3 -10 1
-10 -4 0 -6 -9 -11 -19 -11 -11 0 -21 -5 -23 -11 -3 -8 -16 -14 -48 -18 -3 -1
-14 -17 -24 -36 -10 -19 -22 -32 -27 -30 -4 3 -18 -9 -30 -27 -13 -18 -30 -38
-38 -44 -8 -6 -11 -16 -7 -22 4 -7 1 -12 -6 -12 -29 0 -45 -52 -42 -135 2 -44
8 -81 13 -83 5 -2 7 -11 4 -20 -5 -14 -3 -15 7 -5 11 10 11 15 -1 29 -10 13
-11 18 -2 21 7 2 10 10 7 17 -3 7 1 18 8 24 10 8 13 0 14 -39 0 -32 7 -55 19
-69 18 -20 18 -21 -3 -43 -14 -15 -19 -30 -15 -49 3 -15 9 -26 13 -23 4 3 10
-5 13 -17 4 -12 1 -25 -5 -29 -7 -4 -3 -11 11 -18 12 -7 27 -9 33 -5 7 4 8 3
4 -4 -4 -7 -1 -12 8 -12 9 0 16 7 16 15 0 8 -7 15 -15 15 -8 0 -15 5 -15 10 0
18 22 10 57 -20 34 -30 53 -38 53 -21 0 5 15 34 34 66 42 68 53 110 35 131
-10 12 -10 18 2 29 16 15 92 28 83 14 -3 -5 -10 -7 -15 -4 -12 8 -11 -6 1 -25
6 -9 10 -10 10 -3 0 7 16 24 35 39 27 20 39 24 47 16 9 -9 8 -12 -3 -12 -8 0
-20 -10 -28 -21 -11 -19 -11 -21 3 -16 11 5 16 1 16 -13 0 -24 -21 -71 -29
-66 -3 2 -7 -14 -9 -36 -1 -22 -7 -49 -13 -60 -14 -25 3 -47 23 -31 14 11 220
10 257 -2 12 -3 21 -2 21 4 0 10 31 9 60 -2 35 -13 80 -15 111 -7 19 5 97 11
174 14 216 7 337 17 370 29 17 6 62 34 100 63 39 28 84 56 100 61 22 7 30 16
31 34 2 36 15 63 24 49 4 -7 13 -9 19 -5 13 8 5 45 -13 58 -6 5 -1 5 12 2 l22
-6 -17 35 c-18 36 -31 46 -30 24 1 -34 -4 -48 -17 -48 -24 0 -30 20 -10 34 9
7 14 18 10 24 -4 6 2 17 13 23 10 7 17 19 14 26 -3 7 0 13 5 13 6 0 13 8 15
18 3 9 4 5 3 -9 -1 -15 -8 -34 -15 -43 -11 -13 -11 -16 2 -16 20 0 41 -54 33
-90 -4 -22 -2 -30 8 -30 7 0 19 -7 26 -15 7 -8 17 -15 22 -15 5 0 -2 14 -17
32 -16 19 -23 34 -16 36 6 2 11 10 11 18 0 8 5 14 11 14 6 0 9 -9 6 -19 -4
-15 -1 -18 12 -14 9 4 13 3 9 -2 -4 -4 -1 -13 7 -19 9 -6 17 -21 19 -33 4 -17
1 -21 -12 -16 -16 5 -16 5 0 -12 16 -17 18 -17 46 4 39 27 67 29 53 2 -8 -15
-7 -20 6 -25 9 -4 13 -9 9 -13 -9 -10 -38 -13 -50 -6 -14 9 -116 9 -115 0 0
-5 -18 -28 -40 -52 -41 -45 -47 -64 -42 -142 3 -44 -7 -59 -25 -36 -7 10 -14
13 -14 7 0 -6 9 -19 20 -29 13 -12 20 -31 20 -57 0 -26 4 -38 14 -38 26 0 127
-52 132 -69 3 -9 10 -24 15 -33 5 -10 9 -29 9 -42 0 -14 4 -28 10 -31 5 -3 7
-19 3 -35 l-5 -30 794 0 795 0 21 23 c12 13 22 28 22 34 0 5 9 18 20 28 15 14
19 26 15 45 -3 15 -1 48 5 73 7 33 7 59 -1 90 -6 23 -13 57 -16 75 -3 18 -9
35 -14 38 -5 3 -9 20 -9 38 0 31 -4 34 -42 46 -40 11 -92 61 -128 120 -5 8
-12 11 -17 7 -4 -4 -2 -16 5 -27 6 -10 8 -21 4 -24 -9 -5 -34 20 -52 54 -25
47 -240 111 -430 130 -63 6 -134 13 -157 15 -28 3 -47 0 -55 -9 -11 -11 -16
-8 -30 15 -21 35 -57 38 -84 8 -18 -20 -18 -21 0 -35 22 -16 29 -84 9 -84 -21
0 -15 -14 10 -25 28 -13 27 -26 -7 -45 -24 -13 -28 -13 -36 0 -9 14 -15 7 -11
-14 1 -4 -6 -14 -16 -22 -11 -8 -13 -13 -5 -14 6 0 12 -9 12 -20 0 -13 7 -20
18 -20 10 0 25 -12 33 -26 13 -24 12 -28 -13 -49 -27 -23 -29 -52 -6 -82 5 -6
13 -39 19 -74 6 -35 14 -68 18 -74 5 -5 11 -28 14 -51 6 -35 3 -44 -21 -66
-42 -40 -79 -44 -108 -13 -46 50 -57 84 -58 185 -1 72 -5 98 -16 107 -13 10
-12 14 6 35 12 13 26 32 32 44 12 22 6 64 -9 64 -5 0 -9 10 -9 21 0 17 -3 19
-13 10 -8 -6 -17 -8 -20 -4 -12 11 -8 41 5 47 7 3 4 4 -7 3 -16 -2 -19 3 -17
22 1 13 -3 30 -9 37 -6 7 -8 18 -4 25 4 6 1 15 -6 20 -8 5 -14 23 -14 41 l0
33 -62 -2 c-35 -1 -76 -8 -93 -16 -58 -29 -50 31 8 64 l37 20 -38 -6 c-32 -5
-43 -1 -81 28 l-45 34 -63 -14 c-127 -29 -119 -30 -113 10 4 20 1 38 -5 42 -5
3 -10 12 -10 20 0 11 7 12 32 4 37 -10 247 -11 323 -1 l50 7 8 53 c6 39 4 70
-8 120 -9 37 -20 72 -25 77 -4 6 -12 32 -19 59 -6 26 -27 79 -46 117 -19 38
-35 82 -35 99 0 37 -18 81 -54 134 -14 21 -31 57 -37 79 -13 50 -37 87 -55 87
-8 0 -14 8 -14 17 0 18 -41 128 -68 182 -18 37 -42 52 -42 28 0 -8 -6 -20 -13
-26 -10 -7 -12 -28 -9 -68 6 -83 -14 -57 -34 43 -22 111 -53 214 -75 246 -11
14 -19 31 -19 37 0 13 16 15 24 3 3 -5 20 -7 38 -6 19 1 43 -6 59 -17 34 -24
43 -24 36 1 -3 11 -2 18 2 16 4 -3 12 8 19 23 10 23 78 73 97 71 47 -4 55 0
49 27 -7 26 -6 26 35 20 25 -3 41 -1 41 5 0 20 35 37 63 31 24 -5 27 -3 27 21
0 32 3 32 43 4 18 -13 37 -23 42 -23 6 0 10 -7 10 -15 0 -8 9 -16 20 -18 11
-1 37 -8 58 -14 32 -10 40 -9 48 3 5 8 6 21 3 29 -3 8 -10 28 -15 44 -7 25 -6
28 11 23 11 -3 20 -1 20 4 0 5 6 9 13 9 16 0 69 -53 66 -66 -3 -20 2 -28 10
-16 6 10 17 -1 39 -40 34 -58 68 -95 79 -85 5 6 -11 68 -54 200 -3 11 0 17 11
17 9 0 16 -7 16 -15 0 -8 5 -15 10 -15 6 0 10 6 10 13 0 8 10 22 22 33 12 10
18 13 14 7 -5 -9 0 -13 13 -13 14 0 19 5 15 15 -4 8 -1 15 5 15 6 0 11 7 11
16 0 10 4 12 13 7 6 -4 16 -8 22 -8 5 0 11 -9 13 -20 2 -14 1 -16 -6 -7 -13
19 -35 -10 -30 -40 2 -18 8 -22 26 -20 13 2 32 -4 43 -14 17 -16 19 -16 19 -1
0 25 17 21 24 -5 4 -15 0 -27 -10 -35 -15 -11 -14 -16 5 -56 11 -24 21 -53 21
-64 0 -16 10 -23 40 -31 43 -11 47 -6 30 33 -8 18 -9 18 -9 2 -1 -10 -6 -15
-12 -12 -5 4 -8 19 -6 33 2 15 2 21 0 15 -10 -29 -23 -10 -19 26 3 22 1 41 -3
43 -5 2 -12 19 -16 38 -7 30 -6 33 7 22 8 -6 18 -9 21 -5 4 3 7 2 7 -4 0 -5 6
-10 14 -10 11 0 12 6 5 24 -14 37 -11 41 9 10 32 -48 105 -126 113 -121 4 2
-3 21 -17 42 -20 29 -24 46 -22 83 2 26 9 53 15 60 6 8 14 29 18 47 6 27 22
39 40 30 2 -2 10 6 18 16 8 10 19 16 24 13 6 -4 13 -1 16 7 4 9 17 12 36 10
17 -2 31 1 31 6 0 6 7 10 15 10 8 0 15 5 15 11 0 7 11 9 27 6 15 -3 37 2 50
10 21 14 23 14 23 -1 0 -10 -4 -14 -10 -11 -6 3 -10 -1 -10 -9 0 -8 4 -18 10
-21 6 -3 10 -1 10 4 0 6 5 11 10 11 7 0 7 -6 2 -17 -11 -21 -5 -45 15 -56 10
-6 13 -18 9 -35 -5 -21 -4 -24 4 -12 9 12 11 8 8 -17 -3 -18 -2 -30 2 -28 3 2
21 -40 40 -93 18 -53 50 -134 71 -180 62 -134 179 -287 179 -232 0 6 -5 9 -11
8 -6 -2 -14 3 -16 10 -3 8 2 10 14 6 11 -3 14 -2 7 3 -6 4 -23 55 -38 113 -15
58 -35 132 -46 165 -10 33 -33 107 -50 164 -18 58 -43 129 -56 159 -24 55 -32
90 -14 62 20 -30 9 6 -11 40 -15 24 -17 30 -5 21 14 -12 16 -10 16 11 0 39 13
41 32 6 11 -22 17 -27 18 -15 0 10 5 15 10 12 6 -3 10 5 10 19 0 14 5 28 12
32 7 5 9 2 6 -7 -4 -9 1 -15 11 -16 13 -1 16 6 13 36 -3 32 0 39 24 49 31 15
43 7 46 -30 1 -15 6 -24 11 -21 5 3 6 24 2 47 -4 29 -3 37 4 26 13 -19 34
-147 27 -165 -3 -8 -2 -15 3 -15 4 0 20 -53 35 -117 15 -65 38 -152 52 -193
14 -41 34 -106 44 -145 11 -38 33 -108 50 -154 32 -88 35 -101 22 -85 -5 5
-19 41 -32 81 -13 40 -32 82 -41 94 -14 19 -13 9 6 -62 35 -128 64 -250 69
-288 2 -19 10 -37 16 -41 7 -4 13 -42 16 -96 2 -70 1 -84 -8 -66 -6 12 -15 22
-19 22 -5 0 -12 18 -15 39 -4 28 -10 38 -20 34 -8 -3 -18 6 -25 21 -9 20 -15
23 -25 15 -8 -6 -25 -8 -40 -5 -20 5 -32 1 -51 -18 -14 -14 -22 -30 -18 -37 5
-8 1 -9 -14 -4 -24 7 -29 -10 -5 -19 25 -10 74 -7 74 4 0 6 7 10 16 10 10 0
14 -6 11 -14 -7 -17 28 -52 37 -37 7 11 32 5 54 -12 11 -9 10 -12 -3 -20 -11
-6 -13 -12 -6 -20 7 -9 0 -12 -27 -12 -24 0 -36 -4 -34 -12 1 -7 -3 -13 -10
-13 -6 0 -8 -3 -5 -7 4 -3 2 -13 -5 -20 -9 -11 -9 -16 0 -22 6 -4 13 -16 15
-26 14 -69 66 -132 99 -120 10 4 18 -4 25 -27 6 -18 11 -25 12 -15 1 21 2 21
36 3 17 -9 22 -16 13 -19 -9 -4 -7 -6 5 -6 9 -1 17 6 17 15 0 13 3 14 15 4 8
-7 22 -9 32 -6 9 4 20 1 24 -6 6 -9 11 -9 23 1 9 7 25 11 36 8 11 -3 20 -1 20
4 0 10 53 12 63 2 10 -9 -25 -32 -50 -33 -16 0 -21 -5 -17 -15 4 -9 -3 -19
-20 -26 -14 -7 -26 -15 -26 -18 0 -3 -16 -7 -35 -8 -38 -3 -46 12 -18 32 9 7
14 19 10 29 -8 20 -21 20 -40 1 -8 -7 -26 -17 -41 -21 -29 -7 -32 -14 -15 -31
9 -9 8 -18 -4 -36 -10 -15 -12 -29 -7 -38 5 -7 7 -24 3 -37 -5 -21 1 -40 28
-94 5 -10 9 -24 9 -32 0 -8 7 -16 15 -20 8 -3 12 -12 9 -21 -5 -11 -2 -14 9
-9 14 5 15 1 7 -26 -10 -35 -20 -51 -20 -32 0 21 -15 13 -27 -14 -11 -23 -10
-27 7 -31 13 -4 20 -15 21 -32 1 -17 3 -20 6 -8 2 9 9 17 15 17 6 0 8 9 5 20
-3 11 -1 20 4 20 5 0 9 -4 9 -10 0 -18 62 -80 80 -80 11 0 22 -5 26 -11 4 -8
-1 -9 -17 -4 -13 4 -21 4 -17 0 4 -4 18 -9 32 -10 35 -4 23 19 -20 40 -19 9
-34 17 -34 18 0 2 17 1 37 -1 34 -4 36 -3 24 12 -28 34 7 14 44 -25 40 -41
110 -79 146 -79 10 0 19 -4 19 -10 0 -5 -14 -10 -30 -10 -18 0 -33 -6 -36 -15
-4 -8 -13 -15 -21 -15 -8 0 -11 -5 -8 -10 5 -8 11 -7 21 1 18 15 31 4 16 -14
-7 -8 -9 -16 -6 -20 11 -11 -7 -44 -31 -57 -19 -10 -23 -19 -19 -37 4 -14 2
-23 -5 -23 -6 0 -19 -8 -29 -18 -18 -18 -17 -19 7 -30 34 -16 78 -15 148 3 60
16 172 23 190 12 12 -7 5 -97 -7 -110 -8 -9 -53 15 -83 45 -20 20 -37 24 -37
8 0 -13 -33 -13 -46 0 -7 7 -21 6 -43 -3 l-32 -13 26 -12 c14 -7 34 -12 43
-12 16 -1 16 -1 0 -13 -9 -7 -16 -22 -15 -33 1 -12 -5 -20 -18 -22 -14 -2 -26
8 -40 35 l-20 38 -59 -3 c-132 -8 -175 -51 -92 -91 39 -18 46 -25 46 -50 0
-36 17 -83 33 -93 21 -14 37 -8 37 12 0 11 4 20 10 20 5 0 22 13 37 29 16 16
33 30 38 30 11 2 22 -30 24 -68 1 -22 -2 -23 -34 -18 -39 6 -40 5 -24 -25 14
-25 1 -39 -29 -31 -16 4 -21 11 -18 22 4 11 2 11 -9 -3 -13 -17 -18 -18 -38
-7 -13 7 -29 11 -37 9 -7 -2 -16 8 -19 20 -6 22 -61 51 -98 52 -15 0 -12 -42
9 -128 l12 -52 262 0 262 0 11 33 c6 19 10 44 9 56 -3 23 3 29 57 51 51 21 58
26 69 45 6 11 25 32 43 48 27 25 30 33 22 55 -10 26 -4 62 11 62 5 0 8 18 8
41 0 33 5 45 33 70 32 29 38 30 102 26 37 -2 67 -1 67 3 0 4 -11 17 -25 30
-17 16 -22 27 -15 34 11 11 70 -39 70 -59 0 -17 48 -55 69 -55 11 0 23 -4 26
-10 7 -12 -39 -24 -60 -16 -20 7 -45 -3 -45 -19 0 -8 8 -11 19 -8 11 3 27 1
37 -5 12 -7 31 -5 61 5 37 13 54 13 106 3 66 -13 117 -42 117 -67 0 -8 10 -23
23 -34 19 -16 20 -20 7 -29 -19 -13 -50 -13 -50 0 0 16 -40 12 -46 -5 -17 -43
-51 9 -38 59 4 19 1 26 -16 31 -17 5 -30 -1 -54 -24 -31 -30 -32 -30 -106 -23
-103 10 -170 9 -167 -3 1 -6 27 -9 59 -7 42 2 72 -4 119 -23 34 -14 68 -25 75
-25 7 0 37 -24 67 -53 30 -30 62 -57 71 -60 21 -8 16 -32 -7 -32 -9 0 -17 -4
-17 -8 0 -4 0 -11 0 -17 0 -5 9 -10 20 -10 11 0 20 -6 20 -14 0 -9 -22 -16
-70 -23 -40 -5 -70 -5 -70 0 0 5 -19 8 -42 7 -24 -1 -47 -1 -53 0 -5 1 -14 2
-19 1 -26 -5 -167 23 -177 35 -6 8 -16 14 -21 14 -6 0 -5 -6 1 -14 9 -11 9
-20 2 -35 -6 -11 -11 -22 -11 -25 0 -3 144 -6 320 -6 l320 0 0 230 c0 220 -5
256 -28 214 -9 -15 -12 -15 -40 2 -60 35 -46 61 28 51 l39 -5 1 1042 0 1042
-23 13 c-21 11 -30 10 -65 -8 -45 -23 -95 -27 -138 -11 -18 7 -29 7 -33 1 -11
-17 -96 -31 -150 -24 -59 7 -119 49 -108 76 3 9 2 19 -4 22 -5 4 -7 10 -4 15
7 12 -21 26 -68 34 -28 5 -45 3 -64 -9 -30 -20 -89 -29 -98 -15 -4 6 -8 31 -9
56 -2 40 1 47 23 59 26 14 26 14 -15 15 -42 0 -64 -13 -64 -40 0 -8 -7 -27
-14 -42 -12 -23 -13 -28 -1 -28 7 0 20 -6 27 -13 7 -7 29 -20 48 -29 30 -15
35 -15 38 -3 2 8 8 15 13 15 6 0 7 -5 3 -12 -4 -7 -8 -36 -10 -66 -1 -43 -7
-59 -27 -80 -25 -24 -28 -25 -66 -12 -23 7 -43 21 -46 32 -4 10 -11 18 -16 18
-5 0 -9 6 -9 14 0 12 -20 26 -36 26 -8 0 1 -75 9 -81 11 -8 -166 -33 -196 -27
-24 5 -24 4 -20 -51 3 -31 5 -63 5 -71 0 -9 22 -31 50 -50 27 -19 54 -42 59
-52 5 -10 15 -18 22 -18 7 0 31 -18 52 -40 34 -35 43 -39 71 -34 39 7 66 -17
62 -56 -2 -19 6 -34 32 -57 32 -29 34 -34 32 -87 -3 -74 -16 -104 -47 -112
-28 -7 -29 -11 -16 -48 13 -33 -8 -53 -38 -36 -12 6 -21 15 -21 19 0 5 -22 32
-49 60 -37 38 -56 51 -78 51 -16 0 -33 -4 -39 -9 -5 -5 -28 -11 -51 -13 -35
-3 -43 0 -47 16 -4 14 -11 17 -27 13 -13 -4 -29 -1 -36 5 -17 14 -17 58 1 58
8 0 17 7 20 16 5 13 9 14 20 5 11 -9 25 -9 55 -1 29 7 47 8 60 0 11 -5 22 -6
25 -1 8 12 -25 39 -53 43 -32 4 -40 28 -9 28 13 0 31 11 41 25 17 24 17 24
-12 40 -38 19 -60 19 -67 0 -7 -16 -39 -20 -48 -6 -8 13 21 34 39 28 22 -9 31
14 11 29 -13 9 -14 13 -4 16 9 3 4 14 -15 37 -15 18 -27 38 -27 45 0 7 -9 21
-19 30 -11 10 -22 30 -26 44 -10 42 -56 104 -69 93 -22 -18 -82 -29 -102 -18
-35 19 -33 31 18 86 28 31 57 70 64 87 15 35 29 49 62 58 19 6 22 4 22 -18 0
-14 2 -26 5 -26 18 0 55 26 64 46 12 28 42 31 66 7 13 -12 19 -13 25 -4 5 10
9 9 13 -2 3 -8 0 -20 -6 -26 -8 -8 -8 -14 1 -23 9 -9 15 -9 24 0 7 7 31 12 54
12 38 0 43 2 41 22 -1 13 -10 31 -20 41 -16 16 -16 20 -2 40 8 12 15 33 15 48
0 14 9 34 20 44 11 10 20 24 20 31 0 7 9 18 20 24 11 6 20 17 20 25 0 8 5 15
11 15 6 0 9 6 6 13 -8 21 4 32 49 46 63 20 66 23 58 69 -5 32 -11 42 -28 44
-14 2 -22 12 -24 28 -2 14 -8 30 -13 36 -17 20 18 24 150 18 106 -5 144 -11
236 -41 61 -19 120 -39 132 -45 12 -6 43 -8 70 -5 29 4 71 1 108 -8 33 -8 66
-14 73 -15 9 0 12 119 12 563 -1 527 -2 560 -17 527 -9 -19 -18 -45 -19 -57
-4 -28 -42 -103 -53 -103 -5 0 -12 -8 -14 -17 -3 -12 -5 -8 -6 9 -1 23 -5 26
-28 25 -19 -1 -28 3 -28 13 0 20 -16 31 -35 25 -10 -3 -20 6 -29 28 -8 17 -13
36 -12 41 1 5 -5 6 -14 3 -8 -4 -15 -3 -15 2 0 5 -11 12 -25 15 -14 4 -25 11
-25 16 0 6 -13 10 -30 10 -24 0 -30 4 -30 21 0 16 -4 19 -17 14 -56 -24 -60
-21 -66 47 -3 36 -3 91 0 123 6 54 5 58 -13 51 -41 -16 -104 -30 -109 -24 -6
6 -8 77 -3 122 2 25 -1 31 -22 36 -14 4 -24 12 -23 18 2 6 -3 9 -11 6 -7 -3
-19 2 -26 11 -7 8 -23 15 -36 15 -66 0 24 150 131 219 56 36 200 104 265 125
30 10 62 22 70 27 8 5 26 14 39 19 13 6 36 19 51 30 33 24 53 25 70 5 10 -12
66 -45 77 -45 1 0 3 167 3 370 l0 370 -3800 0 -3800 0 0 -1005z m6088 141 c3
-3 6 -18 8 -33 7 -60 11 -68 36 -71 14 -2 33 4 41 13 15 14 22 13 86 -7 62
-20 71 -26 71 -48 l0 -24 -16 22 c-20 29 -40 18 -21 -11 20 -31 29 -75 17 -82
-15 -9 -50 4 -50 20 0 16 -27 28 -35 15 -3 -5 -1 -11 5 -15 5 -3 10 -13 10
-22 0 -13 -3 -13 -15 -3 -8 7 -15 21 -15 31 0 23 -9 24 -24 3 -14 -19 -43 -9
-51 17 -4 11 -18 27 -31 36 -14 9 -24 24 -22 33 2 10 -8 31 -22 47 -46 52 -63
85 -50 93 12 7 66 -3 78 -14z m-427 -368 c13 4 31 8 39 7 8 -1 36 -3 63 -3 27
-1 47 -7 47 -13 0 -6 -7 -9 -15 -6 -8 4 -17 2 -20 -3 -4 -6 2 -10 11 -10 28 0
12 -8 -31 -14 -76 -12 -160 -37 -185 -55 -31 -22 -110 -34 -110 -18 0 16 56
53 105 70 22 8 41 20 41 28 1 8 2 18 3 23 0 5 7 3 15 -3 8 -7 22 -8 37 -3z
m859 -98 c0 -5 -6 -10 -12 -10 -7 -1 -31 -9 -53 -20 -37 -18 -38 -19 -13 -20
15 0 30 5 33 10 8 13 65 13 65 0 0 -5 6 -7 14 -4 26 10 26 -13 0 -27 -20 -10
-29 -11 -45 -1 -27 17 -24 -2 3 -20 l22 -15 -22 -19 c-26 -22 -29 -44 -6 -44
10 0 14 -6 10 -15 -3 -8 -2 -15 3 -15 4 0 6 -13 3 -30 -3 -18 0 -30 7 -30 6 0
11 9 11 20 0 11 2 20 5 20 13 0 78 -71 71 -77 -4 -4 -15 3 -25 16 -15 20 -19
21 -24 7 -4 -9 -2 -16 4 -16 6 0 7 -5 4 -10 -9 -15 -115 14 -115 32 0 18 14
38 26 38 23 0 16 14 -13 28 -39 17 -47 15 -66 -17 -13 -22 -27 -31 -64 -37
-39 -7 -49 -13 -51 -32 -2 -12 2 -22 8 -22 7 0 9 -7 6 -16 -4 -10 6 -32 26
-56 27 -35 30 -42 16 -52 -8 -6 -17 -18 -21 -26 -5 -13 -6 -13 -6 1 -1 11 -9
14 -30 11 -18 -2 -28 -9 -25 -16 3 -8 -6 -11 -32 -8 -29 4 -34 6 -20 14 9 5
14 13 11 18 -3 5 0 19 7 30 11 18 10 23 -5 31 -9 6 -15 15 -11 20 3 6 12 5 22
-3 13 -11 15 -10 9 4 -3 10 -2 20 3 23 20 12 10 36 -12 33 -14 -2 -24 3 -26
13 -2 13 3 15 23 12 18 -4 25 -1 25 11 0 9 5 16 10 16 6 0 10 11 10 26 0 19 7
28 30 35 17 6 30 15 30 20 0 5 5 9 11 9 6 0 26 7 44 16 37 17 50 47 29 65 -11
9 -21 4 -49 -27 -19 -21 -35 -42 -35 -47 0 -4 -9 -5 -20 -2 -15 5 -20 2 -20
-12 0 -15 -2 -15 -9 -4 -11 17 22 91 40 91 13 0 39 25 39 39 0 15 31 29 63 29
16 0 34 5 40 11 14 14 47 15 47 1z m-444 -1099 c-5 -8 43 -46 94 -76 10 -5 39
-28 64 -49 26 -21 57 -40 70 -41 27 -3 107 -44 87 -45 -11 0 -11 -3 0 -16 10
-13 10 -17 -1 -24 -8 -5 -12 -12 -9 -15 4 -3 25 7 48 22 23 15 49 28 59 29 9
2 33 6 52 10 19 4 41 8 47 10 21 4 27 -17 30 -100 1 -66 -2 -85 -20 -117 -12
-21 -30 -40 -39 -43 -10 -2 -21 -12 -25 -23 -3 -10 -18 -33 -31 -51 -29 -39
-48 -30 -58 27 -10 55 -88 151 -123 151 -29 0 -128 57 -171 98 -19 18 -56 44
-81 57 -51 26 -59 45 -59 136 0 46 2 49 33 58 17 5 33 10 35 10 2 1 1 -3 -2
-8z m57 -759 c2 7 8 0 12 -17 5 -16 17 -47 27 -67 11 -20 23 -63 28 -95 5 -32
16 -87 24 -123 9 -36 15 -74 15 -85 l0 -20 -9 20 -9 20 0 -20 c0 -11 2 -31 6
-44 6 -23 7 -23 14 -5 6 14 8 9 10 -21 1 -22 1 -48 1 -58 -1 -10 3 -15 8 -12
6 3 15 -6 20 -20 13 -34 13 -48 -1 -39 -6 3 -15 0 -20 -7 -7 -12 -9 -11 -9 1
0 13 -1 13 -10 0 -8 -13 -10 -13 -10 2 0 9 9 20 20 23 11 4 17 11 14 17 -4 7
-9 6 -14 -2 -4 -7 -10 1 -13 20 -4 17 -14 39 -23 48 -12 11 -13 17 -5 20 8 3
7 8 -3 16 -9 6 -25 46 -35 88 -22 84 -36 118 -51 118 -5 0 -14 17 -19 38 -22
84 -29 122 -20 122 5 0 10 -10 10 -22 1 -18 2 -19 6 -5 2 9 9 15 14 12 5 -4 9
-2 9 4 0 5 3 16 6 25 4 10 1 16 -9 16 -8 0 -18 -6 -20 -12 -3 -8 -6 -5 -6 5
-1 10 -5 16 -9 13 -4 -2 -14 -1 -22 5 -12 7 -12 9 3 9 11 0 15 5 11 11 -4 7 1
7 16 -1 22 -12 22 -11 16 16 -6 26 -5 27 8 11 10 -13 15 -15 19 -5z m1288
-633 c15 -10 35 -19 44 -19 46 0 77 -52 38 -64 -56 -15 -123 -17 -143 -3 -16
11 -31 12 -58 6 -20 -5 -52 -9 -69 -9 -28 0 -33 4 -33 23 1 29 23 57 46 57 10
1 37 9 59 20 44 22 74 19 116 -11z m-6071 -259 c-6 -11 -20 -20 -30 -20 -11 0
-20 -4 -20 -8 0 -5 -17 -16 -37 -26 -32 -15 -38 -16 -48 -3 -9 13 -13 13 -29
1 -22 -15 -68 -13 -90 5 -10 8 -16 9 -21 1 -3 -5 -18 -10 -33 -9 -15 1 -34 -1
-43 -5 -10 -4 -20 -3 -23 2 -7 11 13 29 34 30 8 1 49 8 90 15 41 8 79 11 84 7
4 -4 22 -3 40 2 17 6 54 14 81 18 28 4 51 8 53 9 1 0 -2 -8 -8 -19z m5887 -20
c14 -11 38 -20 54 -20 35 0 63 -35 49 -61 -8 -13 -18 -16 -50 -12 -31 4 -40 2
-40 -10 0 -24 45 -48 78 -41 45 9 51 -21 11 -60 -20 -19 -34 -26 -36 -19 -2 7
-10 10 -18 7 -8 -3 -22 4 -32 15 -9 12 -29 21 -43 21 -14 0 -31 4 -38 9 -7 4
-31 3 -52 -3 -32 -8 -46 -7 -75 7 -62 29 -38 84 26 60 16 -6 29 -7 29 -2 0 12
-35 29 -60 29 -17 0 -21 5 -18 27 3 25 10 30 67 45 35 9 66 20 69 23 12 12 55
4 79 -15z m-631 -601 c26 -25 35 -61 10 -40 -28 24 -28 -10 0 -47 40 -52 48
-59 62 -54 7 2 12 -5 12 -16 0 -26 37 -36 49 -14 9 15 10 15 17 -3 4 -11 18
-35 31 -53 14 -18 23 -38 20 -45 -3 -8 9 -12 39 -12 47 0 53 -9 29 -41 -10
-12 -17 -15 -22 -8 -22 29 -116 46 -154 27 -25 -13 -33 -13 -59 1 -27 13 -30
13 -30 -3 0 -9 -9 -24 -20 -34 -11 -9 -20 -24 -20 -32 0 -20 -14 -19 -31 1
-12 14 -9 20 21 46 19 16 34 33 33 39 -2 5 6 9 16 9 58 0 21 156 -42 176 -13
4 -16 9 -8 13 11 7 5 37 -23 102 -11 25 40 16 70 -12z m229 -451 c35 -16 33
-46 -5 -60 -35 -12 -54 -40 -45 -67 10 -32 -17 -48 -71 -42 l-49 6 -7 54 c-6
36 -4 58 3 67 13 16 39 19 39 4 0 -19 28 -10 44 14 8 14 26 27 38 29 13 2 24
5 25 6 1 0 14 -4 28 -11z"/>
<path d="M3427 3945 c-49 -13 -91 -26 -95 -29 -3 -4 -5 -30 -4 -59 1 -60 -12
-92 -27 -68 -6 10 -4 25 5 43 15 29 15 29 -13 22 -38 -10 -45 -22 -39 -74 l6
-45 -25 28 c-30 33 -35 34 -35 2 0 -14 5 -25 10 -25 6 0 10 -6 10 -14 0 -10 7
-12 23 -8 21 5 21 4 6 -14 -9 -10 -19 -36 -22 -56 -5 -31 -3 -36 11 -31 9 4
19 9 22 13 18 22 76 51 140 68 41 11 109 39 150 62 41 22 99 52 128 66 51 25
62 37 42 49 -6 3 -8 16 -4 29 16 64 -124 84 -289 41z"/>
<path d="M2982 3689 c-13 -5 -28 -6 -34 -3 -5 3 -16 -3 -23 -13 -15 -21 -76
-34 -173 -37 -45 -1 -57 -6 -90 -37 -41 -39 -121 -72 -142 -59 -15 9 -73 -38
-64 -52 11 -18 -25 -73 -60 -92 -54 -29 -55 -11 -2 40 26 26 45 48 42 51 -2 3
-14 -3 -25 -13 -11 -11 -52 -39 -90 -64 -44 -29 -73 -55 -80 -72 -6 -17 -17
-28 -29 -28 -19 0 -52 29 -52 46 0 5 -20 16 -45 25 l-45 16 -72 -37 c-83 -42
-92 -64 -40 -89 18 -9 35 -26 38 -38 7 -27 6 -26 38 -12 34 16 60 -4 51 -38
-6 -24 -5 -24 57 -17 35 3 70 7 78 8 8 1 39 14 69 29 50 24 57 25 83 11 15 -8
28 -23 28 -33 0 -10 9 -21 20 -24 17 -4 19 -11 14 -31 -4 -18 -2 -26 7 -26 10
-1 9 -5 -4 -14 -16 -13 -16 -14 -1 -20 10 -4 21 -1 25 6 4 7 11 9 15 5 4 -4
13 -2 20 3 6 6 16 9 21 8 6 -2 33 21 61 50 29 28 54 52 57 52 9 0 54 54 55 65
0 6 16 17 36 24 19 7 39 22 44 34 5 12 24 45 43 74 25 39 37 49 45 41 9 -9 17
-7 31 6 11 10 20 21 19 25 -5 27 29 112 52 128 11 8 16 20 13 32 -3 13 2 21
16 26 12 3 21 10 21 15 0 5 3 15 6 24 7 18 0 19 -34 5z"/>
<path d="M3353 3539 c-19 -12 -33 -29 -33 -41 0 -25 -21 -19 -31 10 -5 13 -4
24 3 28 7 4 8 3 4 -4 -10 -17 3 -15 20 3 14 13 12 15 -11 15 -33 0 -68 -18
-60 -31 4 -5 11 -7 16 -4 15 10 10 -20 -11 -70 l-20 -46 21 6 c15 5 19 4 15
-4 -4 -6 -2 -11 3 -11 6 0 11 18 11 40 0 36 2 40 25 40 25 0 25 -1 9 -25 -13
-19 -14 -28 -5 -39 8 -10 9 -16 1 -21 -5 -3 -10 -10 -10 -16 0 -14 26 -11 40
6 9 11 16 12 26 4 7 -6 19 -9 26 -6 8 3 6 6 -6 6 -14 1 -17 6 -12 25 4 16 1
26 -9 30 -11 4 -15 0 -13 -11 2 -10 -5 -19 -14 -21 -32 -6 -20 28 17 49 19 12
33 25 30 29 -3 4 1 10 9 13 8 3 21 19 29 36 15 31 15 31 -11 31 -15 0 -42 -10
-59 -21z"/>
<path d="M151 3373 c-24 -29 -31 -47 -31 -79 l0 -42 43 5 c42 4 61 -5 82 -38
6 -9 18 -28 29 -43 17 -24 17 -28 2 -51 -18 -28 -36 -30 -104 -14 -55 14 -92
44 -92 75 0 29 -19 43 -52 37 l-28 -5 0 -134 0 -134 25 -6 c28 -7 60 -57 51
-80 -3 -8 -21 -22 -41 -31 l-35 -17 0 -78 c0 -50 4 -78 11 -78 13 0 92 61 98
75 9 23 83 85 102 85 20 0 89 40 89 52 0 4 -9 13 -21 21 -29 21 -22 67 13 86
24 14 28 14 47 -3 12 -11 21 -27 21 -37 0 -29 154 93 185 145 30 51 26 65 -19
90 -18 10 -59 47 -91 82 -31 35 -63 64 -71 64 -19 0 -131 57 -136 68 -1 5 -13
12 -24 16 -17 5 -29 -1 -53 -31z"/>
<path d="M3196 3295 c-19 -20 -21 -35 -3 -35 6 0 4 -5 -5 -11 -10 -5 -18 -14
-18 -19 0 -5 8 -7 18 -4 16 5 15 4 -1 -9 -10 -8 -18 -18 -18 -21 1 -3 -1 -6
-4 -6 -3 0 -12 0 -20 0 -12 0 -13 4 -6 19 6 10 7 21 4 25 -3 3 -12 -4 -18 -17
-13 -24 -1 -62 16 -52 5 4 9 1 9 -5 0 -6 10 -8 26 -4 24 6 25 5 15 -15 -7 -11
-8 -21 -4 -21 16 0 73 40 73 50 0 6 4 9 9 6 5 -3 14 8 20 24 5 17 6 30 1 30
-4 0 -17 17 -27 38 -20 42 -43 51 -67 27z"/>
<path d="M2100 3060 c-13 -11 -29 -20 -36 -20 -15 0 -39 -38 -30 -47 3 -4 14
4 25 15 10 12 24 22 31 22 6 0 0 -14 -14 -31 -14 -17 -26 -34 -26 -39 0 -4
-13 -13 -30 -20 -38 -16 -39 -28 -2 -23 19 3 31 -2 40 -16 11 -18 10 -21 -6
-21 -22 0 -47 -42 -39 -64 3 -8 1 -17 -6 -19 -7 -2 13 -4 43 -3 53 1 55 0 56
-25 3 -70 33 -64 83 16 41 64 44 85 15 85 -10 0 -9 5 6 20 11 11 20 27 20 35
0 8 8 15 18 15 13 0 14 2 4 9 -11 7 -11 11 2 24 17 16 21 45 8 62 -32 45 -123
59 -162 25z"/>
<path d="M173 2442 c-7 -7 -14 -25 -14 -40 -4 -82 -5 -83 -99 -122 l-60 -25 0
-287 c0 -275 1 -289 20 -308 l20 -20 20 20 c11 11 20 27 20 35 0 8 5 15 10 15
6 0 10 -4 10 -10 0 -17 29 -11 41 8 8 13 20 17 40 14 22 -3 29 0 29 11 0 10
15 20 41 27 22 6 42 17 45 25 3 8 35 33 71 56 116 73 280 235 317 313 14 30
26 57 26 60 0 3 -16 6 -35 6 -45 0 -63 32 -47 80 15 40 0 80 -29 80 -11 0 -33
14 -47 30 -26 30 -55 39 -66 21 -8 -12 -30 -8 -51 9 -24 20 -242 21 -262 2z"/>
<path d="M4368 2240 c-3 -19 0 -30 7 -30 25 0 38 -57 41 -175 4 -188 47 -295
117 -295 l30 0 -27 -25 c-25 -24 -34 -59 -17 -69 4 -3 11 -29 14 -58 9 -71 55
-194 83 -221 13 -12 24 -32 24 -44 0 -12 14 -32 33 -47 29 -24 30 -26 10 -26
-30 0 -31 -39 -3 -65 11 -10 20 -28 20 -39 0 -28 15 -50 29 -42 6 4 11 16 11
28 0 11 8 22 20 25 20 5 36 41 28 64 -2 7 -20 19 -39 26 l-34 13 37 -5 c25 -4
41 -1 51 10 37 36 35 285 -2 398 -13 37 -28 67 -35 67 -11 0 -24 14 -45 49 -7
11 -16 10 -53 -8 -59 -28 -78 -27 -78 4 0 16 16 42 41 70 51 55 63 112 32 153
-11 15 -23 40 -27 57 -11 42 -79 109 -171 166 -43 27 -82 49 -86 49 -4 0 -9
-13 -11 -30z"/>
<path d="M4106 2245 c-35 -36 -33 -117 10 -290 28 -118 44 -159 55 -148 14 14
22 422 8 439 -15 18 -54 18 -73 -1z"/>
<path d="M4202 2083 c1 -81 -4 -185 -11 -231 l-12 -83 40 -113 c22 -63 37
-117 33 -121 -4 -4 0 -12 8 -18 8 -7 26 -37 40 -67 13 -30 31 -62 40 -70 15
-16 85 -41 128 -46 13 -2 30 -8 38 -14 11 -10 16 -7 25 13 13 29 12 37 -59
302 -68 252 -99 339 -137 385 -7 8 -15 31 -19 50 -6 33 -85 151 -106 158 -5 2
-8 -58 -8 -145z"/>
<path d="M5028 2191 c-7 -12 -19 -21 -26 -21 -21 0 -43 -27 -36 -44 3 -9 1
-16 -6 -16 -6 0 -9 -8 -6 -18 4 -10 0 -37 -8 -61 -15 -41 -13 -71 6 -71 6 0 7
8 3 18 -5 13 -3 14 6 5 9 -9 17 -8 35 4 23 14 23 14 15 -14 -5 -17 -5 -37 1
-46 5 -10 7 -21 4 -26 -3 -5 1 -12 10 -15 24 -9 54 -7 54 4 0 6 7 10 15 10 8
0 15 5 15 10 0 5 3 9 8 9 20 -3 55 3 43 8 -10 4 -8 9 10 19 19 10 20 13 7 14
-10 0 -18 4 -18 10 0 10 27 3 48 -13 9 -7 12 -4 12 10 0 10 5 24 12 31 6 6 8
15 4 19 -4 4 -11 2 -15 -6 -7 -10 -10 -9 -14 3 -4 9 -12 16 -19 16 -15 0 -42
38 -43 60 0 8 -6 16 -12 16 -7 1 -16 3 -20 4 -5 1 -12 2 -17 1 -5 -1 -13 4
-18 11 -8 10 -11 10 -15 1 -2 -7 -9 -13 -15 -13 -5 0 -1 12 10 28 20 27 20 28
1 50 l-18 23 -13 -20z"/>
<path d="M431 1767 c-16 -16 -14 -96 3 -103 11 -4 15 -26 15 -87 1 -99 17
-129 77 -138 21 -4 40 -6 41 -5 1 1 6 21 11 44 8 35 7 46 -6 59 -15 14 -14 18
2 47 47 81 78 147 72 154 -4 3 -27 -1 -52 -10 l-45 -16 -15 29 c-8 16 -18 30
-22 30 -34 7 -72 5 -81 -4z"/>
<path d="M5320 1569 c7 -11 9 -27 6 -35 -3 -8 0 -14 7 -14 8 0 7 -3 -2 -9 -18
-12 -41 -3 -41 15 0 19 -19 18 -26 -1 -3 -8 1 -22 10 -30 9 -9 16 -13 16 -8 0
4 14 9 30 10 20 1 30 -2 30 -12 0 -7 5 -15 12 -17 7 -3 8 -9 3 -18 -18 -29
-13 -47 12 -42 28 5 31 -14 4 -23 -11 -3 -18 -12 -15 -19 3 -7 -6 -17 -19 -23
-19 -9 -26 -8 -35 8 -11 16 -9 19 9 19 13 0 18 -4 13 -12 -4 -7 -3 -8 5 -4 6
4 9 12 6 17 -8 12 -62 11 -70 -1 -11 -18 -35 10 -31 35 3 14 -1 22 -10 22 -8
0 -14 -8 -14 -18 0 -10 -7 -16 -17 -15 -11 1 -19 -9 -24 -31 -3 -18 -3 -33 2
-33 5 0 9 -4 9 -10 0 -5 -13 -10 -30 -10 -22 0 -28 -4 -24 -15 3 -8 11 -13 17
-12 7 1 11 -10 9 -28 -2 -20 0 -26 6 -17 7 11 11 11 19 0 6 -7 9 -20 8 -29 -2
-10 4 -16 14 -15 9 0 16 -7 16 -17 0 -10 6 -22 14 -26 11 -7 11 -9 0 -14 -10
-4 -10 -6 -1 -6 6 -1 12 -5 12 -10 0 -17 44 -58 58 -54 6 3 12 13 12 24 0 10
5 19 10 19 15 0 12 -11 -10 -45 -12 -19 -16 -32 -9 -36 8 -5 8 -13 0 -27 -15
-29 -14 -42 5 -35 11 4 12 8 4 13 -7 4 -4 14 10 31 19 21 21 21 15 4 -4 -15
-3 -17 5 -9 6 6 22 9 36 6 18 -3 22 -7 13 -13 -8 -4 -10 -11 -6 -16 5 -4 12
-1 17 7 7 11 4 20 -13 34 -16 14 -17 18 -4 13 9 -4 17 -2 17 3 0 6 -4 10 -10
10 -5 0 -10 9 -10 21 0 11 4 18 9 14 5 -3 13 0 17 6 3 6 0 15 -7 20 -11 7 -10
9 4 9 9 0 17 -5 17 -12 0 -6 3 -8 6 -5 4 4 2 13 -5 21 -9 11 -9 15 1 19 7 3 8
6 2 6 -6 1 -9 12 -6 26 3 21 8 24 29 19 13 -4 22 -2 21 2 -2 5 2 9 7 9 6 0 9
-2 8 -5 -1 -3 -5 -14 -9 -25 -7 -18 -6 -18 9 -6 9 7 17 22 17 32 0 11 4 19 9
19 5 0 13 9 16 20 9 27 18 25 38 -10 27 -46 41 -38 32 18 -4 26 -7 55 -7 65 1
9 -3 17 -7 17 -5 0 -2 18 5 41 8 22 13 56 11 75 -4 35 8 45 31 22 15 -15 16 0
2 38 -8 19 -8 30 0 38 16 16 12 23 -20 36 -29 12 -33 11 -60 -15 -15 -15 -33
-24 -39 -21 -6 4 -11 0 -11 -9 0 -9 -4 -13 -10 -10 -5 3 -10 2 -10 -4 0 -5 4
-12 9 -15 4 -3 11 -23 15 -43 3 -21 9 -48 12 -59 4 -14 0 -23 -9 -27 -11 -4
-13 0 -10 14 4 14 0 19 -15 19 -11 0 -34 8 -51 17 -25 15 -29 22 -24 43 l6 25
-22 -19 c-21 -19 -21 -19 -15 -1 5 11 4 16 -3 12 -5 -4 -10 6 -10 23 0 34 -28
80 -49 80 -12 0 -13 -4 -4 -21z"/>
<path d="M4859 1473 c0 -32 -1 -85 -2 -118 -2 -72 19 -84 37 -20 9 30 13 36
19 23 7 -20 28 -23 44 -7 13 13 -2 68 -23 85 -8 6 -12 18 -9 26 6 14 -1 23
-39 56 -24 19 -27 15 -27 -45z"/>
<path d="M1420 1229 c-40 -16 -57 -37 -55 -69 1 -17 -2 -30 -7 -30 -5 0 -6 -4
-3 -10 3 -5 0 -10 -8 -10 -8 0 -22 16 -32 36 -11 24 -20 32 -25 24 -4 -6 -11
-12 -16 -12 -5 0 -14 -3 -21 -5 -6 -3 -20 0 -32 6 -26 15 -51 14 -82 -3 -14
-7 -37 -16 -52 -20 -15 -3 -27 -12 -27 -19 0 -10 25 -14 103 -14 168 0 188 -3
181 -26 -3 -11 -1 -23 7 -27 9 -6 9 -12 -4 -25 -16 -15 -21 -29 -18 -47 0 -5
-3 -8 -8 -8 -4 0 -5 -18 -1 -40 4 -22 4 -37 -1 -35 -4 3 -9 0 -11 -6 -2 -6
-16 -12 -31 -12 -15 -1 -27 -6 -27 -11 0 -4 -7 -6 -15 -2 -8 3 -21 -1 -29 -9
-19 -20 -69 -3 -60 20 3 8 2 15 -2 16 -5 0 -21 3 -36 5 -16 3 -28 0 -28 -6 0
-5 -5 -10 -11 -10 -6 0 -9 7 -6 15 5 11 1 12 -19 5 -34 -13 -41 -13 -48 5 -3
8 4 24 16 35 12 11 18 21 12 21 -40 6 -53 5 -48 -2 2 -4 -11 -11 -30 -14 -22
-5 -36 -14 -39 -26 -4 -16 -12 -19 -41 -16 -42 4 -56 14 -32 23 13 5 15 14 10
40 -4 24 -1 42 11 60 19 30 15 39 -12 26 -35 -18 -89 -34 -163 -48 -70 -14
-145 -35 -250 -71 -82 -28 -200 -120 -200 -155 0 -7 -23 -38 -51 -67 -28 -29
-48 -55 -46 -58 7 -7 -47 -58 -57 -55 -5 2 -4 -4 4 -12 7 -9 8 -16 2 -16 -5 0
-12 -9 -15 -20 -3 -11 -14 -20 -24 -20 -14 0 -22 -12 -31 -45 -14 -53 -16 -95
-4 -95 5 0 41 -31 79 -70 39 -38 83 -72 97 -76 14 -3 26 -10 26 -16 0 -5 5 -6
10 -3 13 8 70 -4 70 -15 0 -4 -10 -11 -23 -14 l-22 -6 25 -15 c14 -8 33 -12
43 -9 9 3 31 -2 48 -10 33 -16 176 -25 197 -12 7 4 12 3 12 -2 0 -4 36 -9 80
-11 58 -1 90 3 115 15 23 11 48 15 70 11 28 -5 41 -1 66 20 26 22 34 25 50 15
10 -7 26 -12 34 -12 28 0 94 40 117 70 12 17 28 30 35 30 7 0 13 6 13 14 0 10
15 13 58 12 41 -1 56 2 54 12 -7 36 76 122 117 122 8 0 33 8 55 19 61 27 152
44 203 36 42 -6 44 -5 34 13 -8 15 -7 27 4 49 8 15 15 22 15 14 0 -19 81 49
91 76 6 18 5 21 -8 16 -12 -5 -15 -2 -10 10 3 8 -1 21 -9 27 -18 16 -18 40 1
40 11 0 15 12 15 45 0 25 -4 45 -10 45 -18 0 -10 29 12 44 21 15 21 16 3 17
-11 1 -26 1 -34 0 -7 -2 -10 2 -6 9 4 7 16 10 26 7 11 -3 18 -2 16 1 -23 50
-44 82 -53 82 -6 0 -9 13 -7 33 3 24 2 29 -6 17 -9 -12 -11 -11 -11 8 0 12 -8
26 -17 29 -10 4 -25 16 -34 26 -15 19 -16 18 -33 -17 -9 -20 -21 -36 -26 -36
-13 0 -13 6 5 41 9 16 12 35 8 42 -5 8 -9 3 -14 -13 l-7 -25 -1 27 c-2 51 -20
78 -63 98 -48 22 -62 23 -98 9z m-818 -799 c20 -15 45 -20 90 -21 84 -1 113
-10 113 -34 0 -13 6 -19 17 -17 24 4 31 -15 8 -21 -11 -3 -20 -1 -20 4 0 18
-31 21 -43 5 -7 -9 -22 -18 -35 -19 -12 0 -22 -5 -22 -9 0 -16 -44 -8 -65 12
-13 13 -37 21 -64 22 -23 1 -44 5 -47 10 -7 12 -62 10 -69 -2 -4 -7 -11 -7
-18 -2 -7 5 -21 7 -32 5 -11 -2 -25 -5 -32 -5 -7 -1 -14 -7 -17 -14 -6 -17
-36 -7 -36 11 0 7 6 16 13 18 9 4 9 6 0 6 -6 1 -15 -4 -19 -10 -4 -7 -19 3
-40 27 -20 22 -34 31 -34 23 0 -8 5 -20 12 -27 9 -9 9 -12 -1 -12 -7 0 -11 -6
-8 -14 3 -8 0 -17 -8 -20 -9 -3 -12 0 -8 10 3 7 0 14 -6 14 -6 0 -11 -4 -11
-9 0 -9 -82 -13 -112 -5 -30 9 -7 35 51 62 38 16 79 26 125 28 38 2 71 6 75
10 3 3 53 3 111 0 82 -5 111 -11 132 -26z"/>
<path d="M28 1133 c-9 -2 -19 -11 -22 -20 -5 -13 -4 -14 9 -3 13 10 15 9 15
-9 0 -12 -6 -21 -15 -21 -21 0 -20 -56 1 -64 14 -5 13 -9 -2 -36 -18 -29 -18
-30 1 -44 24 -17 69 -28 89 -20 8 3 30 1 50 -4 22 -6 38 -7 42 -1 3 5 20 9 39
9 19 0 37 5 40 10 8 13 42 13 47 -1 6 -19 58 8 58 31 0 24 8 25 38 4 21 -14
27 -12 23 10 -1 5 8 19 20 32 l21 23 -36 6 c-20 4 -36 11 -36 15 0 15 -39 21
-60 10 -28 -15 -39 -4 -14 15 21 16 22 16 -60 18 -61 2 -87 -15 -52 -35 9 -5
14 -14 10 -19 -8 -13 -54 32 -54 54 0 33 -90 57 -152 40z"/>
<path d="M4454 1015 c-10 -8 -39 -15 -64 -15 -34 0 -48 -5 -58 -20 -7 -12 -10
-25 -7 -30 3 -5 -11 -12 -30 -16 -33 -6 -36 -9 -33 -37 2 -26 9 -32 37 -40 40
-10 83 -4 125 18 15 8 39 15 52 15 12 0 26 5 29 10 3 6 1 10 -4 10 -6 0 -11 5
-11 10 0 6 9 10 21 10 17 0 20 5 18 33 -3 34 -24 67 -44 67 -6 0 -20 -7 -31
-15z"/>
<path d="M2359 218 c-34 -37 -34 -38 -15 -64 17 -22 11 -73 -10 -90 -8 -6 -13
-23 -12 -38 l2 -26 366 1 c225 0 356 4 343 9 -23 9 -251 22 -358 21 -48 -1
-76 6 -140 34 l-80 34 -3 52 c-3 55 -25 99 -49 99 -8 0 -27 -15 -44 -32z"/>
</g>
</svg>
