<?xml version="1.0" standalone="no"?>
<!DOCTYPE svg PUBLIC "-//W3C//DTD SVG 20010904//EN"
 "http://www.w3.org/TR/2001/REC-SVG-20010904/DTD/svg10.dtd">
<svg version="1.0" xmlns="http://www.w3.org/2000/svg"
 width="400.000000pt" height="267.000000pt" viewBox="0 0 411.000000 267.000000"
 preserveAspectRatio="xMidYMid meet">
<metadata>
Created by potrace 1.16, written by Peter Selinger 2001-2019
</metadata>
<g transform="translate(0.000000,267.000000) scale(0.100000,-0.100000)"
fill="#000000" stroke="none">
<path d="M2504 2441 c-22 -10 -50 -31 -62 -46 -19 -24 -26 -26 -61 -20 -81 13
-176 -38 -202 -110 -10 -26 -20 -36 -43 -41 -71 -15 -136 -84 -136 -145 0 -66
64 -134 142 -153 24 -6 56 -41 46 -52 -3 -2 -20 1 -39 6 -19 6 -79 9 -135 8
-96 -3 -103 -2 -140 25 -51 34 -74 35 -74 2 0 -29 51 -90 93 -112 l31 -16 -55
-17 c-243 -76 -455 -292 -514 -525 -18 -70 -19 -183 -4 -255 l11 -51 34 7 c28
5 34 3 34 -10 0 -10 7 -30 15 -46 9 -17 11 -30 6 -30 -5 0 -69 29 -142 65 -73
35 -163 71 -200 80 -138 31 -331 14 -707 -61 -245 -49 -272 -57 -272 -78 0
-36 20 -36 366 -7 286 24 341 26 354 15 10 -10 11 -17 3 -25 -6 -6 -165 -28
-353 -49 -187 -20 -346 -42 -352 -48 -5 -5 -8 -18 -6 -28 5 -26 42 -27 403
-11 251 12 302 12 315 1 10 -10 11 -17 4 -24 -9 -9 -291 -37 -564 -56 -128 -8
-153 -16 -148 -47 l3 -22 352 0 c268 0 355 -3 364 -12 9 -9 10 -16 3 -23 -7
-7 -150 -17 -354 -26 -188 -8 -346 -17 -351 -20 -12 -7 -12 -41 0 -48 27 -17
361 -39 596 -40 l260 -1 87 29 c53 17 120 49 170 82 249 161 267 167 480 168
135 1 137 1 122 -19 -8 -11 -17 -28 -21 -37 -7 -22 -12 -22 -37 -3 -11 8 -33
15 -48 15 -16 0 -39 7 -53 16 -38 25 -58 6 -77 -73 -27 -110 -56 -179 -114
-266 -30 -44 -54 -86 -54 -93 0 -21 30 -31 111 -39 63 -6 83 -4 113 10 49 23
83 69 97 131 10 44 17 53 53 72 31 17 58 22 110 22 92 0 183 24 281 72 63 32
99 60 167 129 l88 88 135 2 c100 1 139 -1 150 -11 9 -8 51 -17 93 -22 42 -4
96 -10 120 -14 46 -7 72 6 72 36 0 16 22 17 365 12 399 -5 396 -6 431 51 28
48 26 187 -4 244 -33 64 -54 74 -132 63 -36 -5 -191 -25 -345 -45 -154 -19
-295 -37 -312 -40 -28 -5 -33 -3 -33 14 0 59 -37 81 -85 51 l-34 -21 -42 22
c-31 15 -52 19 -80 15 -46 -7 -47 -6 -95 137 -30 89 -71 175 -133 278 l-21 36
40 7 c52 8 113 63 136 121 9 24 27 51 40 60 30 20 30 36 0 64 -51 48 -62 133
-18 139 14 2 23 11 24 25 4 56 -5 116 -24 160 -21 48 -21 50 -3 98 24 69 18
163 -14 208 -47 65 -147 88 -227 52z m108 -51 c49 -14 78 -52 78 -103 0 -77
-97 -135 -173 -103 -34 14 -34 14 -51 -20 -24 -52 -70 -76 -133 -70 -51 4 -53
4 -53 -20 0 -15 -12 -38 -29 -55 -23 -23 -38 -29 -71 -29 -52 0 -76 13 -95 50
-22 42 -19 66 14 102 25 28 36 33 75 33 42 0 46 2 46 25 0 83 113 145 196 108
22 -10 28 -10 32 0 13 41 68 82 122 91 3 1 22 -4 42 -9z m-27 -550 c-21 -40
-13 -60 22 -60 76 -1 96 -29 68 -96 -22 -53 -62 -93 -101 -100 -30 -5 -38 -1
-79 42 -25 27 -48 57 -51 69 -4 11 -17 35 -31 53 -46 61 -5 106 107 119 41 5
76 8 78 7 2 -1 -4 -16 -13 -34z m-413 -101 c80 -17 168 -62 224 -116 58 -56
160 -207 211 -312 45 -94 57 -201 27 -239 -26 -31 -82 -39 -127 -17 -78 37
-200 171 -330 365 -16 23 -30 40 -33 37 -3 -2 1 -25 7 -50 11 -39 10 -48 -5
-72 -19 -29 -17 -29 -145 -9 -62 10 -51 -14 20 -41 50 -19 54 -23 57 -56 2
-21 -2 -40 -10 -46 -7 -5 -58 -15 -113 -21 -55 -7 -167 -31 -249 -53 -168 -46
-201 -45 -248 1 -25 26 -28 35 -28 99 0 63 4 78 47 161 131 257 442 422 695
369z m184 -625 c126 -104 160 -124 216 -124 48 0 48 0 48 -34 0 -30 -4 -34
-31 -40 -75 -15 -102 -8 -148 39 -24 24 -82 70 -127 101 -86 59 -105 84 -84
109 22 26 46 16 126 -51z m-270 -34 c94 -24 209 -88 274 -150 91 -88 89 -164
-5 -256 -75 -73 -180 -124 -254 -124 -95 0 -131 53 -71 104 36 30 123 58 155
50 13 -3 27 1 35 11 11 13 10 19 -5 35 -16 18 -16 20 3 45 21 26 20 55 -2 55
-6 0 -44 -17 -85 -37 -72 -37 -77 -38 -180 -38 -87 1 -117 5 -164 24 -151 60
-179 184 -55 247 108 55 227 66 354 34z m776 -93 c12 -10 17 -34 20 -107 l3
-95 -32 -3 c-41 -4 -128 33 -148 64 -19 29 -20 84 -1 109 27 38 124 57 158 32z
m726 -54 c2 -16 -4 -26 -20 -32 -13 -6 -146 -17 -297 -26 -280 -16 -314 -14
-281 19 17 17 435 65 535 63 54 -2 60 -4 63 -24z m-2395 -31 c84 -39 131 -72
120 -83 -5 -5 -38 3 -73 18 -49 20 -89 28 -165 32 -88 5 -100 8 -103 25 -11
57 109 61 221 8z"/>
</g>
</svg>
